<?xml version="1.0" encoding="UTF-8" standalone="no"?>
<!-- Created with Inkscape (http://www.inkscape.org/) -->

<svg
   xmlns:dc="http://purl.org/dc/elements/1.1/"
   xmlns:cc="http://creativecommons.org/ns#"
   xmlns:rdf="http://www.w3.org/1999/02/22-rdf-syntax-ns#"
   xmlns:svg="http://www.w3.org/2000/svg"
   xmlns="http://www.w3.org/2000/svg"
   xmlns:sodipodi="http://sodipodi.sourceforge.net/DTD/sodipodi-0.dtd"
   xmlns:inkscape="http://www.inkscape.org/namespaces/inkscape"
   width="210mm"
   height="297mm"
   viewBox="0 0 744.09448819 1052.3622047"
   id="svg4231"
   version="1.1"
   inkscape:version="0.91 r13725"
   sodipodi:docname="HMPSpeed-belakang.svg"
   inkscape:export-filename="/home/ars/Tamiya/tshirt/HMPSpeed-belakang.png"
   inkscape:export-xdpi="90"
   inkscape:export-ydpi="90">
  <defs
     id="defs4233" />
  <sodipodi:namedview
     id="base"
     pagecolor="#ffffff"
     bordercolor="#666666"
     borderopacity="1.0"
     inkscape:pageopacity="0.0"
     inkscape:pageshadow="2"
     inkscape:zoom="0.35"
     inkscape:cx="-110.71429"
     inkscape:cy="520"
     inkscape:document-units="px"
     inkscape:current-layer="layer1"
     showgrid="false"
     inkscape:snap-page="true"
     inkscape:window-width="1366"
     inkscape:window-height="716"
     inkscape:window-x="0"
     inkscape:window-y="24"
     inkscape:window-maximized="1" />
  <metadata
     id="metadata4236">
    <rdf:RDF>
      <cc:Work
         rdf:about="">
        <dc:format>image/svg+xml</dc:format>
        <dc:type
           rdf:resource="http://purl.org/dc/dcmitype/StillImage" />
        <dc:title></dc:title>
      </cc:Work>
    </rdf:RDF>
  </metadata>
  <g
     inkscape:label="Layer 1"
     inkscape:groupmode="layer"
     id="layer1">
    <rect
       style="color:#000000;clip-rule:nonzero;display:inline;overflow:visible;visibility:visible;opacity:1;isolation:auto;mix-blend-mode:normal;color-interpolation:sRGB;color-interpolation-filters:linearRGB;solid-color:#000000;solid-opacity:1;fill:#1a1a1a;fill-opacity:1;fill-rule:nonzero;stroke:#000000;stroke-width:1;stroke-linecap:round;stroke-linejoin:round;stroke-miterlimit:4;stroke-dasharray:none;stroke-dashoffset:0;stroke-opacity:1;color-rendering:auto;image-rendering:auto;shape-rendering:auto;text-rendering:auto;enable-background:accumulate"
       id="rect4779"
       width="744.09448"
       height="1052.3622"
       x="0"
       y="0" />
    <g
       id="g4768"
       transform="matrix(0.36958975,0,0,0.36958975,245.18723,40.681651)"
       style="display:inline;fill:#ffffff">
      <path
         sodipodi:nodetypes="ccssssssscccccccccccssssssssssccsscsscsscscssscscscssssscsccccscsscscccscscsscscccccssssscscsccscccssssccccssssscsscccssssssssscccccsscssscsscccccssssccccccsssscccscsccccccscssscssssssscccscccsccc"
         style="fill:#ffffff"
         d="m 120.16238,397.78159 c -0.44057,-0.44057 -0.33162,-8.11134 0.11917,-8.38994 0.2209,-0.13653 2.77338,-0.39773 5.67217,-0.58045 5.78841,-0.36486 6.90154,-0.78656 8.35096,-3.16367 0.79515,-1.30409 0.82566,-2.33562 0.82719,-27.96287 0.002,-28.778 0.0411,-28.26435 -2.26374,-29.49788 -0.73876,-0.39537 -2.08448,-0.51129 -4.37917,-0.3772 -5.88156,0.34367 -10.46342,3.27267 -13.02399,8.32571 -1.29116,2.54799 -1.85816,4.73091 -2.5035,9.6384 l -0.49649,3.7756 -4.44895,0 -4.44895,0 0,-14.82984 0,-14.82984 39.405,0 39.40501,0 0.11136,14.95065 0.11137,14.95065 -4.34846,-0.12081 -4.34847,-0.12081 -0.29695,-3.58496 c -0.39879,-4.81427 -1.03952,-7.38029 -2.57172,-10.2993 -2.40611,-4.58391 -6.89135,-7.46054 -12.22778,-7.84236 -3.48676,-0.24947 -4.76961,0.40017 -5.45786,2.7639 -0.31924,1.09641 -0.42342,9.7103 -0.3353,27.7239 0.14571,29.78774 -0.16061,27.50107 3.96325,29.58445 2.07291,1.04723 2.21823,1.05916 12.90112,1.05927 11.7074,1.2e-4 13.0027,-0.1936 14.93903,-2.23416 1.53974,-1.62263 6.55405,-14.7552 18.31252,-47.96086 3.42184,-9.66322 6.40359,-17.90967 6.62611,-18.32545 0.3702,-0.69172 1.22247,-0.75542 10.02907,-0.74948 5.29347,0.003 9.83517,0.14657 10.09268,0.31778 0.25751,0.17122 4.14188,9.9401 8.63194,21.70864 9.32182,24.4327 16.35575,42.46183 17.24057,44.19048 1.13415,2.21576 2.81754,2.83795 7.68305,2.83972 5.03972,0.002 6.3974,-0.48924 7.44267,-2.69197 0.61748,-1.30125 0.6927,-4.25229 0.6927,-27.17798 0,-21.98068 -0.0924,-25.91283 -0.63544,-27.05732 -1.01786,-2.14498 -2.06089,-2.54877 -6.99134,-2.70658 -6.94747,-0.22237 -6.40605,0.19993 -6.26441,-4.88614 l 0.12062,-4.33126 19.11743,-0.11021 c 14.9747,-0.0863 19.20965,0.006 19.54295,0.42371 0.47803,0.59982 3.53871,8.48523 11.14386,28.71062 5.75168,15.29622 6.95875,18.21952 7.52311,18.21952 0.46029,0 4.02349,-9.03057 12.03722,-30.50711 3.26086,-8.73901 6.12546,-16.12952 6.36579,-16.42335 0.34152,-0.41757 4.28791,-0.5101 18.07112,-0.42371 l 17.63418,0.11053 0.12212,4.20208 c 0.0894,3.07627 -0.0241,4.29486 -0.4237,4.54839 -0.30022,0.19047 -1.68986,0.34995 -3.0881,0.35439 -3.22003,0.0102 -5.04198,1.0483 -6.15912,3.50926 -0.77252,1.70177 -0.81395,3.05728 -0.82278,26.91786 -0.01,26.79658 -0.0452,26.31188 2.05044,28.20837 0.61158,0.55347 1.92032,0.89755 4.34278,1.14176 1.90707,0.19225 3.63759,0.51974 3.8456,0.72776 0.20802,0.20801 0.32298,2.17247 0.25549,4.36547 l -0.12273,3.98725 -20.01117,0.11008 -20.01118,0.11007 -0.24067,-0.95892 c -0.13236,-0.5274 -0.18413,-2.48362 -0.11504,-4.34717 l 0.12563,-3.38825 3.60154,-0.33929 c 6.84415,-0.64477 7.62127,-1.01268 8.45115,-4.00098 0.61052,-2.19839 0.61385,-46.98719 0.003,-47.36439 -0.54168,-0.33478 0.35553,-2.61773 -12.49097,31.78337 l -10.60368,28.39548 -5.25056,0 -5.25057,0 -2.9101,-8.05048 c -4.15727,-11.50062 -19.0239,-51.62317 -19.2882,-52.05561 -0.12204,-0.19966 -0.3858,-0.10432 -0.58614,0.21186 -0.48757,0.76948 -0.46222,44.61083 0.027,46.72003 0.21122,0.9106 0.87817,2.14995 1.48212,2.75411 1.00118,1.00155 1.49106,1.12025 5.55146,1.34519 2.44936,0.13568 4.64546,0.43878 4.88023,0.67355 0.24485,0.24484 0.37451,2.12689 0.30411,4.4141 l -0.12274,3.98725 -36.54497,0.10828 -36.54496,0.10829 0,-4.39095 0,-4.39095 2.60441,-0.27221 c 1.43243,-0.14972 3.69474,-0.27221 5.02738,-0.27221 3.2347,0 4.65579,-1.04541 4.65579,-3.42497 0,-1.54463 -2.58838,-9.23777 -3.51837,-10.45725 -0.31737,-0.41616 -3.48518,-0.51049 -14.22814,-0.42371 l -13.81986,0.11165 -1.87118,5.51662 c -1.99602,5.88467 -2.07277,7.3904 -0.42173,8.27402 0.48121,0.25753 3.38667,0.57719 6.45658,0.71036 3.33052,0.14447 5.7072,0.43049 5.89294,0.70919 0.37571,0.56372 0.42954,6.69093 0.0671,7.63548 -0.23238,0.60557 -4.78279,0.67022 -47.17302,0.67022 -25.80371,0 -47.04294,-0.12711 -47.1983,-0.28247 z M 228.1009,362.95575 c 0.25312,-0.40955 -9.29638,-27.14626 -9.91769,-27.76757 -0.24896,-0.24896 -0.48253,-0.17318 -0.62224,0.20191 -2.37136,6.36673 -9.10028,26.96123 -8.94303,27.37102 0.16868,0.43959 2.24504,0.55875 9.73617,0.55875 5.23697,0 9.62303,-0.16385 9.74679,-0.36411 z m 151.27196,34.5493 c -0.11974,-0.31204 -0.16214,-2.26436 -0.0942,-4.33852 l 0.12348,-3.77118 3.60154,-0.44513 c 3.84678,-0.47544 5.22986,-1.01449 5.92222,-2.30818 0.28202,-0.52695 0.43342,-9.96166 0.43342,-27.0084 0,-24.56383 -0.0483,-26.28862 -0.77423,-27.64218 -1.04146,-1.94191 -3.11945,-2.99209 -5.92044,-2.99209 -3.6749,0 -3.89915,-0.26333 -3.89159,-4.56979 0.003,-2.0309 0.15842,-3.93184 0.3441,-4.2243 0.26779,-0.42179 8.87472,-0.5094 41.62299,-0.42371 l 41.28539,0.10804 0,4.2371 0,4.23709 -3.17782,0.34021 c -5.32856,0.57046 -5.98973,0.73834 -7.03856,1.78716 -2.1282,2.12821 -1.45097,3.59454 7.1386,15.45659 3.4481,4.76177 5.95325,7.83863 6.38213,7.83863 0.85475,0 13.5866,-16.15669 14.76181,-18.73272 0.74661,-1.63655 0.76162,-1.90977 0.18116,-3.299 -0.80878,-1.93569 -2.6954,-2.7553 -6.34226,-2.7553 -1.50707,0 -3.23615,-0.18859 -3.84239,-0.41908 -1.09576,-0.4166 -1.10154,-0.44348 -0.98093,-4.55488 l 0.12132,-4.1358 18.64323,0 18.64323,0 0.12033,4.30619 0.12034,4.30619 -1.39147,0.26504 c -7.02654,1.33834 -6.71503,1.03218 -24.96673,24.53872 l -8.83852,11.38323 0,10.14108 c 0,11.5458 0.10001,11.98491 3.03059,13.30523 1.63707,0.73755 2.83054,0.8179 11.99901,0.8079 11.03071,-0.012 12.4217,-0.22803 14.31645,-2.22316 0.60353,-0.63547 1.7031,-2.68076 2.44353,-4.54509 3.03859,-7.65103 9.17459,-24.36497 15.2441,-41.52355 3.54463,-10.02074 6.70203,-18.84267 7.01643,-19.60429 l 0.57166,-1.38477 10.05019,0.11364 10.05018,0.11364 0.76264,1.90669 c 0.41943,1.04868 4.76626,12.39351 9.6596,25.21073 4.89338,12.81722 10.3797,27.01914 12.19187,31.55982 3.94245,9.87856 3.98855,9.9276 9.66219,10.28157 2.01881,0.12595 3.85059,0.40906 4.07066,0.62913 0.22008,0.22008 0.34495,2.1944 0.27741,4.3874 l -0.12271,3.98725 -21.39734,0 -21.39734,0 -0.12008,-4.28118 -0.12004,-4.28119 2.61853,-0.27369 c 1.44023,-0.15053 3.6303,-0.27369 4.86686,-0.27369 2.73314,0 4.15553,-0.5946 4.79855,-2.00588 0.55256,-1.21276 0.0823,-3.19745 -2.13139,-8.99444 l -1.3049,-3.41714 -14.02665,0.11159 -14.02666,0.11159 -1.89983,5.50822 c -2.02656,5.87559 -2.10791,7.38866 -0.44527,8.27848 0.47714,0.25537 3.47793,0.59455 6.66842,0.75373 l 5.80084,0.28941 0,4.2371 0,4.23709 -46.28174,0.10781 -46.28175,0.1078 -0.2401,-0.95664 c -0.13205,-0.52616 -0.18356,-2.48136 -0.11447,-4.34491 l 0.12563,-3.38825 5.50823,-0.33893 c 7.2997,-0.44915 8.06324,-0.58973 9.3869,-1.7283 1.48401,-1.27649 1.77114,-3.41174 1.81048,-13.4636 l 0.0309,-7.90406 -10.79715,-14.76441 c -5.93844,-8.12043 -11.84326,-15.93623 -13.12184,-17.36843 -3.39587,-3.80391 -5.15501,-4.52583 -11.54861,-4.7393 -6.33844,-0.21164 -7.78821,0.0388 -9.64095,1.66555 -2.3645,2.07606 -2.42211,2.84349 -2.27077,30.25293 0.12636,22.88634 0.18839,24.65279 0.90259,25.70478 1.05121,1.54838 1.53268,1.70467 6.85987,2.22688 l 4.66081,0.45689 0,4.2371 0,4.23709 -20.03199,0.11009 c -16.42099,0.0902 -20.07123,0.008 -20.24969,-0.45724 z m 164.8267,-34.56745 c 0.22084,-0.35727 -8.54766,-25.36476 -9.55122,-27.23997 -0.25236,-0.47152 -0.60777,-0.69383 -0.7898,-0.49403 -0.56544,0.62065 -9.32271,27.37103 -9.08586,27.75423 0.30029,0.48592 19.12622,0.46632 19.42688,-0.0202 z"
         id="path4747"
         inkscape:connector-curvature="0" />
      <g
         transform="translate(3.7780024,0)"
         id="g4764"
         style="fill:#ffffff">
        <path
           inkscape:connector-curvature="0"
           id="path4745"
           d="m 104.20264,299.72661 c -0.70321,-0.40689 -0.74149,-6.17794 -0.74149,-111.79177 0,-92.807809 0.095,-111.441587 0.5703,-111.836031 0.77515,-0.643318 233.41931,-0.679955 234.62078,-0.03695 0.80135,0.428868 0.81524,2.335497 0.81524,111.842161 0,109.13721 -0.0164,111.41465 -0.80752,111.83802 -1.11903,0.59889 -233.42201,0.58361 -234.45731,-0.0154 z m 175.73085,-43.41869 c -7.37444,-22.74579 -13.32138,-41.58193 -13.2154,-41.8581 0.10597,-0.27616 16.1366,-12.12277 35.62361,-26.3258 19.48701,-14.20303 35.43093,-25.97361 35.43093,-26.15685 0,-0.18324 -19.80626,-0.33316 -44.01393,-0.33316 -34.69528,0 -44.10657,-0.11213 -44.45153,-0.52963 -0.24068,-0.2913 -6.4888,-19.11991 -13.88472,-41.84134 -7.39592,-22.721439 -13.59211,-41.475176 -13.76931,-41.674975 -0.17719,-0.1998 -0.50983,-0.0091 -0.73918,0.423709 -0.22935,0.43284 -6.3734,19.091247 -13.65343,41.463116 -7.28004,22.37188 -13.40885,41.00981 -13.61958,41.41763 -0.36118,0.69898 -2.91092,0.74149 -44.46936,0.74149 -34.48315,0 -44.04871,0.11251 -43.91405,0.51651 0.0947,0.28408 16.02444,12.05792 35.39944,26.16408 19.37499,14.10616 35.3085,25.84644 35.4078,26.0895 0.0993,0.24306 -5.79383,18.83333 -13.09583,41.3117 -7.30201,22.47837 -13.39216,41.32359 -13.53367,41.87827 -0.2102,0.82389 -0.11756,0.97145 0.5061,0.80614 0.41988,-0.1113 16.01696,-11.24771 34.66019,-24.74759 18.64323,-13.49988 34.52544,-24.98852 35.29382,-25.53032 l 1.39703,-0.98508 1.56893,1.04432 c 0.86291,0.57438 17.01315,12.23665 35.88942,25.91617 23.68501,17.16439 34.36237,24.66954 34.45565,24.21902 0.0743,-0.35906 -5.89848,-19.26303 -13.27293,-42.00881 z"
           style="fill:#ffffff" />
        <path
           style="fill:#ffffff;fill-opacity:1"
           d="m 340.20896,299.72661 c -0.70321,-0.40689 -0.74149,-6.17794 -0.74149,-111.79177 0,-92.807809 0.095,-111.441587 0.5703,-111.836031 0.77515,-0.643318 233.41931,-0.679955 234.62078,-0.03695 0.80135,0.428868 0.81524,2.335497 0.81524,111.842161 0,109.13721 -0.0164,111.41465 -0.80752,111.83802 -1.11903,0.59889 -233.42201,0.58361 -234.45731,-0.0154 z m 175.73085,-43.41869 c -7.37444,-22.74579 -13.32138,-41.58193 -13.2154,-41.8581 0.10597,-0.27616 16.1366,-12.12277 35.62361,-26.3258 19.48701,-14.20303 35.43093,-25.97361 35.43093,-26.15685 0,-0.18324 -19.80626,-0.33316 -44.01393,-0.33316 -34.69528,0 -44.10657,-0.11213 -44.45153,-0.52963 -0.24068,-0.2913 -6.4888,-19.11991 -13.88472,-41.84134 -7.39592,-22.721439 -13.59211,-41.475176 -13.76931,-41.674975 -0.17719,-0.1998 -0.50983,-0.0091 -0.73918,0.423709 -0.22935,0.43284 -6.3734,19.091247 -13.65343,41.463116 -7.28004,22.37188 -13.40885,41.00981 -13.61958,41.41763 -0.36118,0.69898 -2.91092,0.74149 -44.46936,0.74149 -34.48315,0 -44.04871,0.11251 -43.91405,0.51651 0.0947,0.28408 16.02444,12.05792 35.39944,26.16408 19.37499,14.10616 35.3085,25.84644 35.4078,26.0895 0.0993,0.24306 -5.79383,18.83333 -13.09583,41.3117 -7.30201,22.47837 -13.39216,41.32359 -13.53367,41.87827 -0.2102,0.82389 -0.11756,0.97145 0.5061,0.80614 0.41988,-0.1113 16.01696,-11.24771 34.66019,-24.74759 18.64323,-13.49988 34.52544,-24.98852 35.29382,-25.53032 l 1.39703,-0.98508 1.56893,1.04432 c 0.86291,0.57438 17.01315,12.23665 35.88942,25.91617 23.68501,17.16439 34.36237,24.66954 34.45565,24.21902 0.0743,-0.35906 -5.89848,-19.26303 -13.27293,-42.00881 z"
           id="path4754"
           inkscape:connector-curvature="0" />
      </g>
    </g>
    <g
       transform="matrix(3.231399,0,0,3.231399,-2527.8242,-404.89276)"
       style="display:inline"
       id="g5160">
      <g
         transform="translate(-12.791697,1.266291)"
         id="g4380">
        <g
           id="g4370">
          <g
             id="g4361">
            <g
               id="g4353">
              <g
                 id="g4332">
                <g
                   id="g4326"
                   transform="translate(-77.876898,24.692675)">
                  <path
                     sodipodi:nodetypes="csssscssssscsssssscssssssssscssscccsssssssscscssssscssccssscsssssssscssssssssscccssssscssscsssccsscssccsssccsssscssssscc"
                     style="fill:#ffffff"
                     d="m 975.50303,207.71066 c 4.84062,-7.05281 10.83456,-12.26036 18.56348,-16.12798 3.61521,-1.80909 5.96419,-2.7755 12.91809,-5.31462 8.2781,-3.02261 11.2124,-4.34939 14.3778,-6.50123 4.1704,-2.83498 7.015,-6.26318 8.7728,-10.57289 0.4556,-1.11705 0.939,-2.06455 1.0756,-2.10805 0.5679,-0.18102 -0.479,6.05465 -1.5633,9.31172 -1.9022,5.71374 -5.3128,10.13347 -11.0534,14.32387 -2.268,1.65556 -3.7043,2.54885 -10.3362,6.42837 -8.71121,5.0959 -11.67469,7.20797 -15.30593,10.90853 -5.48719,5.59196 -10.10656,13.13858 -11.85558,19.36837 -2.16443,7.70945 -0.42044,13.28911 4.78394,15.30576 3.78775,1.46769 6.95251,0.78159 9.95101,-2.15732 1.47859,-1.44922 3.7391,-5.48349 4.64346,-8.2871 0.9437,-2.92554 1.6421,-6.40065 2.1538,-10.71608 0.7288,-6.14694 1.5617,-8.80456 3.9358,-12.55905 2.1075,-3.33291 4.1081,-5.14079 7.6221,-6.88789 1.5841,-0.78757 5.3131,-1.82725 5.7171,-1.59398 0.3194,0.18439 0.3258,0.17694 -1.4436,1.67332 -5.067,4.28488 -7.8547,12.3876 -7.7093,22.40794 0.1675,11.55028 -2.9725,20.81813 -9.6259,28.41081 -2.35415,2.68652 -6.86405,6.45048 -9.59107,8.00472 -0.74395,0.424 -2.01535,1.15291 -2.82537,1.61985 -1.80671,1.04146 -4.52075,2.23258 -8.27227,3.63048 -3.62249,1.34984 -5.75685,2.39289 -7.94755,3.88402 -2.37007,1.61317 -3.71518,2.94359 -5.05775,5.00244 -1.9612,3.00756 -2.51446,5.9857 -1.74303,9.38261 0.51158,2.2526 1.32589,3.95508 2.72435,5.69572 1.31103,1.63186 2.96209,2.57213 4.29314,2.44523 1.78894,-0.17075 3.89915,-2.21894 5.33542,-5.17861 0.88242,-1.8184 1.20341,-2.76679 2.23388,-6.60058 0.87567,-3.25786 2.50703,-6.46317 4.56394,-8.96733 1.39985,-1.7042 5.13637,-5.23625 5.55264,-5.24873 0.12443,-0.004 0.50575,-0.2857 0.84748,-0.62661 0.34176,-0.3409 0.96672,-0.80821 1.38873,-1.03839 0.42207,-0.23024 1.17055,-0.72299 1.66333,-1.09505 0.49277,-0.37205 2.29515,-1.69502 4.00529,-2.93995 3.54654,-2.58175 4.46414,-3.29654 6.42514,-5.00464 4.6163,-4.02096 7.968,-8.51139 11.0836,-14.84928 1.4022,-2.85235 1.5709,-2.69283 0.6659,0.62958 -1.6712,6.13503 -3.9051,11.53675 -6.454,15.60584 -1.9352,3.0895 -3.0211,4.4355 -6.8333,8.46957 -3.44847,3.64929 -3.3055,3.48236 -5.08111,5.93263 -0.87101,1.20192 -1.54571,2.29276 -1.59722,2.58225 -0.0491,0.27567 -0.35602,0.96342 -0.6821,1.52823 -0.53648,0.92921 -1.58889,3.88703 -1.71331,4.81513 -0.0274,0.20446 -0.21533,0.90174 -0.4176,1.5495 -0.47151,1.50985 -1.16278,5.82382 -1.74558,10.8931 -0.73025,6.35186 -1.84663,11.02657 -3.88204,16.25556 -0.70283,1.80555 -2.10658,4.30149 -11.90995,21.17641 -6.11226,10.52127 -11.54659,19.84628 -12.07629,20.72225 -0.52971,0.87599 -1.03453,1.7126 -1.12178,1.85919 -0.087,0.14667 -1.1686,2.15445 -2.40288,4.46197 -2.47726,4.63119 -2.6699,5.21336 -2.43596,7.36169 0.14766,1.35601 0.65926,2.26153 2.0512,3.63069 0.75398,0.74169 1.10681,0.97134 1.67283,1.08891 0.93795,0.19489 2.34054,-0.29404 3.14456,-1.09606 0.7989,-0.79694 24.53938,-41.94063 26.48399,-45.89835 2.77471,-5.64722 4.05841,-9.62957 4.83383,-14.99576 0.36003,-2.49155 1.02939,-11.98709 0.86636,-12.29014 -0.1875,-0.34841 0.37286,-8.01819 0.6766,-9.26113 0.15465,-0.63292 0.27669,-1.36823 0.27118,-1.63403 -0.005,-0.26579 0.167,-1.02568 0.38335,-1.68865 0.21633,-0.66295 0.47164,-1.5899 0.56735,-2.05988 0.4898,-2.40502 3.34417,-7.73879 5.87207,-10.97286 2.9568,-3.78275 5.9514,-6.62545 14.4935,-13.75872 6.6471,-5.55075 9.1331,-8.07554 11.4147,-11.59288 2.5639,-3.95274 3.7114,-8.10451 3.7742,-13.65655 0.013,-1.07301 0.1088,-2.02775 0.2147,-2.1217 0.2888,-0.25613 1.6342,4.64153 1.9904,7.24586 1.2249,8.95667 -1.0318,17.88632 -6.2294,24.64893 -1.5244,1.98341 -1.9991,2.4712 -6.1578,6.32654 -7.0939,6.57652 -10.4054,12.50147 -9.5502,17.08751 0.6592,3.53567 4.275,6.89708 7.3197,6.80483 2.2329,-0.0676 4.724,-1.61777 6.8598,-4.26865 1.2595,-1.56316 3.5564,-5.6452 4.6223,-8.21446 2.241,-5.40172 3.4388,-9.87727 5.5296,-20.66187 2.4473,-12.62337 4.4682,-17.5029 9.1329,-22.05249 2.443,-2.38281 7.4717,-5.33536 11.0893,-6.5111 0.6126,-0.19912 1.1341,-0.28667 1.1588,-0.1946 0.025,0.0923 -0.631,0.67218 -1.457,1.28899 -6.855,5.11923 -9.8724,11.33419 -10.478,21.58241 -0.079,1.33325 -0.169,4.98771 -0.2005,8.121 -0.097,9.61943 -0.4847,14.23343 -1.6554,19.67715 -1.1162,5.19028 -2.4941,9.0494 -4.7409,13.27744 -2.9671,5.58378 -5.3524,8.34544 -14.6539,16.96599 -6.4533,5.98093 -8.7521,8.67599 -11.5977,13.59742 -1.8847,3.25887 -2.6596,4.97303 -3.8098,8.42466 -0.816,2.44887 -1.8052,6.39586 -1.7089,6.81872 0.041,0.18041 0.9321,1.16898 1.98,2.19684 1.048,1.02786 1.935,2.0501 1.9712,2.27163 0.084,0.51325 -23.34275,41.17524 -26.1656,45.41589 -3.70092,5.55981 -7.20226,9.44162 -10.6675,11.82664 -0.84976,0.58486 -1.572,1.11013 -1.60496,1.16719 -0.076,0.13172 -1.45023,0.81936 -2.59049,1.29625 -0.48201,0.20161 -1.43728,0.60466 -2.12293,0.89583 -1.83994,0.78123 -4.42018,1.13784 -7.02032,0.97028 -6.31471,-0.40699 -12.08111,-3.60418 -19.26072,-10.6793 -5.87132,-5.78586 -9.86057,-10.43411 -11.77473,-13.71986 -1.40257,-2.40755 -2.93481,-6.20521 -3.55983,-8.82307 -1.80923,-7.57802 -0.58783,-15.06588 4.21188,-25.82113 0.35786,-0.80187 0.45191,-1.23127 0.29018,-1.32464 -14.20553,0.14817 -27.63953,-17.03777 -15.4358,-38.15823 7.72809,-13.36892 8.73334,-14.91177 12.54372,-19.25245 3.30875,-3.76922 5.76707,-5.8687 12.01354,-10.25989 4.32992,-3.04388 5.94347,-4.42583 7.56831,-6.48183 2.4996,-3.16291 4.24906,-8.08091 5.14674,-14.4682 0.14505,-1.03216 0.35387,-1.92515 0.46401,-1.98443 0.56494,-0.30396 1.06621,5.26443 0.83421,9.26725 -0.30197,5.2108 -1.43393,9.18615 -3.95662,13.89536 -2.55624,4.77183 -4.76512,7.38322 -8.80098,10.40477 -3.6159,2.70716 -5.11252,4.16729 -7.07171,6.89944 -2.84718,3.97044 -3.82326,7.94467 -2.46542,10.03791 1.4273,2.20034 5.02811,2.77246 9.64016,1.53191 4.23907,-1.1403 6.69547,-3.65822 9.00888,-9.23456 3.03785,-7.32252 5.16008,-19.74135 6.87529,-40.23316 0.87323,-10.43223 1.51251,-14.98417 2.90871,-20.71135 1.24363,-5.10127 3.40296,-11.08976 5.96501,-16.5428 1.53788,-3.27319 4.82054,-9.1878 6.27749,-11.31059 z"
                     id="path4307"
                     inkscape:connector-curvature="0" />
                  <path
                     inkscape:connector-curvature="0"
                     id="path4319"
                     d="m 1062.1163,343.18725 c 3.5585,-4.21188 5.9659,-8.75289 7.4559,-14.06365 0.6969,-2.4841 1.0312,-4.05818 1.8385,-8.65649 0.9609,-5.4739 1.4463,-7.46301 2.3785,-9.74671 1.2281,-3.00873 2.9131,-5.34676 5.1967,-7.21073 0.5918,-0.48313 1.0851,-0.95029 1.0973,-1.03933 0.051,-0.3705 -3.3891,1.44142 -5.1371,2.70574 -3.0665,2.21794 -5.2622,5.08044 -7.1159,9.27702 -0.7324,1.65801 -1.1083,2.67832 -2.7048,7.34258 -2.097,6.12665 -3.025,8.28328 -4.7929,11.13868 -2.6714,4.31486 -6.53,8.49035 -9.9029,10.7164 -4.1742,2.75479 -7.4962,2.7907 -9.1127,0.0986 -1.1766,-1.95937 -1.0754,-3.96226 0.3182,-6.29778 0.6872,-1.15166 2.7689,-3.26024 4.2763,-4.33134 1.5728,-1.11774 3.4795,-2.19555 5.8797,-3.32362 3.4187,-1.60688 4.8497,-2.60781 6.7625,-4.73004 1.698,-1.88394 2.5411,-3.41294 3.2121,-5.82535 0.3024,-1.08751 0.5528,-3.49172 0.3838,-3.68607 -0.1335,-0.15367 -0.1299,-0.15883 -0.8174,1.17389 -1.9686,3.81628 -6.309,7.01488 -12.0033,8.84568 -6.5638,2.11032 -11.5327,5.7402 -15.2324,11.12744 -1.3091,1.90619 -3.033,5.29334 -3.6662,7.20344 -0.1728,0.52107 -0.4704,1.4124 -0.6615,1.98079 -0.4262,1.26771 -0.8547,3.10067 -1.3061,5.58675 -0.436,2.40057 -0.8332,3.86236 -1.4795,5.44319 -0.699,1.71026 -1.331,2.76025 -2.3762,3.9481 -1.5268,1.73517 -3.165,2.63205 -5.161,2.82562 -1.3237,0.12834 -2.363,-0.0276 -3.477,-0.52168 -1.0444,-0.4632 -1.7276,-1.25979 -1.7767,-2.07125 -0.066,-1.09066 0.9035,-2.73045 2.4509,-4.14603 0.9507,-0.86968 1.4592,-1.24094 3.5391,-2.58374 1.7674,-1.14107 3.4364,-2.719 4.6691,-4.41448 0.8389,-1.15389 2.5016,-4.03934 2.4709,-4.28788 -0.01,-0.0743 0.116,-0.35375 0.2782,-0.62105 0.1622,-0.26735 0.3703,-0.7263 0.4625,-1.01994 0.092,-0.29371 0.3034,-0.83056 0.4696,-1.19317 0.1661,-0.36261 0.7523,-1.6816 1.3026,-2.93113 1.1412,-2.5913 1.463,-3.27074 2.2531,-4.75723 1.86,-3.49925 4.1011,-6.3404 7.4111,-9.39537 1.4897,-1.37487 1.3838,-1.44422 -0.4174,-0.27351 -3.3263,2.1619 -6.1857,4.51636 -8.261,6.80211 -1.5756,1.73551 -2.24,2.6352 -4.1805,5.66139 -1.7554,2.73751 -1.6738,2.62105 -2.9015,4.13986 -0.6023,0.74503 -1.1594,1.35271 -1.3188,1.43854 -0.1519,0.0817 -0.5139,0.39482 -0.8044,0.69575 -0.4781,0.49502 -2.0593,1.68321 -2.5742,1.93433 -0.1134,0.0553 -0.4917,0.29983 -0.8405,0.54337 -0.8132,0.56767 -3.1961,1.8017 -6.0172,3.11607 -3.5348,1.6469 -6.0837,3.20134 -8.8632,5.40534 -0.9598,0.76104 -2.2472,2.06868 -10.92313,11.09442 -5.40931,5.62741 -10.20207,10.62505 -10.65054,11.10588 -0.44849,0.48084 -0.87687,0.93944 -0.95206,1.01908 -0.0754,0.0794 -1.11522,1.10324 -2.31128,2.27456 -2.40043,2.35095 -2.71299,2.57625 -3.95226,2.84885 -0.78223,0.17205 -1.34213,0.0427 -2.24496,-0.5186 -0.48886,-0.30435 -0.65136,-0.46873 -0.7695,-0.78099 -0.19578,-0.51743 -0.0461,-1.44045 0.33549,-2.06936 0.37923,-0.6249 21.54713,-22.53549 23.61417,-24.4426 2.94942,-2.72123 5.09047,-4.24218 8.06237,-5.72726 1.3799,-0.68952 6.7026,-2.90177 6.8892,-2.86333 0.2146,0.0443 4.5121,-1.75428 5.1891,-2.17167 0.3448,-0.21253 0.7506,-0.42536 0.9018,-0.47296 0.1511,-0.048 0.5663,-0.29494 0.9225,-0.54972 0.3562,-0.25476 0.8586,-0.58306 1.1163,-0.72956 1.319,-0.74972 4.0835,-3.45808 5.6872,-5.57177 1.8758,-2.47227 3.2152,-4.78706 6.4827,-11.20343 2.5426,-4.99292 3.748,-6.94611 5.5347,-8.96828 2.0079,-2.27247 4.2574,-3.74524 7.3995,-4.84444 0.6072,-0.21276 1.1397,-0.45224 1.1834,-0.53283 0.1189,-0.21983 -2.7802,-0.0786 -4.2891,0.20891 -5.1894,0.98886 -10.0469,4.03163 -13.4084,8.39912 -0.9859,1.28095 -1.2193,1.65505 -3.027,4.85196 -3.0836,5.45337 -6.1416,8.54518 -8.8195,8.9167 -2.0645,0.28643 -4.299,-1.20894 -4.5236,-3.02726 -0.1647,-1.3335 0.4876,-3.10327 1.7964,-4.87348 0.7717,-1.04385 2.8772,-3.18316 4.2369,-4.30496 2.8588,-2.35861 5.2873,-3.92311 11.2116,-7.22259 6.9344,-3.86204 9.5171,-5.99058 11.6723,-9.61961 1.1288,-1.90064 2.3456,-5.43941 2.6832,-7.80378 0.057,-0.40042 0.059,-0.72556 0.01,-0.72255 -0.054,0.003 -0.3237,0.50174 -0.5983,1.10826 -2.279,5.03332 -5.5282,8.00667 -11.2835,10.32518 -0.7488,0.30157 -2.8125,1.05405 -4.586,1.67204 -5.445,1.89721 -8.0257,3.00933 -11.0056,4.74298 -2.8412,1.65295 -4.9038,3.20605 -7.0966,5.3436 -2.896,2.82291 -4.2448,4.76187 -8.28652,11.9118 -2.80412,4.96064 -4.12308,6.83565 -6.65456,9.46001 -1.67624,1.73803 -2.57765,2.52416 -4.43,3.86464 -1.3142,0.95103 -3.46201,2.29108 -3.71053,2.31501 -0.10603,0.0102 -0.74751,-0.32762 -1.42555,-0.75078 -0.67814,-0.42297 -1.33825,-0.75222 -1.46715,-0.73124 -0.29863,0.0485 -21.222,21.68139 -23.36952,24.16208 -2.81565,3.25228 -4.69809,6.06554 -5.73524,8.57109 -0.25431,0.61445 -0.48644,1.14205 -0.51579,1.17246 -0.0678,0.07 -0.33268,1.01442 -0.49937,1.78 -0.0705,0.32362 -0.21213,0.96567 -0.31486,1.42687 -0.27562,1.23759 -0.24317,2.83177 0.0883,4.33747 0.80494,3.65671 3.14194,6.45541 7.80607,9.3481 3.81417,2.36562 6.8123,3.83569 8.84923,4.33922 1.49251,0.36894 3.78494,0.54869 5.32598,0.41756 4.46091,-0.37958 8.59515,-2.53426 14.25647,-7.4302 0.42208,-0.36504 0.65698,-0.50279 0.72463,-0.425 1.20768,8.4296 12.17291,13.08711 23.03761,1.82965 6.8769,-7.12775 7.6602,-8.01737 9.7747,-11.1012 1.8361,-2.67779 2.8029,-4.53331 4.7245,-9.06746 1.332,-3.14301 1.9688,-4.36162 2.9867,-5.71585 1.566,-2.08332 4.1952,-4.05872 7.7349,-5.8114 0.572,-0.28324 1.0593,-0.57754 1.0829,-0.65403 0.1209,-0.39225 -3.0817,0.37647 -5.33,1.27936 -2.9268,1.17535 -5.0778,2.60523 -7.5183,4.99798 -2.473,2.42456 -3.7527,4.23044 -5.0988,7.19526 -1.206,2.65631 -1.8978,3.82073 -3.2686,5.50202 -1.9922,2.44334 -4.1567,3.78082 -5.4669,3.37819 -1.3773,-0.42321 -2.0291,-2.44332 -1.7451,-5.40822 0.261,-2.72513 1.4652,-4.65952 4.4164,-7.09436 3.8753,-3.19731 10.7233,-6.82798 22.1853,-11.76221 5.8352,-2.51198 8.3578,-3.76079 11.4779,-5.68203 2.7791,-1.71131 5.978,-4.13388 8.8367,-6.69219 1.7159,-1.53564 4.7707,-4.60841 5.8417,-5.87612 z"
                     style="fill:#ffffff"
                     sodipodi:nodetypes="csssscssssscsssssscssssssssscssscccsssssssscscssssscssccssscsssssssscssssssssscccssssscssscsssccsscssccsssccsssscssssscc" />
                  <path
                     sodipodi:nodetypes="csssscssssscsssssscssssssssscssscccsssssssscscssssscssccssscsssssssscssssssssscccssssscssscsssccsscssccsssccsssscssssscc"
                     style="fill:#ffffff"
                     d="m 888.33586,264.1403 c 0.33264,-5.50382 1.72531,-10.45123 4.31308,-15.32235 1.21047,-2.27841 2.05514,-3.64809 4.64512,-7.53245 3.08324,-4.62391 4.10506,-6.39818 5.00696,-8.69402 1.18826,-3.02468 1.58297,-5.87947 1.21733,-8.80445 -0.0947,-0.75807 -0.12916,-1.4366 -0.0765,-1.50945 0.21885,-0.30327 1.4572,3.38235 1.84923,5.50375 0.68777,3.72151 0.30055,7.3083 -1.25498,11.62431 -0.61456,1.7052 -1.0469,2.7029 -3.1114,7.17971 -2.71176,5.88046 -3.52899,8.08145 -4.22086,11.36779 -1.04555,4.96601 -1.13591,10.65066 -0.232,14.58959 1.11861,4.87451 3.49744,7.19359 6.52541,6.36162 2.20378,-0.60557 3.5131,-2.12462 4.11693,-4.77643 0.29775,-1.30762 0.24702,-4.27025 -0.10425,-6.08571 -0.36648,-1.89443 -1.00209,-3.99043 -1.96002,-6.4634 -1.36446,-3.52256 -1.70895,-5.23457 -1.628,-8.09043 0.0719,-2.53519 0.5173,-4.22345 1.69703,-6.43211 0.53182,-0.99566 2.01022,-2.90806 2.26666,-2.93202 0.2027,-0.019 0.20364,-0.0252 -0.21886,1.41362 -1.20991,4.12013 -0.27734,9.43054 2.579,14.68584 3.29247,6.05771 4.38213,12.11404 3.34038,18.56579 -0.36865,2.28282 -1.45935,5.92358 -2.31968,7.74272 -0.23471,0.49625 -0.6346,1.34664 -0.8887,1.88979 -0.5667,1.21143 -1.52189,2.83346 -2.91134,4.94387 -1.34165,2.03782 -2.06323,3.36973 -2.68687,4.9596 -0.67474,1.72001 -0.94226,2.91596 -1.00594,4.49691 -0.093,2.30939 0.47317,4.08912 1.78378,5.60699 0.86913,1.00655 1.72874,1.6111 2.87585,2.0226 1.07541,0.38578 2.11961,0.28102 2.71526,-0.27223 0.80047,-0.74372 1.23104,-2.59927 1.08858,-4.69162 -0.0876,-1.28554 -0.19923,-1.90515 -0.77723,-4.31243 -0.49118,-2.04564 -0.60952,-4.33936 -0.33109,-6.41703 0.18952,-1.41397 0.97821,-4.64947 1.172,-4.80809 0.0578,-0.0476 0.16025,-0.33603 0.22738,-0.64142 0.0672,-0.30537 0.23339,-0.78114 0.36944,-1.05718 0.1361,-0.27609 0.35373,-0.81044 0.48383,-1.18748 0.13011,-0.37703 0.61644,-1.73601 1.08078,-3.01997 0.96296,-2.66271 1.19912,-3.37645 1.65353,-4.99738 1.06967,-3.81577 1.4093,-7.41845 1.12313,-11.91367 -0.1288,-2.02306 -0.004,-2.00019 0.49082,0.0902 0.91445,3.86032 1.35815,7.53767 1.28188,10.62399 -0.058,2.34332 -0.19826,3.45293 -0.88312,6.98199 -0.61948,3.19247 -0.59818,3.05183 -0.75826,4.99823 -0.0785,0.95478 -0.0949,1.77902 -0.0388,1.95119 0.0535,0.16395 0.0993,0.64038 0.10176,1.05867 0.004,0.68815 0.32813,2.63936 0.52733,3.17647 0.0439,0.11831 0.14877,0.55633 0.23308,0.97335 0.1965,0.97202 1.06888,3.50981 2.20278,6.40814 1.42079,3.63161 2.19201,6.51572 2.68175,10.02905 0.16911,1.21315 0.198,3.04798 0.2452,15.5673 0.0294,7.80561 0.0475,14.72996 0.0401,15.38743 -0.007,0.65749 -0.014,1.28501 -0.0146,1.39454 -2.5e-4,0.1095 0.0454,1.56805 0.10225,3.24117 0.11402,3.35798 0.18465,3.73675 0.89315,4.78942 0.44722,0.66444 0.94162,0.95734 1.98231,1.17441 0.5638,0.11724 0.79485,0.11047 1.09587,-0.0339 0.49883,-0.23924 1.02766,-1.01041 1.18569,-1.72885 0.15696,-0.71392 -0.0347,-31.17894 -0.21385,-33.98565 -0.25564,-4.00485 -0.75495,-6.58327 -1.88013,-9.70921 -0.52244,-1.45139 -2.84659,-6.72618 -3.00818,-6.8272 -0.18581,-0.11604 -2.05374,-4.38386 -2.25552,-5.15323 -0.10275,-0.39176 -0.24946,-0.82587 -0.326,-0.96468 -0.0762,-0.13902 -0.20618,-0.60432 -0.28803,-1.03454 -0.0819,-0.4302 -0.21872,-1.01449 -0.30408,-1.29841 -0.43686,-1.45294 -0.56756,-5.3208 -0.2689,-7.95716 0.34933,-3.08362 0.97806,-5.68302 3.04291,-12.58106 1.60679,-5.36771 2.08288,-7.61298 2.18597,-10.30943 0.11582,-3.03024 -0.49521,-5.64867 -2.00988,-8.61286 -0.29247,-0.57308 -0.51249,-1.11396 -0.48844,-1.20239 0.0657,-0.24115 2.06582,1.86219 2.95914,3.11179 3.07221,4.29762 4.4865,9.85223 3.90393,15.33267 -0.17088,1.60735 -0.26025,2.03913 -1.15903,5.60007 -1.53323,6.07426 -1.45476,10.42226 0.22633,12.53951 1.29606,1.63233 3.94507,2.09281 5.3627,0.93218 1.03966,-0.85115 1.78927,-2.58197 2.06427,-4.76619 0.16216,-1.28798 0.11547,-4.28922 -0.094,-6.0395 -0.44036,-3.6799 -1.11757,-6.48824 -3.12653,-12.96496 -2.35147,-7.58099 -2.7509,-10.90387 -1.8053,-15.01736 0.49523,-2.15439 2.0576,-5.55472 3.44536,-7.49853 0.23501,-0.32921 0.45785,-0.56598 0.49514,-0.52625 0.0374,0.0398 -0.11212,0.58648 -0.3321,1.21488 -1.82538,5.21501 -1.52686,9.60921 1.03694,15.25948 0.33359,0.73505 1.30735,2.70402 2.16403,4.37541 2.63012,5.13128 3.72967,7.71731 4.68908,11.02864 0.91473,3.15718 1.33509,5.70472 1.44618,8.76497 0.14678,4.04152 -0.21567,6.37553 -2.22674,14.33872 -1.39529,5.52487 -1.73523,7.79197 -1.71512,11.43824 0.0131,2.41461 0.12269,3.60563 0.53765,5.85416 0.29441,1.59528 0.92345,4.04745 1.08675,4.23631 0.0697,0.0806 0.767,0.27894 1.5497,0.4408 0.78263,0.16206 1.48752,0.37949 1.5663,0.48365 0.1826,0.24123 0.38898,30.33651 0.23044,33.61377 -0.20768,4.29678 -0.7876,7.63168 -1.76665,10.16052 -0.24015,0.62012 -0.4364,1.16208 -0.43612,1.20437 8.8e-4,0.0976 -0.4595,0.96364 -0.86742,1.63257 -0.17202,0.28316 -0.51304,0.84518 -0.75709,1.24978 -0.65487,1.08569 -1.77873,2.21679 -3.05772,3.07761 -3.10652,2.0902 -6.72932,2.50202 -12.10084,1.37544 -4.39264,-0.92117 -7.57668,-1.92704 -9.39807,-2.96876 -1.33457,-0.76329 -3.11733,-2.21564 -4.14183,-3.37426 -2.96566,-3.3539 -4.46965,-7.76668 -5.18634,-15.21699 -0.0534,-0.55547 -0.12829,-0.81729 -0.23094,-0.8077 -6.69255,5.26558 -17.84138,1.06647 -17.93174,-14.57845 -0.0557,-9.9042 -0.008,-11.08861 0.59042,-14.77947 0.51988,-3.20495 1.10121,-5.21483 2.84063,-9.82195 1.20575,-3.19359 1.58619,-4.51486 1.78447,-6.19735 0.30503,-2.58832 -0.23376,-5.83249 -1.58506,-9.544 -0.21835,-0.59976 -0.36779,-1.14908 -0.33207,-1.22072 0.18324,-0.3673 1.96986,2.39959 2.97339,4.60484 1.30639,2.87075 1.87567,5.39006 1.98985,8.80595 0.11571,3.46133 -0.20494,5.6513 -1.27749,8.72569 -0.96096,2.75446 -1.26423,4.07446 -1.43288,6.23724 -0.24515,3.14302 0.39771,5.60482 1.62366,6.21793 1.28866,0.64449 3.1547,-0.36724 4.99583,-2.7085 1.6922,-2.15196 2.15618,-4.3828 1.70156,-8.18166 -0.59695,-4.98843 -3.0456,-12.34236 -7.93291,-23.82444 -2.4881,-5.84544 -3.45131,-8.49032 -4.38268,-12.03416 -0.82953,-3.15655 -1.47183,-7.1175 -1.77427,-10.94182 -0.18152,-2.29556 -0.27079,-6.62754 -0.17067,-8.2841 z"
                     id="path4321"
                     inkscape:connector-curvature="0" />
                  <path
                     inkscape:connector-curvature="0"
                     id="path4323"
                     d="m 1094.2133,243.51231 c 1.372,-3.14256 2.0033,-6.27453 1.9549,-9.69982 -0.023,-1.60219 -0.1007,-2.59818 -0.4292,-5.47747 -0.391,-3.42746 -0.4523,-4.69737 -0.3,-6.22252 0.2004,-2.00941 0.7897,-3.70181 1.8175,-5.21955 0.2664,-0.39335 0.477,-0.75968 0.4686,-0.81481 -0.035,-0.22947 -1.758,1.46464 -2.5733,2.52983 -1.4302,1.86863 -2.2304,3.96449 -2.5936,6.79235 -0.1434,1.11733 -0.1873,1.79147 -0.3156,4.85137 -0.1691,4.01925 -0.3406,5.46814 -0.8883,7.48308 -0.8275,3.04479 -2.3839,6.21956 -3.9947,8.14787 -1.9932,2.38644 -3.9582,3.0032 -5.3903,1.69198 -1.0422,-0.9543 -1.3338,-2.16356 -0.917,-3.80227 0.2056,-0.808 1.0706,-2.43513 1.777,-3.34222 0.7371,-0.94659 1.6791,-1.92952 2.9054,-3.03039 1.7466,-1.56839 2.4201,-2.4201 3.1824,-4.02497 0.6768,-1.42471 0.9086,-2.48511 0.8831,-4.04003 -0.011,-0.70089 -0.285,-2.17554 -0.4194,-2.26085 -0.1063,-0.0674 -0.1051,-0.0712 -0.279,0.84458 -0.4981,2.62235 -2.512,5.30251 -5.5695,7.41192 -3.5245,2.43141 -5.8357,5.48068 -7.0852,9.34753 -0.4421,1.36821 -0.8703,3.6915 -0.9106,4.94087 -0.011,0.34087 -0.031,0.92429 -0.044,1.29661 -0.028,0.83034 0.037,1.99712 0.2059,3.55647 0.1629,1.50569 0.1838,2.44619 0.078,3.50216 -0.1145,1.14237 -0.3052,1.88006 -0.7168,2.77378 -0.6014,1.30554 -1.4159,2.13254 -2.5665,2.60538 -0.7629,0.3136 -1.4069,0.40715 -2.1548,0.313 -0.7011,-0.0883 -1.2464,-0.43953 -1.4181,-0.91334 -0.2306,-0.6368 0.06,-1.78556 0.7264,-2.90486 0.4114,-0.6876 0.648,-0.9995 1.6464,-2.17084 0.8483,-0.99548 1.5618,-2.23288 1.9955,-3.46207 0.2952,-0.83659 0.7752,-2.85059 0.7133,-2.99283 -0.018,-0.0426 0.01,-0.23119 0.056,-0.41923 0.049,-0.18796 0.092,-0.49832 0.095,-0.68944 0.01,-0.19103 0.034,-0.54829 0.07,-0.79371 0.035,-0.24543 0.1511,-1.13489 0.2582,-1.97659 0.2222,-1.74554 0.2938,-2.20732 0.5017,-3.2329 0.4892,-2.41433 1.3202,-4.50561 2.748,-6.91564 0.6425,-1.08469 0.5669,-1.10728 -0.2958,-0.0879 -1.5944,1.88174 -2.8776,3.79454 -3.7076,5.52585 -0.6303,1.31444 -0.8666,1.96858 -1.4867,4.11606 -0.561,1.9426 -0.533,1.85868 -0.9948,2.98195 -0.2267,0.55098 -0.4504,1.01227 -0.53,1.09189 -0.079,0.0729 -0.2359,0.32661 -0.3551,0.55791 -0.1962,0.38035 -0.9265,1.37012 -1.1879,1.61174 -0.06,0.0514 -0.2391,0.26642 -0.4034,0.47382 -0.3825,0.48361 -1.58,1.6445 -3.0234,2.93156 -1.8085,1.61294 -3.0479,2.99425 -4.3085,4.80486 -0.4356,0.62488 -0.9702,1.63301 -4.5337,8.55554 -2.2217,4.31614 -4.1883,8.14714 -4.37,8.51346 -0.1822,0.36606 -0.3551,0.71599 -0.386,0.77668 -0.031,0.061 -0.468,0.85602 -0.9721,1.76696 -1.0116,1.82828 -1.1575,2.01831 -1.845,2.40255 -0.434,0.2425 -0.789,0.26596 -1.4233,0.0939 -0.3435,-0.0933 -0.4689,-0.16199 -0.5938,-0.3265 -0.207,-0.27257 -0.2803,-0.84834 -0.1643,-1.29073 0.1153,-0.43963 8.8291,-17.26359 9.7208,-18.76826 1.2723,-2.14695 2.2758,-3.43518 3.7786,-4.85097 0.6976,-0.65748 3.4678,-2.92705 3.5853,-2.93763 0.1349,-0.0124 2.3695,-1.85195 2.698,-2.22152 0.1677,-0.18786 0.3703,-0.38781 0.4521,-0.44284 0.081,-0.0558 0.2842,-0.27703 0.4539,-0.48961 0.1667,-0.21527 0.4071,-0.50054 0.534,-0.63415 0.6513,-0.68213 1.816,-2.78839 2.3965,-4.3328 0.6789,-1.80648 1.0672,-3.42311 1.8795,-7.82451 0.632,-3.42496 1.0044,-4.80251 1.7096,-6.32531 0.7924,-1.71133 1.8687,-2.99036 3.5403,-4.20718 0.323,-0.23518 0.5968,-0.47326 0.6088,-0.52883 0.032,-0.15212 -1.6636,0.45152 -2.5085,0.89296 -2.9059,1.5182 -5.2541,4.19833 -6.4819,7.39813 -0.3601,0.93849 -0.4329,1.20278 -0.9443,3.42795 -0.8721,3.79573 -2.1439,6.18252 -3.6677,6.88343 -1.1748,0.54037 -2.7635,0.0516 -3.216,-0.9895 -0.3319,-0.76346 -0.2556,-1.93287 0.2102,-3.22017 0.2746,-0.75908 1.1483,-2.40869 1.7583,-3.31952 1.2822,-1.91503 2.4486,-3.2807 5.3847,-6.30471 3.4368,-3.53959 4.5957,-5.26833 5.2373,-7.81276 0.3362,-1.33263 0.4367,-3.65517 0.2222,-5.12174 -0.037,-0.24838 -0.092,-0.44213 -0.1239,-0.43059 -0.031,0.0115 -0.1041,0.3564 -0.1605,0.76633 -0.4685,3.40173 -1.8745,5.75231 -4.8826,8.16266 -0.3913,0.31354 -1.4838,1.13093 -2.4277,1.81632 -2.8981,2.10419 -4.2342,3.22811 -5.6981,4.79318 -1.3957,1.49222 -2.3469,2.78554 -3.2729,4.44976 -1.2227,2.19781 -1.6827,3.59264 -2.8255,8.56905 -0.7929,3.45262 -1.2463,4.80407 -2.2877,6.81849 -0.6894,1.33409 -1.0864,1.96308 -1.9502,3.09228 -0.6129,0.80105 -1.6519,1.98312 -1.795,2.04203 -0.061,0.0248 -0.5012,-0.0609 -0.9778,-0.19098 -0.4767,-0.12996 -0.9263,-0.20748 -0.9991,-0.17189 -0.1686,0.0824 -8.7861,16.69739 -9.6248,18.55756 -1.0998,2.43873 -1.7228,4.44917 -1.8983,6.12512 -0.043,0.41093 -0.088,0.76634 -0.1001,0.78968 -0.028,0.0538 -0.019,0.66287 0.016,1.148 0.015,0.20523 0.044,0.61236 0.064,0.90502 0.054,0.78537 0.3529,1.72757 0.8139,2.56369 1.1197,2.03031 2.998,3.27581 6.2737,4.16004 2.6788,0.72319 4.7161,1.06001 6.0133,0.99441 0.9504,-0.0482 2.3423,-0.35215 3.2338,-0.70628 2.5805,-1.02532 4.6555,-3.04772 7.1553,-6.97397 0.1864,-0.2926 0.3018,-0.41644 0.3565,-0.38151 2.1969,4.79648 9.5217,5.60091 13.992,-3.0411 2.8292,-5.47138 3.1378,-6.1409 3.8511,-8.35371 0.6194,-1.9216 0.8672,-3.1983 1.2113,-6.23913 0.2386,-2.10788 0.4024,-2.9467 0.7687,-3.9345 0.5634,-1.51958 1.7767,-3.1656 3.5695,-4.84231 0.2895,-0.27107 0.5269,-0.53353 0.5259,-0.5847 0,-0.25513 -1.7627,0.77621 -2.9383,1.71614 -1.5303,1.22356 -2.5556,2.45944 -3.5838,4.31977 -1.0417,1.88515 -1.4839,3.1884 -1.7622,5.19282 -0.2492,1.79585 -0.4552,2.61228 -0.9734,3.85788 -0.7532,1.81007 -1.8028,2.99338 -2.6508,2.98892 -0.8917,-0.005 -1.6332,-1.08932 -1.9853,-2.90343 -0.3236,-1.6674 0.051,-3.0336 1.3749,-5.01052 1.7383,-2.59598 5.1644,-5.98247 11.0997,-10.9712 3.0215,-2.53979 4.2993,-3.73453 5.8134,-5.4363 1.3485,-1.51581 2.8214,-3.5299 4.0685,-5.56364 0.7487,-1.22075 2.0219,-3.59564 2.4348,-4.54149 z"
                     style="fill:#ffffff"
                     sodipodi:nodetypes="csssscssssscsssssscssssssssscssscccsssssssscscssssscssccssscsssssssscssssssssscccssssscssscsssccsscssccsssccsssscssssscc" />
                </g>
              </g>
            </g>
          </g>
        </g>
      </g>
      <g
         transform="matrix(0.97230092,-0.2337326,0.2337326,0.97230092,-72.78991,234.81452)"
         id="g4220">
        <path
           style="fill:#ffffff;fill-opacity:1;fill-rule:evenodd;stroke:#ffffff;stroke-width:6;stroke-linecap:round;stroke-linejoin:round;stroke-miterlimit:4;stroke-dasharray:none;stroke-opacity:1"
           d="m 894.29223,260.72501 a 6.2333004,4.5435192 3.565437 0 0 -5.7226,3.94141 6.2333004,4.5435192 3.565437 0 0 3.5996,4.6582 c -0.1278,0.41678 -0.1139,0.9812 0.0976,1.75195 l 0.8672,0.45703 0,0.26953 a 5.1994422,3.7899289 3.5654369 0 0 -4.1992,3.2461 5.1994422,3.7899289 3.5654369 0 0 4.6836,4.26953 5.1994422,3.7899289 3.5654369 0 0 0.6328,0.0293 c -5.2002,6.49558 -7.2482,17.91217 -4.5703,21.12695 0,0 3.1266,1.44765 4.2422,1.7793 l -2.7442,2.57226 0.0332,0.0195 -2.0625,1.83399 -1.1953,7.9707 c -0.6849,0.70988 -1.3284,1.34326 -1.998,2.02539 l -3.0801,-0.0723 -7.3262,7.70117 c 0,0 -1.1269,1.40999 -0.1875,1.5039 0.2022,0.0202 0.7243,0.05 1.1016,0.0762 -8.5655,7.84523 -16.0282,13.31014 -23.3965,17.20507 l -27.0898,-18.32421 a 6.6211752,8.4177896 68.100161 0 0 0.5839,-5.01758 6.6211752,8.4177896 68.100161 0 0 -10.123,-3.27149 6.6211752,8.4177896 68.100161 0 0 -5.6348,9.19336 6.6211752,8.4177896 68.100161 0 0 6.6368,3.92969 6.1863835,7.8650199 68.100161 0 0 -1.0372,5.45703 6.1863835,7.8650199 68.100161 0 0 9.4571,3.05469 6.1863835,7.8650199 68.100161 0 0 2.1914,-1.16406 c 4.6466,3.21665 11.1764,7.75762 18.0469,12.5332 l -11.8145,13.42969 0,1.99414 41.3145,30.68554 2.3925,0.39844 1.1289,-1.51172 c 0.0376,0.0297 0.0729,0.0571 0.1153,0.0899 l 0.084,1.28906 1.8593,0.92969 c 0.036,-0.0446 0.2653,-0.28549 0.4121,-0.44336 4.665,3.46179 11.1446,8.01562 11.1446,8.01562 l 3.7207,-4.64844 -3.3125,4.4668 c -0.2523,-0.88285 -1.8522,6.01999 -1.6035,7.55469 l 1.1289,0.46484 c 2.4375,-0.99229 3.0781,-1.62451 4.3847,-2.39062 0.029,-0.0741 0.0553,-0.1302 0.084,-0.20313 l 0.9785,0.80078 0.5313,-1.1289 1.8594,1.1289 3.8535,-5.11523 -1.6602,-1.26172 c 0,0 0.7969,-0.46481 0.5313,-0.73047 -0.2201,-0.22013 -0.727,-0.68787 -0.9356,-0.88086 0.0833,-0.055 0.1518,-0.11125 0.2383,-0.16601 0.4036,-1.69378 0.884,-3.30967 0.5625,-5.72852 l -0.9297,-0.39844 c -1.9896,0.82056 -3.8473,1.83905 -5.4082,3.30274 -0.5283,-0.41404 -6.0119,-4.7097 -10.3301,-8.12696 3.6156,-3.74412 7.0328,-7.26512 7.9493,-8.20898 9.246,6.44449 22.9911,16.02052 24.1015,16.79492 a 8.8355379,8.8355379 0 0 0 -1.0371,4.14258 8.8355379,8.8355379 0 0 0 8.8359,8.83594 8.8355379,8.8355379 0 0 0 8.752,-7.69141 9.4844522,9.4844522 0 0 0 3.3887,-7.25586 9.4844522,9.4844522 0 0 0 -9.4844,-9.48437 9.4844522,9.4844522 0 0 0 -6.8809,2.97461 l 0.1739,-1.52735 -26.4121,-17.86718 c 0.121,-0.32004 0.2699,-0.64864 0.4042,-0.97266 2.031,-2.65981 9.724,-12.47289 17.0547,-21.80664 l 0.1172,0.13086 c 0.4649,-0.79704 7.5059,-9.76367 7.5059,-9.76367 l -0.0235,-0.0352 c 1.2591,-1.60112 4.2052,-5.35106 4.4883,-5.71094 l 1.2383,-0.4082 c 1.5068,0.0747 3.4755,0.91627 3.5332,0.87305 0.2027,0.31617 0.5968,-0.27406 1.0352,-1.17969 l 0.623,0.41601 1.461,0.53125 c 4.7212,-5.82968 9.0421,-12.00843 13.4589,-18.09765 l 0.9219,0.5625 c -2.0915,3.8043 -4.0354,7.83552 -4.6836,12.62109 -0.152,3.1367 4.7097,5.28592 7.4395,2.52344 0,0 -0.1305,-0.0562 -0.168,-0.0742 1.5872,-0.63322 5.3877,-8.33662 6.1113,-8.34766 l 1.7364,-1.2207 0.2129,-0.33594 0.7089,0.44727 0.8301,-1.36328 c 0,0 -0.3278,-0.29319 -0.6465,-0.49805 l 0.0235,-0.0351 0.2793,-2.01954 -0.2774,-0.30859 c 2.2096,-3.99059 4.0878,-7.66457 4.6621,-9.16406 l 14.5332,7.65039 a 6.8606871,5.0737761 24.268349 0 0 -3.7207,5.30664 6.8606871,5.0737761 24.268349 0 0 7.9004,5.41797 6.8606871,5.0737761 24.268349 0 0 4.9512,-5.41797 6.8606871,5.0737761 24.268349 0 0 -0.9785,-1.97266 c 0.7668,-0.43247 1.0287,-1.03052 1.0547,-1.69726 a 8.1324788,6.0143213 24.268348 0 0 0.705,0.0293 8.1324788,6.0143213 24.268348 0 0 5.8692,-6.42187 8.1324788,6.0143213 24.268348 0 0 -9.3653,-6.42188 8.1324788,6.0143213 24.268348 0 0 -6.0312,4.4375 l -19.3047,-9.8164 c 2.793,-3.07692 5.7514,-6.00548 8.9805,-8.69141 1.1956,-1.0627 2.3906,-0.26562 2.3906,-0.26562 l 0.0938,-0.61133 c 0.4019,0.21334 0.7154,0.38435 0.8378,0.46484 a 2.3383788,6.7326217 29.331881 0 0 -0.0527,0.10547 2.3383788,6.7326217 29.331881 0 0 -0.2129,5.98047 2.3383788,6.7326217 29.331881 0 0 5.4785,-5.98047 2.3383788,6.7326217 29.331881 0 0 0.2149,-5.98047 2.3383788,6.7326217 29.331881 0 0 -4.4805,4.14844 c -0.0535,-0.0262 -1.3482,-0.66084 -1.4785,-0.72461 l 0.3965,-2.58203 -0.7969,-0.5332 -1.5625,1.65039 -2.1426,-0.54493 c -6.5412,-3.20047 -20.3041,-9.93756 -30.4941,-14.93554 l 0.1914,-0.38282 -1.4609,-0.79687 -0.1114,-0.16016 c 0.0176,-0.65675 0.0254,-1.21196 0.0254,-1.33007 0,-0.0939 -0.1052,-0.13573 -0.2637,-0.14454 l -0.002,0 c -0.4756,-0.0264 -1.4258,0.23829 -1.4258,0.23829 -0.376,0.0813 -0.7514,0.19001 -1.1269,0.29296 a 2.4398661,4.7577621 28.725453 0 0 0.2597,-0.61523 2.4398661,4.7577621 28.725453 0 0 -1.0547,-4.33398 2.4398661,4.7577621 28.725453 0 0 -4.3007,4.33398 2.4398661,4.7577621 28.725453 0 0 -0.4083,2.81836 c -3.4309,1.7898 -6.799,4.25053 -10.0292,6.95117 l -18.2872,-9.29883 a 6.2333004,4.5435192 3.565437 0 0 2.3164,-3.05859 6.2333004,4.5435192 3.565437 0 0 -5.6152,-5.11914 6.2333004,4.5435192 3.565437 0 0 -1.0625,-0.0371 z m 41.5254,12.30469 c 3.431,1.64581 20.8488,10.10633 30.2012,14.76953 l -0.086,0.32226 c 0,0 0.5912,0.51728 1.002,0.72461 -3.4417,2.60299 -7.1089,5.88118 -10.5645,9.44336 l -35.2617,-17.93164 c 3.7925,-3.38679 8.2251,-6.53106 12.3438,-6.78906 l 0.0664,0.0723 0.1504,-0.0762 c 0.2996,-0.0113 0.597,-0.005 0.8925,0.0156 l 0.8165,0.32617 0.4394,-0.87695 z m -36.7109,1.64648 0.8476,0.44727 c -0.2283,0.0708 -0.4551,0.14684 -0.6777,0.23632 a 5.1994422,3.7899289 3.5654369 0 0 -0.1699,-0.68359 z m 6.8203,4.80859 c 0.0514,0.006 0.1027,0.0115 0.1543,0.0195 -0.0516,-0.008 -0.1029,-0.0134 -0.1543,-0.0195 z m -1.3692,0.0527 c -0.0707,0.0142 -0.1406,0.0372 -0.2109,0.0547 0.0704,-0.0175 0.1401,-0.0405 0.2109,-0.0547 z m 2.1875,0.11914 c 0.041,0.0128 0.082,0.0308 0.1231,0.0449 -0.0411,-0.0141 -0.0821,-0.0321 -0.1231,-0.0449 z m -2.8691,0.0742 c -0.0858,0.0306 -0.1707,0.0662 -0.2559,0.10156 0.0851,-0.0353 0.1702,-0.071 0.2559,-0.10156 z m 3.6152,0.23242 c 0.034,0.0169 0.0676,0.0311 0.1016,0.0488 -0.0341,-0.0178 -0.0675,-0.0319 -0.1016,-0.0488 z m -4.2832,0.0606 c -0.0912,0.0466 -0.183,0.0927 -0.2734,0.14453 0.0904,-0.0518 0.1822,-0.098 0.2734,-0.14453 z m 6.1016,0.0273 3.4863,1.83594 c -1.2535,1.14444 -2.4776,2.28501 -3.6699,3.41601 0.2061,-1.72283 0.4202,-3.73922 0.0117,-4.18359 0.0735,-0.4071 0.1242,-0.73753 0.1719,-1.06836 z m -6.7637,0.36133 c -0.0858,0.057 -0.1728,0.1104 -0.2578,0.17187 0.0851,-0.0616 0.1719,-0.11483 0.2578,-0.17187 z m 5.7305,0.0176 c 0.0513,0.0357 0.1029,0.0735 0.1543,0.11133 -0.0513,-0.0377 -0.1031,-0.0757 -0.1543,-0.11133 z m -6.4356,0.50781 c -0.0613,0.0509 -0.1247,0.0953 -0.1855,0.14844 0.0608,-0.0531 0.1242,-0.0976 0.1855,-0.14844 z m -0.7929,0.72656 c -0.0514,0.0525 -0.1014,0.11001 -0.1524,0.16407 0.0509,-0.054 0.1011,-0.1116 0.1524,-0.16407 z m -0.5489,0.60352 c -0.3107,0.36098 -0.6121,0.75117 -0.9043,1.16211 0.2927,-0.41161 0.5931,-0.80062 0.9043,-1.16211 z m -1.0722,1.40234 c -0.2866,0.41691 -0.5659,0.85104 -0.8321,1.30664 0.2662,-0.45567 0.5455,-0.88967 0.8321,-1.30664 z m -0.9375,1.49414 c -0.1958,0.34231 -0.3791,0.69982 -0.5625,1.0586 0.1836,-0.35919 0.3665,-0.71591 0.5625,-1.0586 z m 20.6211,0.0469 11.7148,6.16797 c -0.6473,0.72937 -1.6519,1.85397 -2.334,2.54296 -5.4718,-2.71737 -10.8344,-5.36472 -11.2343,-5.49804 -0.8454,-0.28177 1.0312,-2.34961 1.0312,-2.34961 l 0.9395,-0.1875 -0.1172,-0.67578 z m -21.7403,2.16797 c -0.112,0.24581 -0.226,0.49024 -0.332,0.74023 0.1065,-0.25109 0.2195,-0.49336 0.332,-0.74023 z m -0.8906,2.16211 c -0.0618,0.16734 -0.1305,0.33208 -0.1894,0.5 0.059,-0.16825 0.1275,-0.33233 0.1894,-0.5 z m -0.8066,2.44335 c -0.0564,0.19877 -0.0985,0.39236 -0.1504,0.58985 0.052,-0.19786 0.0939,-0.39071 0.1504,-0.58985 z m 39.4297,1.64649 17.2285,9.07031 c -1.5228,1.77103 -2.9465,3.5681 -4.2383,5.35352 0.0936,-0.12938 0.1764,-0.25721 0.2715,-0.38672 l -7.8125,-4.12305 0.8457,-1.03125 -1.0332,-0.6582 0.4687,-1.78516 c 0,0 -4.5702,-2.27891 -8.625,-4.29883 l 1.0176,-1.52539 1.6895,0.0937 0.1875,-0.70898 z m -39.9161,0.32422 c -0.0459,0.21555 -0.0811,0.42295 -0.121,0.63476 0.04,-0.21234 0.075,-0.41866 0.121,-0.63476 z m -0.3242,1.86914 c -0.0296,0.21747 -0.0539,0.42991 -0.0761,0.64062 0.0223,-0.21199 0.0462,-0.42178 0.0761,-0.64062 z m -0.1562,1.70508 c -0.0117,0.26136 -0.0277,0.5265 -0.0254,0.77148 -0.002,-0.24524 0.0136,-0.50982 0.0254,-0.77148 z m -0.0215,0.99804 c 0.0109,0.3889 0.0401,0.75482 0.0898,1.0918 -0.0497,-0.33714 -0.0788,-0.70268 -0.0898,-1.0918 z m 0.1562,1.4668 c 0.0134,0.0643 0.0241,0.1316 0.0391,0.19336 -0.015,-0.0617 -0.0258,-0.12908 -0.0391,-0.19336 z m 0.2012,0.73242 c 0.0532,0.12958 0.0946,0.24539 0.1289,0.35547 l -0.002,0.002 c -0.0348,-0.11076 -0.0734,-0.22727 -0.127,-0.35742 z m 60.5156,3.67383 0.2305,0.12109 c -1.6283,1.67472 -3.0557,4.16559 -5.1328,6.58008 -0.7161,1.34755 -1.4875,2.6937 -2.2559,4.06055 l -0.7675,-0.42969 c 2.5648,-3.51405 5.1714,-6.9901 7.9257,-10.33203 z m -8.6093,5.2832 c -0.1674,0.24691 -0.329,0.49253 -0.4903,0.73828 0.1615,-0.24592 0.3227,-0.4912 0.4903,-0.73828 z m -1.4532,2.26368 c -0.1311,0.21548 -0.265,0.43049 -0.3906,0.64453 0.1258,-0.21415 0.2594,-0.42893 0.3906,-0.64453 z m -1.2578,2.20312 c -0.1104,0.20785 -0.2296,0.41912 -0.334,0.625 0.1047,-0.20634 0.2233,-0.41669 0.334,-0.625 z m -62.7695,4.89453 2.0566,0.0977 c -1.1981,1.19302 -2.3587,2.30903 -3.5117,3.41406 l -1.6465,-0.22266 3.1016,-3.28906 z m 16.1836,0.0273 3.1875,1.72656 -1.4609,1.5957 3.7207,1.99219 1.5937,-1.0625 1.5938,0.92969 -3.0215,3.26367 -7.375,-4.79883 c 0.1676,-1.30769 0.1679,-3.24805 0.1679,-3.24805 l 1.5938,-0.39843 z m 12.6191,8.23632 2.5254,0.92969 -0.9316,1.72852 c 0,0 3.0565,2.52352 3.5879,2.25781 0.5313,-0.26566 1.1953,-1.46094 1.1953,-1.46094 l 1.1953,1.0625 -2.8652,2.52735 -1.3184,-0.0703 -5.8965,-3.83789 2.5078,-3.13672 z m -21.2539,1.86133 c 0.5314,0.13281 3.8516,2.92188 3.8516,2.92188 l -3.0547,7.83789 -10.4941,0.79687 -0.3985,-1.19531 c 0.7971,-0.79704 9.5644,-10.49418 10.0957,-10.36133 z m 59.7793,1.99219 c 0.1362,0 0.2973,0.0339 0.4629,0.0801 -0.1704,-0.0481 -0.3328,-0.0801 -0.4629,-0.0801 z m 0.5156,0.0977 c 0.1453,0.043 0.2624,0.085 0.3965,0.13867 -0.1293,-0.05 -0.2635,-0.099 -0.3965,-0.13867 z m -42.4941,9.33398 1.2852,1.55859 -0.0528,1.22266 0.0977,0.10937 -8.2383,9.86133 -1.5937,-1.19531 c 0,0 -1.3281,-6.5096 -1.5938,-7.30664 l 10.0957,-4.25 z m -33.3867,4.35547 0,0.002 c 2.3393,-0.0126 10.2715,0.29102 10.2715,0.29102 l 0.7968,1.33008 c -0.6642,0.92989 -8.1015,8.36718 -8.1015,8.36718 l -8.1055,-5.44531 c 0,0 3.9862,-4.38473 4.5176,-4.51758 0.066,-0.0168 0.287,-0.0252 0.6211,-0.0273 z m -45.2188,0.12109 a 4.7927147,7.7547756 40.211656 0 0 -6.4609,3.58789 4.7927147,7.7547756 40.211656 0 0 -1.3477,9.01563 4.7927147,7.7547756 40.211656 0 0 6.92,-1.13672 l 7.3164,5.93359 7.7754,-8.83789 -0.5586,-2.08008 -1.461,-0.66406 -3.7031,5.21875 -5.9863,-3.77344 a 4.7927147,7.7547756 40.211656 0 0 -0.2891,-6.5039 4.7927147,7.7547756 40.211656 0 0 -2.2051,-0.75977 z m 62.4063,5.4375 c 0.9396,-0.029 1.9887,0.7085 3.0469,1.50977 l 1.4629,6.9082 -4.7833,5.84375 -9.0332,-5.97656 c 0,0 6.6423,-7.17371 8.1036,-7.70508 0.3724,-0.39601 0.776,-0.56699 1.2031,-0.58008 z m 11.3633,52.12696 c -0.222,0.15501 -0.4471,0.30895 -0.6465,0.46679 0.1989,-0.15744 0.4249,-0.31209 0.6465,-0.46679 z m -0.918,0.70117 c -0.2161,0.18226 -0.4318,0.36466 -0.623,0.55273 0.191,-0.18788 0.407,-0.37059 0.623,-0.55273 z m -0.6797,0.61133 c -0.2389,0.23881 -0.464,0.48123 -0.6699,0.73242 0.2055,-0.25087 0.4312,-0.49387 0.6699,-0.73242 z m -0.7031,0.77734 c -0.6491,0.80109 -1.1528,1.67349 -1.6172,2.66797 -0.2124,0.45473 -0.4175,0.9777 -0.625,1.48828 0.2064,-0.50817 0.4141,-1.03578 0.625,-1.48828 0.464,-0.99541 0.9685,-1.86691 1.6172,-2.66797 z"
           id="path5583"
           inkscape:connector-curvature="0" />
        <g
           id="g5536"
           transform="matrix(0.41962622,0,0,0.41962622,674.55147,-138.87433)">
          <path
             sodipodi:nodetypes="sccccscccs"
             inkscape:connector-curvature="0"
             id="path5424"
             d="m 550.2832,997.91211 c -16.14057,0.61908 -28.71613,39.21409 -24.33984,50.70509 0.1407,0.3426 0.24977,0.6533 0.33594,0.9394 l 20.92204,-18.308 c 2.71661,-3.4669 9.63897,-6.6536 11.75046,-9.3966 -0.72255,-0.3411 -6.13262,-1.7427 -5.89907,-2.3266 0.63315,-1.5829 6.01563,-7.2813 6.01563,-7.2813 l 0.42578,-0.289 c 0.49448,-4.1263 1.01912,-8.9992 0.0371,-10.0664 -3.1485,-2.90336 -6.25905,-4.09124 -9.24805,-3.97659 z"
             style="fill:#1a1a1a;fill-opacity:1;fill-rule:evenodd;stroke:none;stroke-width:1px;stroke-linecap:butt;stroke-linejoin:miter;stroke-opacity:1" />
          <ellipse
             transform="matrix(1,0,-0.35059749,0.93652624,0,0)"
             ry="11.027971"
             rx="6.3830452"
             cy="1037.6016"
             cx="973.16217"
             id="path5515"
             style="color:#000000;clip-rule:nonzero;display:inline;overflow:visible;visibility:visible;opacity:1;isolation:auto;mix-blend-mode:normal;color-interpolation:sRGB;color-interpolation-filters:linearRGB;solid-color:#000000;solid-opacity:1;fill:#1a1a1a;fill-opacity:1;fill-rule:nonzero;stroke:none;stroke-width:1.572456;stroke-linecap:round;stroke-linejoin:round;stroke-miterlimit:4;stroke-dasharray:none;stroke-dashoffset:0;stroke-opacity:1;color-rendering:auto;image-rendering:auto;shape-rendering:auto;text-rendering:auto;enable-background:accumulate" />
          <ellipse
             cy="1138.6718"
             cx="431.86752"
             id="ellipse5498"
             style="color:#000000;clip-rule:nonzero;display:inline;overflow:visible;visibility:visible;opacity:1;isolation:auto;mix-blend-mode:normal;color-interpolation:sRGB;color-interpolation-filters:linearRGB;solid-color:#000000;solid-opacity:1;fill:#b3b3b3;fill-opacity:1;fill-rule:nonzero;stroke:none;stroke-width:0.67484486;stroke-linecap:round;stroke-linejoin:round;stroke-miterlimit:4;stroke-dasharray:none;stroke-dashoffset:0;stroke-opacity:1;color-rendering:auto;image-rendering:auto;shape-rendering:auto;text-rendering:auto;enable-background:accumulate"
             rx="15.313114"
             ry="13.379536"
             transform="matrix(1,0,0.26272505,0.96487074,0,0)" />
          <ellipse
             transform="matrix(-0.12845771,0.99171499,-0.99523666,-0.09748843,0,0)"
             ry="12.383805"
             rx="9.0410624"
             cy="-646.68298"
             cx="933.32031"
             id="ellipse5492"
             style="color:#000000;clip-rule:nonzero;display:inline;overflow:visible;visibility:visible;opacity:1;isolation:auto;mix-blend-mode:normal;color-interpolation:sRGB;color-interpolation-filters:linearRGB;solid-color:#000000;solid-opacity:1;fill:#b3b3b3;fill-opacity:1;fill-rule:nonzero;stroke:none;stroke-width:0.71081513;stroke-linecap:round;stroke-linejoin:round;stroke-miterlimit:4;stroke-dasharray:none;stroke-dashoffset:0;stroke-opacity:1;color-rendering:auto;image-rendering:auto;shape-rendering:auto;text-rendering:auto;enable-background:accumulate" />
          <path
             sodipodi:nodetypes="cccccccscccccccccccccccccccccccccccccccccccccccccccccccccccccccc"
             inkscape:connector-curvature="0"
             id="path5463"
             d="m 572.60938,1006.7598 -28.20508,26.8613 -26.41407,25.9668 12.98438,19.6992 c 0,0 -92.67468,80.1387 -95.80859,84.168 l 79.91406,50.3652 47.9043,-58.873 c 0,0 23.03695,-20.877 35.3002,-27.8943 3.08514,-1.7654 11.10257,1.7454 11.28255,1.6104 1.55685,2.4282 7.69173,-16.5199 7.69173,-16.5199 l 9.29973,-10.0244 c 0,0 14.77289,-23.9516 16.33985,-26.414 1.56695,-2.4623 7.38867,-10.2969 7.38867,-10.2969 l -16.56641,-9.1777 -1.11914,-6.045 -27.30859,-14.3261 -26.86328,-14.7735 z m -40.45118,85.5761 7.59766,4.1153 -3.48242,3.7988 8.86523,4.75 3.79883,-2.5332 3.79883,2.2148 -7.91406,8.5489 c 0,0 -18.36183,-7.9151 -17.41211,-9.8145 0.94972,-1.8995 0.94922,-10.1308 0.94922,-10.1308 z m 30.07422,19.627 6.01563,2.2168 -2.2168,4.1152 c 0,0 7.28254,6.016 8.54883,5.3828 1.26629,-0.6331 2.84765,-3.4824 2.84765,-3.4824 l 2.84961,2.5313 -10.76367,9.498 -13.61133,-12.3457 z m -50.65039,4.4336 c 1.26629,0.3165 9.17969,6.9648 9.17969,6.9648 l -7.28125,18.6778 -25.00781,1.8984 -0.95118,-2.8496 c 1.89944,-1.8994 22.79426,-25.008 24.06055,-24.6914 z m 42.41992,27.2246 4.43164,5.3809 -20.89257,25.0097 -3.79883,-2.8496 c 0,0 -3.16569,-15.5127 -3.79883,-17.4121 z m -79.5625,10.3828 c 5.57465,-0.03 24.47852,0.6973 24.47852,0.6973 l 1.90039,3.166 c -1.58287,2.216 -19.31055,19.9433 -19.31055,19.9433 l -19.3125,-12.9785 c 0,0 9.49737,-10.447 10.76367,-10.7636 0.15829,-0.04 0.6841,-0.06 1.48047,-0.065 z m 40.96094,13.2422 c 2.23919,-0.069 4.73995,1.6901 7.26172,3.5996 l 3.48242,16.4629 -11.39648,13.9277 -21.52735,-14.2441 c 0,0 15.82825,-17.095 19.31055,-18.3613 0.88746,-0.9437 1.85133,-1.3536 2.86914,-1.3848 z"
             style="fill:#0b2157;fill-opacity:1;fill-rule:evenodd;stroke:none;stroke-width:1px;stroke-linecap:butt;stroke-linejoin:miter;stroke-opacity:1" />
          <ellipse
             style="color:#000000;clip-rule:nonzero;display:inline;overflow:visible;visibility:visible;opacity:1;isolation:auto;mix-blend-mode:normal;color-interpolation:sRGB;color-interpolation-filters:linearRGB;solid-color:#000000;solid-opacity:1;fill:#b3b3b3;fill-opacity:1;fill-rule:nonzero;stroke:none;stroke-width:1.11672628;stroke-linecap:round;stroke-linejoin:round;stroke-miterlimit:4;stroke-dasharray:none;stroke-dashoffset:0;stroke-opacity:1;color-rendering:auto;image-rendering:auto;shape-rendering:auto;text-rendering:auto;enable-background:accumulate"
             id="ellipse5454"
             cx="1177.3734"
             cy="45.638794"
             rx="14.746384"
             ry="18.739944"
             transform="matrix(0.33872058,0.94088701,-0.93606154,0.35183633,0,0)" />
          <circle
             style="color:#000000;clip-rule:nonzero;display:inline;overflow:visible;visibility:visible;opacity:1;isolation:auto;mix-blend-mode:normal;color-interpolation:sRGB;color-interpolation-filters:linearRGB;solid-color:#000000;solid-opacity:1;fill:#b3b3b3;fill-opacity:1;fill-rule:nonzero;stroke:none;stroke-width:0.99270916;stroke-linecap:round;stroke-linejoin:round;stroke-miterlimit:4;stroke-dasharray:none;stroke-dashoffset:0;stroke-opacity:1;color-rendering:auto;image-rendering:auto;shape-rendering:auto;text-rendering:auto;enable-background:accumulate"
             id="circle5440"
             cx="600.38025"
             cy="1294.7845"
             r="21.055735" />
          <path
             inkscape:connector-curvature="0"
             id="path5279"
             d="m 342.53172,1118.6118 c 1.26629,0.3165 245.02731,170.3161 245.02731,170.3161 l 3.16573,-27.8584 -235.8467,-159.5527 z"
             style="fill:#1a1a1a;fill-rule:evenodd;stroke:none;stroke-width:1px;stroke-linecap:butt;stroke-linejoin:miter;stroke-opacity:1" />
          <path
             inkscape:connector-curvature="0"
             id="path5281"
             d="m 409.89292,1164.1325 -28.74024,32.6719 0,4.75 98.45508,73.127 5.69922,0.9511 28.97851,-38.8379 c -37.53725,-26.1596 -64.745,-45.1036 -104.39257,-72.6621 z"
             style="fill:#1a1a1a;fill-rule:evenodd;stroke:none;stroke-width:1px;stroke-linecap:butt;stroke-linejoin:miter;stroke-opacity:1" />
          <path
             sodipodi:nodetypes="cccccccc"
             inkscape:connector-curvature="0"
             id="path5286"
             d="m 395.71551,1168.1547 -8.82489,12.4391 -19.98242,-12.5958 c -4.07535,2.8035 -5.16352,5.6773 -6.64843,10.129 L 382,1195.7539 l 18.52734,-21.0605 -1.33007,-4.9543 z"
             style="fill:#257fc1;fill-opacity:1;fill-rule:evenodd;stroke:none;stroke-width:1px;stroke-linecap:butt;stroke-linejoin:miter;stroke-opacity:1" />
          <path
             id="path5295"
             d="m 505.39648,1231.6719 0,0 c 2.49536,1.7388 4.73112,3.2934 7.22657,5.0312 -3.07445,-2.1425 -3.99911,-2.7862 -7.22657,-5.0351 z m 8.25586,5.7558 -25.75586,34.5196 c 0.13483,0.1046 0.23811,0.1896 0.37696,0.2968 l 0.19922,3.0704 4.43164,2.2167 c 0.0852,-0.1062 0.6288,-0.6823 0.97851,-1.0585 11.11712,8.2497 26.5625,19.1035 26.5625,19.1035 l 0,0 8.86524,-11.0781 0.8789,-0.5527 c -1.11146,-0.871 -14.42045,-11.3 -24.77734,-19.4961 8.61629,-8.9225 16.76313,-17.3093 18.94727,-19.5586 -4.10746,-2.8629 -6.18704,-4.311 -10.70704,-7.461 z"
             style="fill:#257fc1;fill-opacity:1;fill-rule:evenodd;stroke:none;stroke-width:1px;stroke-linecap:butt;stroke-linejoin:miter;stroke-opacity:1"
             inkscape:connector-curvature="0" />
          <path
             inkscape:connector-curvature="0"
             id="path5309"
             d="m 600.53906,1105.7413 -87.70703,102.7422 14.91406,10.0898 c 10.12578,-26.8767 40.42363,-59.8189 61.71289,-88.1406 l 26.90821,-8.8633 3.48242,-5.0644 -19.31055,-10.7637 z"
             style="fill:#1a1a1a;fill-opacity:1;fill-rule:evenodd;stroke:none;stroke-width:1px;stroke-linecap:butt;stroke-linejoin:miter;stroke-opacity:1" />
          <path
             inkscape:connector-curvature="0"
             id="path5314"
             d="m 517.5957,1057.7376 -5.69726,5.0644 -2.84961,18.9942 c -32.96315,34.1626 -58.29801,54.6835 -83.32031,67.875 l 12.90234,8.7304 95.74414,-90.8515 -16.7793,-9.8125 z"
             style="fill:#1a1a1a;fill-rule:evenodd;stroke:none;stroke-width:1px;stroke-linecap:butt;stroke-linejoin:miter;stroke-opacity:1" />
          <path
             sodipodi:nodetypes="ccccccccccccccc"
             inkscape:connector-curvature="0"
             id="path5319"
             d="m 706.58984,1011.6094 -5.69726,6.0156 c -22.69655,16.1569 -51.16387,46.3565 -60.7832,69.3301 l -16.77735,20.8926 -6.64844,-0.6329 -6.00413,6.8854 7.15549,2.744 -2.25124,3.8332 -6.52512,3.1917 4.45899,2.9727 3.48242,1.2676 c 27.79283,-34.3176 49.6844,-73.7997 83.89258,-102.2539 2.84915,-2.5325 5.69726,-0.6328 5.69726,-0.6328 l 1.90039,-12.3457 z"
             style="fill:#1a1a1a;fill-opacity:1;fill-rule:evenodd;stroke:none;stroke-width:1px;stroke-linecap:butt;stroke-linejoin:miter;stroke-opacity:1" />
          <path
             id="path5485"
             d="m 570.14844,1035.6699 3.79883,3.7989 63.36132,38.6367 2.47266,-3.0918 -69.63281,-39.3438 z"
             style="fill:#999999;fill-opacity:1;fill-rule:evenodd;stroke:none;stroke-width:1px;stroke-linecap:butt;stroke-linejoin:miter;stroke-opacity:1"
             inkscape:connector-curvature="0" />
          <path
             sodipodi:nodetypes="ccccc"
             inkscape:connector-curvature="0"
             id="path5324"
             d="m 552.08789,1025.2383 -35.35303,33.1448 4.38086,2.5606 29.49951,-30.0277 z"
             style="fill:#1a1a1a;fill-opacity:1;fill-rule:evenodd;stroke:none;stroke-width:1px;stroke-linecap:butt;stroke-linejoin:miter;stroke-opacity:1" />
          <path
             sodipodi:nodetypes="ccccccccscc"
             inkscape:connector-curvature="0"
             id="path5329"
             d="m 621.22852,971.94336 c -1.13325,-0.063 -3.4004,0.56641 -3.4004,0.56641 -21.61667,4.67386 -43.00139,24.74617 -60.96536,41.84773 l 7.91068,-5.9942 2.20898,-1.502 8.86328,3.4825 0.0801,1.4785 c 11.03032,-11.3686 29.14686,-29.31624 44.58789,-27.89652 1.3431,-0.22386 1.34375,-10.74522 1.34375,-11.64062 0,-0.22386 -0.25116,-0.32081 -0.6289,-0.3418 z"
             style="fill:#1a1a1a;fill-opacity:1;fill-rule:evenodd;stroke:none;stroke-width:1px;stroke-linecap:butt;stroke-linejoin:miter;stroke-opacity:1" />
          <rect
             y="972.98834"
             x="521.39532"
             height="15.512065"
             width="7.7560325"
             id="rect5494"
             style="color:#000000;clip-rule:nonzero;display:inline;overflow:visible;visibility:visible;opacity:1;isolation:auto;mix-blend-mode:normal;color-interpolation:sRGB;color-interpolation-filters:linearRGB;solid-color:#000000;solid-opacity:1;fill:#b3b3b3;fill-opacity:1;fill-rule:nonzero;stroke:none;stroke-width:1;stroke-linecap:round;stroke-linejoin:round;stroke-miterlimit:4;stroke-dasharray:none;stroke-dashoffset:0;stroke-opacity:1;color-rendering:auto;image-rendering:auto;shape-rendering:auto;text-rendering:auto;enable-background:accumulate" />
          <rect
             style="color:#000000;clip-rule:nonzero;display:inline;overflow:visible;visibility:visible;opacity:1;isolation:auto;mix-blend-mode:normal;color-interpolation:sRGB;color-interpolation-filters:linearRGB;solid-color:#000000;solid-opacity:1;fill:#b3b3b3;fill-opacity:1;fill-rule:nonzero;stroke:none;stroke-width:1;stroke-linecap:round;stroke-linejoin:round;stroke-miterlimit:4;stroke-dasharray:none;stroke-dashoffset:0;stroke-opacity:1;color-rendering:auto;image-rendering:auto;shape-rendering:auto;text-rendering:auto;enable-background:accumulate"
             id="rect5524"
             width="7.7560325"
             height="15.512065"
             x="732.54938"
             y="1083.1556" />
          <path
             sodipodi:nodetypes="ccccc"
             inkscape:connector-curvature="0"
             id="path5331"
             d="m 532.629,971.89154 213.21641,108.41486 c -2.27006,4.0379 5.28834,12.2297 -4.3393,14.6326 L 519.32636,977.95415 c -2.55609,-9.3151 6.71395,-6.28989 13.30264,-6.06261 z"
             style="fill:#1a1a1a;fill-opacity:1;fill-rule:evenodd;stroke:none;stroke-width:1px;stroke-linecap:butt;stroke-linejoin:miter;stroke-opacity:1" />
          <path
             sodipodi:nodetypes="ccccccccccccccc"
             inkscape:connector-curvature="0"
             id="path5335"
             d="m 689.68164,1064.8672 0.13086,1.5098 c -7.66668,-8.1493 -38.70598,51.788 -35.77344,54.7675 1.08901,0 2.85457,0.8257 3.40039,1.0879 3.78236,-1.509 12.83607,-19.8623 14.56055,-19.8886 l 4.14062,-2.9102 0.50586,-0.8008 1.68946,1.0645 1.97851,-3.2461 c 0,0 -0.77938,-0.7013 -1.53906,-1.1895 l 0.0527,-0.082 0.66993,-4.8125 -0.66407,-0.7383 c 6.86434,-12.3973 12.43882,-23.5937 11.45313,-23.5684 -0.10352,-0.138 -0.32111,-0.6076 -0.60547,-1.1933 z"
             style="fill:#1a1a1a;fill-opacity:1;fill-rule:evenodd;stroke:none;stroke-width:1px;stroke-linecap:butt;stroke-linejoin:miter;stroke-opacity:1" />
          <path
             id="path5346"
             d="m 566.98242,1006.8613 -7.91406,5.3828 c 0,0 -5.38248,5.6984 -6.01563,7.2813 -0.63314,1.5829 4.11524,2.2148 4.11524,2.2148 l -4.74805,2.2168 -2.2168,8.5469 -10.13085,17.4121 c 0,0 -2.21468,27.2244 -2.53125,31.3399 l 54.77539,34.0097 8.22265,-9.6328 8.6211,4.8067 12.90625,-6.0743 9.17968,-12.6621 1.90039,-20.2597 -52.23632,-28.8086 11.08007,-7.9141 -0.63281,-4.4336 -14.8789,-8.2305 -0.63282,-11.7128 -8.86328,-3.4825 z m -5.14062,30.4922 c 1.94243,0 3.85476,1.9116 1.8164,4.1719 -0.63315,0.6331 -9.49804,11.3984 -9.49804,11.3984 -3.95997,1.2283 -3.56752,-1.2396 -3.00782,-3.8008 l 8.39063,-10.4453 c 0.52776,-0.9327 1.4159,-1.3256 2.29883,-1.3242 z m 10.44726,5.0645 c 1.94244,0 3.85476,1.9135 1.81641,4.1738 -0.63315,0.6331 -9.49805,11.3965 -9.49805,11.3965 -3.95997,1.2283 -3.56751,-1.2376 -3.00781,-3.7988 l 8.38867,-10.4473 c 0.52776,-0.9328 1.41786,-1.3256 2.30078,-1.3242 z m 8.70508,5.541 c 1.94243,0 3.85476,1.9116 1.81641,4.1719 -0.63315,0.6331 -9.49805,11.3964 -9.49805,11.3964 -3.95997,1.2283 -3.56556,-1.2376 -3.00586,-3.7988 l 8.38867,-10.4453 c 0.52776,-0.9328 1.41591,-1.3256 2.29883,-1.3242 z m 9.49805,4.4316 c 1.94243,0 3.85476,1.9136 1.8164,4.1739 -0.63315,0.6331 -9.49804,11.3964 -9.49804,11.3964 -3.95997,1.2283 -3.56752,-1.2376 -3.00782,-3.7988 l 8.38868,-10.4473 c 0.52776,-0.9327 1.41785,-1.3255 2.30078,-1.3242 z m 9.33984,5.8555 c 1.94243,0 3.85281,1.9135 1.81445,4.1738 -0.63315,0.6331 -9.49804,11.3965 -9.49804,11.3965 -3.95997,1.2283 -3.56556,-1.2376 -3.00586,-3.7988 l 8.38867,-10.4473 c 0.52776,-0.9328 1.41786,-1.3256 2.30078,-1.3242 z m 9.02149,4.5918 c 1.94243,0 3.8528,1.9116 1.81445,4.1719 -0.21642,0.2164 -1.48044,1.7273 -2.9375,3.4765 l -3.9043,-2.9277 2.72656,-3.3965 c 0.52776,-0.9328 1.41786,-1.3242 2.30079,-1.3242 z m 9.81445,6.332 c 1.94243,0 3.8528,1.9116 1.81445,4.1719 -0.21642,0.2164 -1.48044,1.7274 -2.9375,3.4766 l -3.9043,-2.9278 2.72657,-3.3965 c 0.52776,-0.9328 1.41785,-1.3242 2.30078,-1.3242 z"
             style="fill:#257fc1;fill-opacity:1;fill-rule:evenodd;stroke:none;stroke-width:1px;stroke-linecap:butt;stroke-linejoin:miter;stroke-opacity:1"
             inkscape:connector-curvature="0" />
          <path
             inkscape:connector-curvature="0"
             id="path5357"
             d="m 546.28906,1065.1055 c -1.0341,0.4537 -1.16487,14.4597 -1.8457,20.4355 l 21.70312,13.4766 2.73438,-21.877 23.31055,13.8535 3.50781,-1.0019 3.57226,1.7109 1.68164,-5.3418 -5.16992,-2.7011 -6.32422,-0.1875 -20.89453,-12.9805 -5.06445,0 -1.58398,4.1152 c 0,0 -14.24542,-8.863 -15.51172,-9.4961 -0.0396,-0.02 -0.0781,-0.022 -0.11524,-0.01 z"
             style="fill:#999999;fill-rule:evenodd;stroke:none;stroke-width:1px;stroke-linecap:butt;stroke-linejoin:miter;stroke-opacity:1" />
          <path
             inkscape:connector-curvature="0"
             id="path5363"
             d="m 579.32812,1085.3711 -2.21679,0.9512 -2.36328,18.0351 17.56836,10.9082 2.49609,-2.9258 2.56055,-16.5214 -18.04493,-10.4473 z"
             style="fill:#999999;fill-rule:evenodd;stroke:none;stroke-width:1px;stroke-linecap:butt;stroke-linejoin:miter;stroke-opacity:1" />
          <path
             sodipodi:nodetypes="ccccc"
             inkscape:connector-curvature="0"
             id="path5368"
             d="m 534.17146,1067.5142 c -30.89141,28.3066 -64.32985,61.0558 -95.69889,90.8218 l 5.78125,3.9102 c 15.65107,-14.3602 88.12891,-80.4248 88.12891,-81.2344 z"
             style="fill:#1a1a1a;fill-opacity:1;fill-rule:evenodd;stroke:none;stroke-width:1px;stroke-linecap:butt;stroke-linejoin:miter;stroke-opacity:1" />
          <path
             inkscape:connector-curvature="0"
             id="path5401"
             d="m 578.73633,1008.9648 c -0.95476,0.9672 -1.93938,1.9596 -2.81055,2.8575 l 0.55274,10.2343 14.8789,8.2305 0.2832,1.9785 c 18.8534,9.8374 40.73829,20.8301 40.73829,20.8301 l -3.13477,4.2539 17.68359,8.7305 -9.84765,12.3105 -1.34375,7.3867 c 0,0 -2.82861,2.699 -4.32031,4.1211 l -0.16993,1.8047 -9.17968,12.6621 -5.17188,2.4336 c 0.20524,0.1609 0.44988,0.3327 0.68555,0.502 l 5.75195,0.5469 16.77735,-20.8926 c 2.85361,-6.8152 7.37406,-14.2671 12.90234,-21.7989 l -18.61914,-9.8222 2.01562,-2.461 -2.46289,-1.5683 1.11914,-4.252 c 0,0 -10.89183,-5.4325 -20.55468,-10.2461 l 2.42382,-3.6328 4.0293,0.2227 0.55273,-2.1035 -10.04101,-5.2422 c -1.52231,1.7172 -4.11919,4.6292 -5.82227,6.3496 -13.03966,-6.4757 -25.82046,-12.7878 -26.77343,-13.1055 -2.01466,-0.6715 2.46093,-5.5976 2.46093,-5.5976 l 2.23828,-0.4473 -0.33593,-1.9336 -4.50586,-2.3516 z"
             style="fill:#257fc1;fill-opacity:1;fill-rule:evenodd;stroke:none;stroke-width:1px;stroke-linecap:butt;stroke-linejoin:miter;stroke-opacity:1" />
          <path
             id="path5422"
             d="m 543.35156,986.68164 c -25.62826,0.1448 -39.24785,50.45696 -30.1875,61.33396 0,0 7.62153,3.5319 10.21094,4.2774 l 2.90234,-2.7364 c -0.0871,-0.2871 -0.1933,-0.5969 -0.33398,-0.9394 -5.18671,-13.619 13.4375,-65.30947 33.58789,-46.7285 0.91548,-5.07236 1.38142,-7.24571 -2.67969,-10.8555 -4.79003,-3.0556 -9.30628,-4.37525 -13.5,-4.35156 z"
             style="fill:#257fc1;fill-opacity:1;fill-rule:evenodd;stroke:none;stroke-width:1px;stroke-linecap:butt;stroke-linejoin:miter;stroke-opacity:1"
             inkscape:connector-curvature="0" />
          <circle
             r="22.602144"
             cy="1280.2222"
             cx="606.71167"
             id="path5438"
             style="color:#000000;clip-rule:nonzero;display:inline;overflow:visible;visibility:visible;opacity:1;isolation:auto;mix-blend-mode:normal;color-interpolation:sRGB;color-interpolation-filters:linearRGB;solid-color:#000000;solid-opacity:1;fill:#1a1a1a;fill-opacity:1;fill-rule:nonzero;stroke:none;stroke-width:1.06561732;stroke-linecap:round;stroke-linejoin:round;stroke-miterlimit:4;stroke-dasharray:none;stroke-dashoffset:0;stroke-opacity:1;color-rendering:auto;image-rendering:auto;shape-rendering:auto;text-rendering:auto;enable-background:accumulate" />
          <path
             sodipodi:nodetypes="ccccccccc"
             inkscape:connector-curvature="0"
             id="path5442"
             d="m 517.59645,1313.1457 c -0.59272,-3.6573 3.22024,-20.1055 3.82138,-18.0016 l 7.89182,-10.6482 c 3.85996,-3.8655 8.56374,-6.4653 13.61262,-8.5475 l 2.21601,0.9497 c 0.76621,5.7643 -0.38144,9.6147 -1.3431,13.6511 -7.56168,4.786 -9.86908,9.8457 -13.06095,18.0062 -3.11383,1.8257 -4.63829,3.3336 -10.44691,5.6983 z"
             style="fill:#1a1a1a;fill-opacity:1;fill-rule:evenodd;stroke:none;stroke-width:1px;stroke-linecap:butt;stroke-linejoin:miter;stroke-opacity:1" />
          <path
             id="path5447"
             d="m 366.67969,1154.291 a 11.42139,18.480198 40.211656 0 0 -15.39844,8.5488 11.42139,18.480198 40.211656 0 0 -3.20898,21.4864 11.42139,18.480198 40.211656 0 0 16.49023,-2.711 l -4.30273,-3.4882 c 1.48491,-4.4517 2.57308,-7.3255 6.64843,-10.129 l 5.7168,3.6036 a 11.42139,18.480198 40.211656 0 0 -0.69141,-15.5 11.42139,18.480198 40.211656 0 0 -5.2539,-1.8106 z"
             style="color:#000000;clip-rule:nonzero;display:inline;overflow:visible;visibility:visible;opacity:1;isolation:auto;mix-blend-mode:normal;color-interpolation:sRGB;color-interpolation-filters:linearRGB;solid-color:#000000;solid-opacity:1;fill:#1a1a1a;fill-opacity:1;fill-rule:nonzero;stroke:none;stroke-width:1.13632274;stroke-linecap:round;stroke-linejoin:round;stroke-miterlimit:4;stroke-dasharray:none;stroke-dashoffset:0;stroke-opacity:1;color-rendering:auto;image-rendering:auto;shape-rendering:auto;text-rendering:auto;enable-background:accumulate"
             inkscape:connector-curvature="0" />
          <ellipse
             transform="matrix(0.33872058,0.94088701,-0.93606154,0.35183633,0,0)"
             ry="20.057026"
             rx="15.782789"
             cy="49.298958"
             cx="1151.7374"
             id="path5452"
             style="color:#000000;clip-rule:nonzero;display:inline;overflow:visible;visibility:visible;opacity:1;isolation:auto;mix-blend-mode:normal;color-interpolation:sRGB;color-interpolation-filters:linearRGB;solid-color:#000000;solid-opacity:1;fill:#1a1a1a;fill-opacity:1;fill-rule:nonzero;stroke:none;stroke-width:1.19521213;stroke-linecap:round;stroke-linejoin:round;stroke-miterlimit:4;stroke-dasharray:none;stroke-dashoffset:0;stroke-opacity:1;color-rendering:auto;image-rendering:auto;shape-rendering:auto;text-rendering:auto;enable-background:accumulate" />
          <path
             id="path5458"
             d="m 543.21289,1290.9355 c -6.93706,4.5737 -9.27624,9.4819 -12.2832,17.1309 l 2.33789,1.9141 1.26562,-2.6914 4.43164,2.6914 9.18164,-12.1895 -3.95703,-3.0058 c 0,0 1.89877,-1.1091 1.26563,-1.7422 -0.52732,-0.5274 -1.75029,-1.6523 -2.24219,-2.1075 z"
             style="fill:#b3b3b3;fill-opacity:1;fill-rule:evenodd;stroke:none;stroke-width:1px;stroke-linecap:butt;stroke-linejoin:miter;stroke-opacity:1"
             inkscape:connector-curvature="0" />
          <ellipse
             style="color:#000000;clip-rule:nonzero;display:inline;overflow:visible;visibility:visible;opacity:1;isolation:auto;mix-blend-mode:normal;color-interpolation:sRGB;color-interpolation-filters:linearRGB;solid-color:#000000;solid-opacity:1;fill:#1a1a1a;fill-opacity:1;fill-rule:nonzero;stroke:none;stroke-width:0.85215372;stroke-linecap:round;stroke-linejoin:round;stroke-miterlimit:4;stroke-dasharray:none;stroke-dashoffset:0;stroke-opacity:1;color-rendering:auto;image-rendering:auto;shape-rendering:auto;text-rendering:auto;enable-background:accumulate"
             id="ellipse5490"
             cx="908.7663"
             cy="-645.10413"
             rx="10.838789"
             ry="14.846204"
             transform="matrix(-0.12845771,0.99171499,-0.99523666,-0.09748843,0,0)" />
          <ellipse
             transform="matrix(1,0,0.26272505,0.96487074,0,0)"
             ry="15.859751"
             rx="18.151764"
             style="color:#000000;clip-rule:nonzero;display:inline;overflow:visible;visibility:visible;opacity:1;isolation:auto;mix-blend-mode:normal;color-interpolation:sRGB;color-interpolation-filters:linearRGB;solid-color:#000000;solid-opacity:1;fill:#1a1a1a;fill-opacity:1;fill-rule:nonzero;stroke:none;stroke-width:0.79994339;stroke-linecap:round;stroke-linejoin:round;stroke-miterlimit:4;stroke-dasharray:none;stroke-dashoffset:0;stroke-opacity:1;color-rendering:auto;image-rendering:auto;shape-rendering:auto;text-rendering:auto;enable-background:accumulate"
             id="circle5496"
             cx="451.40622"
             cy="1113.8182" />
          <path
             sodipodi:nodetypes="ccscc"
             inkscape:connector-curvature="0"
             id="path5500"
             d="m 610.52631,971.51364 12.58502,11.09574 c 11.18837,5.36689 85.46189,41.45892 86.32747,42.61302 0.94972,1.2663 3.95795,-3.3239 3.95795,-3.3239 0,0 -83.89311,-41.04195 -102.87044,-50.38486 z"
             style="fill:#1a1a1a;fill-opacity:1;fill-rule:evenodd;stroke:none;stroke-width:1px;stroke-linecap:butt;stroke-linejoin:miter;stroke-opacity:1" />
          <path
             inkscape:connector-curvature="0"
             id="path5507"
             d="m 620.64089,973.77973 c -1.58287,0.94972 -4.59031,8.54747 -4.59031,8.54747 l 1.58286,1.74115 1.2663,-0.63315 3.16572,1.26629 3.4823,-6.9646 -3.4823,-1.89944 z"
             style="fill:#808080;fill-rule:evenodd;stroke:none;stroke-width:1px;stroke-linecap:butt;stroke-linejoin:miter;stroke-opacity:1" />
          <path
             id="path5502"
             d="m 696.14258,1013.8262 -1.26563,4.748 c 0,0 1.41168,1.2344 2.39063,1.7285 1.21941,-0.9222 2.43382,-1.8297 3.625,-2.6777 l 1.97461,-2.084 -6.72461,-1.7148 z"
             style="fill:#808080;fill-rule:evenodd;stroke:none;stroke-width:1px;stroke-linecap:butt;stroke-linejoin:miter;stroke-opacity:1"
             inkscape:connector-curvature="0" />
          <ellipse
             style="color:#000000;clip-rule:nonzero;display:inline;overflow:visible;visibility:visible;opacity:1;isolation:auto;mix-blend-mode:normal;color-interpolation:sRGB;color-interpolation-filters:linearRGB;solid-color:#000000;solid-opacity:1;fill:#1a1a1a;fill-opacity:1;fill-rule:nonzero;stroke:none;stroke-width:1.86499047;stroke-linecap:round;stroke-linejoin:round;stroke-miterlimit:4;stroke-dasharray:none;stroke-dashoffset:0;stroke-opacity:1;color-rendering:auto;image-rendering:auto;shape-rendering:auto;text-rendering:auto;enable-background:accumulate"
             id="ellipse5517"
             cx="1202.9102"
             cy="1135.3309"
             rx="6.273644"
             ry="15.783377"
             transform="matrix(1,0,-0.42978785,0.9029299,0,0)" />
          <path
             sodipodi:nodetypes="cccc"
             inkscape:connector-curvature="0"
             id="path5519"
             d="m 598.30859,1127.4102 -8.84961,2.914 c -20.7485,27.6023 -50.04557,59.5905 -60.89453,86.0781 8.28899,-10.8699 65.72767,-83.8867 69.74414,-88.9921 z"
             style="fill:#0b2157;fill-opacity:1;fill-rule:evenodd;stroke:none;stroke-width:1px;stroke-linecap:butt;stroke-linejoin:miter;stroke-opacity:1" />
          <path
             inkscape:connector-curvature="0"
             id="path5376"
             d="m 496.94922,1086.4492 -17.46094,18.3555 c 0,0 -2.68577,3.3582 -0.44726,3.582 2.2385,0.2239 10.52148,0.6719 10.52148,0.6719 l 4.92383,-3.582 5.14844,-1.1192 57.7539,35.3692 -0.44726,10.5214 12.73047,14.2676 c 1.10801,-1.8994 17.88671,-23.2695 17.88671,-23.2695 l -8.38867,-12.1875 -8.86328,-0.4746 -59.92773,-39 c 0,0 -4.70042,0.4481 -4.47657,-0.4473 0.22385,-0.8954 0.44727,-2.4629 0.44727,-2.4629 l -9.40039,-0.2246 z m -3.35742,5.8203 9.40039,0.4473 -8.50586,8.5078 -8.28321,-1.1191 7.38868,-7.836 z m 78.15429,40.4434 c 0.97585,0.032 1.98243,1.418 1.98243,1.418 l 8.2832,11.6386 -8.2832,10.5215 -9.84766,-12.0879 -0.44922,-2.6855 c 0,0 6.26942,-6.7163 7.38867,-8.2832 0.27981,-0.3918 0.6005,-0.532 0.92578,-0.5215 z"
             style="fill:#257fc1;fill-opacity:1;fill-rule:evenodd;stroke:none;stroke-width:1px;stroke-linecap:butt;stroke-linejoin:miter;stroke-opacity:1" />
          <ellipse
             transform="matrix(0.46183944,-0.88696355,0.88696355,0.46183944,0,0)"
             ry="2.4425673"
             rx="3.2006056"
             cy="1073.6461"
             cx="-660.5152"
             id="path5534"
             style="color:#000000;clip-rule:nonzero;display:inline;overflow:visible;visibility:visible;opacity:1;isolation:auto;mix-blend-mode:normal;color-interpolation:sRGB;color-interpolation-filters:linearRGB;solid-color:#000000;solid-opacity:1;fill:#999999;fill-opacity:1;fill-rule:nonzero;stroke:none;stroke-width:1;stroke-linecap:round;stroke-linejoin:round;stroke-miterlimit:4;stroke-dasharray:none;stroke-dashoffset:0;stroke-opacity:1;color-rendering:auto;image-rendering:auto;shape-rendering:auto;text-rendering:auto;enable-background:accumulate" />
          <path
             sodipodi:nodetypes="ccccc"
             inkscape:connector-curvature="0"
             id="path5526"
             d="m 647.58033,1079.9299 c -0.18088,1.035 -0.9604,1.8909 -1.47681,3.24 l 8.21679,5.0098 2.47266,-3.0918 z"
             style="fill:#999999;fill-opacity:1;fill-rule:evenodd;stroke:none;stroke-width:1px;stroke-linecap:butt;stroke-linejoin:miter;stroke-opacity:1" />
          <path
             sodipodi:nodetypes="cccccccc"
             inkscape:connector-curvature="0"
             id="path5333"
             d="m 678.41541,1053.0812 c 3.17076,1.4742 4.62402,0.7624 10.76348,6.0149 l 0.63314,7.2812 c -7.66668,-8.1493 -38.70526,51.7875 -35.77272,54.767 1.26629,0 3.79887,1.2663 3.79887,1.2663 -6.50546,6.5832 -18.09024,1.4601 -17.72806,-6.0149 2.29516,-16.9456 11.3933,-29.9426 18.36121,-43.0538 7.84721,-9.1217 11.80431,-18.7153 19.94408,-20.2607 z"
             style="fill:#257fc1;fill-opacity:1;fill-rule:evenodd;stroke:none;stroke-width:1px;stroke-linecap:butt;stroke-linejoin:miter;stroke-opacity:1" />
        </g>
      </g>
    </g>
  </g>
</svg>
