<?xml version="1.0" encoding="UTF-8" standalone="no"?>
<!-- Created with Inkscape (http://www.inkscape.org/) -->

<svg
   xmlns:dc="http://purl.org/dc/elements/1.1/"
   xmlns:cc="http://creativecommons.org/ns#"
   xmlns:rdf="http://www.w3.org/1999/02/22-rdf-syntax-ns#"
   xmlns:svg="http://www.w3.org/2000/svg"
   xmlns="http://www.w3.org/2000/svg"
   xmlns:sodipodi="http://sodipodi.sourceforge.net/DTD/sodipodi-0.dtd"
   xmlns:inkscape="http://www.inkscape.org/namespaces/inkscape"
   width="210mm"
   height="297mm"
   viewBox="0 0 744.09448819 1052.3622047"
   id="svg5480"
   version="1.1"
   inkscape:version="0.91 r13725"
   sodipodi:docname="HMPSpeed-depan.svg"
   inkscape:export-filename="/home/ars/Tamiya/tshirt/HMPSpeed-depan.png"
   inkscape:export-xdpi="90"
   inkscape:export-ydpi="90">
  <defs
     id="defs5482" />
  <sodipodi:namedview
     id="base"
     pagecolor="#ffffff"
     bordercolor="#666666"
     borderopacity="1.0"
     inkscape:pageopacity="0.0"
     inkscape:pageshadow="2"
     inkscape:zoom="0.35"
     inkscape:cx="-596.42858"
     inkscape:cy="520"
     inkscape:document-units="px"
     inkscape:current-layer="layer1"
     showgrid="false"
     inkscape:window-width="1366"
     inkscape:window-height="716"
     inkscape:window-x="0"
     inkscape:window-y="24"
     inkscape:window-maximized="1" />
  <metadata
     id="metadata5485">
    <rdf:RDF>
      <cc:Work
         rdf:about="">
        <dc:format>image/svg+xml</dc:format>
        <dc:type
           rdf:resource="http://purl.org/dc/dcmitype/StillImage" />
        <dc:title></dc:title>
      </cc:Work>
    </rdf:RDF>
  </metadata>
  <g
     inkscape:label="Layer 1"
     inkscape:groupmode="layer"
     id="layer1">
    <rect
       style="color:#000000;clip-rule:nonzero;display:inline;overflow:visible;visibility:visible;opacity:1;isolation:auto;mix-blend-mode:normal;color-interpolation:sRGB;color-interpolation-filters:linearRGB;solid-color:#000000;solid-opacity:1;fill:#1a1a1a;fill-opacity:1;fill-rule:nonzero;stroke:#000000;stroke-width:1;stroke-linecap:round;stroke-linejoin:round;stroke-miterlimit:4;stroke-dasharray:none;stroke-dashoffset:0;stroke-opacity:1;color-rendering:auto;image-rendering:auto;shape-rendering:auto;text-rendering:auto;enable-background:accumulate"
       id="rect4779"
       width="744.09448"
       height="1052.3622"
       x="0"
       y="4.7244093e-06" />
    <g
       style="display:inline"
       id="g4834"
       transform="matrix(2.6252101,0,0,2.6252101,-681.83123,-512.90566)">
      <g
         id="g4993"
         transform="matrix(0.70850821,0,0,0.70850821,132.69101,-444.8774)"
         style="fill:#f2f2f2">
        <path
           d="m 193.87025,1192.8432 q -1.44231,1.4423 -1.92308,0.4808 -0.48077,-0.9615 -0.96154,-1.9231 -0.72116,-1.9231 0.24038,-1.9231 0.96154,0 1.6827,-0.4807 0.72115,-0.4808 1.44231,-1.2019 0.96154,-0.7212 1.68269,-1.202 0,-0.2404 0,-0.2404 0.24039,-0.2403 0.24039,-0.4807 l 0,-0.4808 q -1.44231,-1.4423 -1.44231,-2.1635 0,-0.7211 0.48077,-1.2019 0.48077,-0.4808 1.20192,-0.7211 0.96154,-0.4808 0.96154,-1.202 0.48077,-0.4807 0.96154,-0.7211 0.48077,-0.2404 0,-1.2019 1.92308,-0.7212 3.84616,-1.4424 1.92308,-0.7211 3.84616,-1.4423 0.48077,-0.4807 0.48077,-0.9615 0.24038,-0.7212 0.72115,-1.2019 0.96154,-1.9231 1.92308,-3.8462 0.96154,-2.1635 2.40385,-4.0865 0.96154,0.4807 0.48077,1.4423 -0.24039,0.9615 0.24038,1.6827 0.24039,0.7211 -0.48077,0.9615 -0.48076,0.2404 -0.96153,0.7212 -0.72116,1.2019 -1.44231,2.1634 -0.48077,0.9616 -1.44231,2.1635 l 0,0.4808 q 0,0.2404 0.24038,0.2404 0.48077,-0.2404 0.96154,-0.2404 0.48077,-0.2404 0.96154,-0.4808 0.24039,0 0.24039,0 0,-0.2404 0.24038,-0.2404 l -0.48077,-0.9615 q 1.92308,-0.4808 2.64423,-0.9616 0,-0.2404 0,-0.2404 0.24039,0 0.24039,-0.2403 0.48077,-1.4423 0.72115,-2.8847 0.48077,-1.6827 2.40385,-2.1634 l 0.24039,0 q 0.72115,-1.4423 1.44231,-2.6443 0.72115,-1.4423 1.44231,-2.8846 1.92308,-2.4038 2.88462,-4.8077 0.96154,-2.6442 2.40385,-5.2884 0.24038,-0.4808 1.20192,-1.4424 0.24039,-0.4807 0,-0.7211 0,-0.2404 0,-0.7212 1.20192,-3.3653 3.84616,-5.048 0.24038,0 0.48077,-0.2404 0,0 -0.24039,-0.2404 0.96154,-1.2019 1.6827,-2.1635 0.96154,-1.2019 1.92308,-2.4038 -0.24039,0 -0.24039,-0.4808 -0.72115,-1.2019 0.96154,-1.6827 0.48077,-0.4808 0.48077,-0.9615 0.24039,-0.4808 0.72116,-0.9616 0.48077,-0.7211 1.20192,-1.4423 0.72116,-0.9615 0.24039,-2.1634 0,-0.4808 0.24038,-0.7212 0.24039,-0.2404 0.48077,-0.7212 l 0,-1.2019 -0.48077,0 q 0,0 -0.24038,-0.2404 0.72115,-0.4807 0.72115,-1.2019 0.24039,-0.9615 0.72116,-1.4423 0,-0.4808 0.24038,-0.9615 0.48077,-0.4808 0,-0.9616 0.48077,-0.4807 0.72116,-0.7211 0.24038,-0.4808 0.48077,-0.9616 0.48077,-1.6827 1.20192,-2.1634 0.72115,0.2403 0.48077,0.4807 -0.24039,0.2404 0.24038,0.4808 0.24039,0.4808 -0.48077,0.4808 -0.24038,0.4807 -0.48076,0.7211 0,0 -0.24039,0.4808 -0.24038,0.4808 -0.48077,1.2019 0,0.7212 -0.48077,1.2019 0.96154,-0.4807 1.44231,-0.4807 0.24038,-0.4808 0.48077,-0.9616 0.48077,-0.4807 0.72115,-0.9615 l 0.72116,-0.7212 q -0.48077,-0.9615 0.72115,-0.9615 0.24039,-0.4808 0.48077,-0.4808 0.24039,-0.2404 0.48077,-0.7211 0,0 0.24039,-0.4808 0.48077,-0.4808 0.48077,-1.2019 0.24038,-0.9616 0.72115,-1.6827 0.24039,0 0.48077,-0.2404 0,-0.2404 -0.24038,-0.4808 0,-0.9615 1.44231,-1.4423 0.48077,-0.4807 0.72115,-0.4807 0.24039,-0.2404 0.72116,-0.7212 -0.24039,0 -0.24039,-0.2404 -0.96154,-0.4808 0.24039,-0.4808 0,-0.2403 0,-0.2403 0.24038,0 0.24038,-0.2404 0.48077,-0.4808 0.24039,-0.9616 0,-0.2403 0.24038,-0.4807 -0.24038,-0.4808 -0.24038,-0.9616 0,-0.4807 1.20192,-0.4807 0.48077,-0.4808 0.48077,-0.4808 1.20193,-0.9616 1.92308,-1.9231 0.96154,-0.9615 1.44231,-2.1635 1.20192,-0.2403 1.44231,-0.7211 0.48077,-0.4808 0.96154,-0.9615 0,0 0.24038,-0.2404 0.24039,-0.4808 1.20193,-1.9231 0.96154,-0.4808 0.72115,-0.4808 2.64424,-1.2019 1.6827,1.2019 -0.24039,1.202 -1.44231,2.6443 -0.48077,0.4807 -0.72116,0.9615 l 0.24039,0 q 0.24038,-0.2404 0.48077,-0.2404 0.48077,0.4808 0.48077,0.4808 0.24038,0.7212 -0.24039,1.2019 -0.48077,0.4808 -0.96154,0.9616 0,0.4807 -0.24038,0.7211 -0.24039,0.7212 -1.20193,1.6827 0,0.7212 0.24039,0.7212 0.48077,-0.4808 0.48077,-0.9616 0.48077,-0.9615 0.96154,-1.6827 0.72115,-0.9615 1.68269,-1.4423 0.24039,-0.2404 0.24039,-0.2404 0.24038,0 0.48077,-0.2403 0.48077,0.9615 0.24038,1.4423 0,2.1634 -1.44231,3.8461 -1.20192,1.6827 -2.40385,3.3654 -0.24038,0.9616 -1.20192,2.8846 -0.72116,0.9616 -1.44231,1.9231 -0.48077,0.9615 -1.20192,1.9231 -0.48077,1.2019 -0.96154,2.1635 -0.48077,0.7211 -0.96154,1.923 0.24038,0 0.48077,0.2404 0.48077,0 0.96154,0 0.48077,-0.9615 0.72115,-1.2019 0.96154,-1.6827 1.68269,-3.125 0.72116,-1.4423 1.44231,-2.8846 0.48077,-0.4808 1.92308,-1.202 0,3.6058 -2.40385,5.7693 l -2.16346,4.3269 q 0.48077,1.2019 -0.24038,1.9231 -0.48077,0.7211 -0.96154,1.9231 -0.96154,0.4807 -1.6827,0.4807 0.72116,0.9616 0,1.9231 -0.24038,0 -0.24038,0.2404 0,0.4808 -0.24039,0.9615 -0.24038,0.4808 -0.24038,0.9616 -0.48077,0.9615 -0.96154,1.6827 -0.48077,0.7211 -0.96154,1.2019 -0.72116,0.7212 -1.44231,0.2404 -0.48077,-0.4808 -0.48077,-0.4808 0,0.2404 -0.24039,0.4808 0,0 0,0.2404 l 0.24039,0.2404 q 0.24038,0.4807 0,0.4807 -0.24039,0 0,0.4808 0.24038,0 0.24038,0.2404 0.24039,0 0.48077,0 -0.48077,0.4808 -0.48077,0.7211 0,0.7212 -0.24038,0.7212 -0.24039,0.4808 -0.72116,0.2404 -0.48077,-0.2404 -0.96154,-0.2404 -2.64423,4.5673 -4.80769,9.375 -2.16347,4.5673 -4.32693,9.375 0,0.4808 -0.48077,0.9616 0.96154,0 1.92308,-0.4808 1.92308,-0.4808 3.60577,-0.9616 1.68269,-0.7211 3.60577,-0.9615 0,1.2019 -0.72115,1.4423 -0.72116,0.2404 -0.96154,0.9616 -0.48077,0.7211 -1.6827,0.2403 -0.96153,0.2404 -1.92307,0.4808 -0.96154,0 -1.92308,0.2404 -1.44231,0.4808 -2.64424,0.9615 -0.48077,0.9616 -0.96154,1.9231 -0.24038,0.7212 -0.72115,1.6827 4.56731,-1.6827 8.17308,-2.6442 1.20193,-0.4808 2.40385,-1.202 1.20193,-0.9615 2.64424,0.2404 l 0,0.2404 q 1.20192,-0.4808 2.40385,-0.7211 1.20192,-0.2404 2.40385,-0.7212 2.40385,-0.2404 4.32692,-1.2019 2.16347,-0.9616 4.32693,-1.4423 l 1.6827,0 q 0.24038,-0.4808 0.24038,-0.4808 0.24039,-0.2404 0.48077,-0.7211 2.88462,-1.202 5.04809,-0.2404 0.24038,0 0.24038,0.2404 0.24039,-0.2404 0.24039,-0.4808 0.96154,0 1.92308,0 0.96153,-0.2404 2.16346,-0.2404 1.20192,-1.6827 3.36539,-2.6442 0,0 0.24038,-0.2404 l -0.24038,-0.2404 q 1.20192,-1.2019 1.92308,-2.1635 0.72115,-0.9615 1.92308,-2.1634 -0.24039,-0.2404 -0.24039,-0.2404 0,-0.2404 -0.24038,-0.4808 -0.72116,-1.4423 0.96154,-1.6827 0.48077,-0.4808 0.72115,-0.9615 0.24039,-0.4808 0.72116,-0.9616 0.24038,-0.4807 0.48077,-0.7211 0.24038,-0.4808 0.72115,-0.9616 l -0.72115,-0.2403 q 0.72115,-0.7212 0.96154,-1.202 0,-0.2404 -0.24039,-0.2404 0,0 0,-0.2403 0.24039,-0.4808 0.24039,-0.7212 0,-0.2404 0.24038,-0.7211 0,-1.9231 0.48077,-3.3654 0.48077,-1.4423 2.88462,-1.9231 2.40385,-5.0481 4.08654,-9.6154 0.48077,-1.2019 1.44231,-1.2019 3.36539,1.4423 4.32693,4.0865 1.20193,2.4039 2.88462,4.5673 0.72115,1.2019 1.20192,2.4039 0.72116,0.9615 1.92308,1.923 2.16347,1.6827 0.24039,3.6058 -0.24039,0.2404 -0.24039,0.4808 0,0.2404 -0.24038,0.4808 1.20192,0.4807 0.72115,0.9615 -0.96154,0.4808 -1.44231,0.4808 l -0.48077,0.2404 q 0.24039,1.2019 -0.24038,1.6827 l -0.24039,0 q 0.48077,0.4807 0.24039,1.2019 -0.24039,0.4807 -0.48077,0.9615 -0.72115,2.1635 -1.92308,2.8846 -0.96154,0.4808 -1.92308,0.2404 l 0,-0.2404 -0.24038,0.2404 -0.24039,-0.2404 q 0,0.2404 -0.24038,0.2404 l -0.72116,2.1635 q 1.6827,-0.4808 3.12501,-0.7212 1.68269,-0.2404 3.36538,-0.7211 1.92308,0.7211 3.84616,0.2404 1.92308,-0.4808 3.84616,-0.4808 l 0.48077,0 q 2.16347,0.9615 0.24039,2.1635 -1.92308,0.4807 -2.40385,0.4807 -1.20193,0.2404 -2.64424,0.2404 -1.20192,0 -2.40385,0.9615 0,0.2404 -0.24038,0.4808 0,0 0,0.2404 -1.44231,0.4808 -2.88462,-0.9615 0,-0.2404 0,-0.2404 0.24039,-0.2404 0.24039,-0.4808 l -0.24039,0 q 0,0.4808 -0.48077,0.9615 -0.24038,0 -0.48077,0 0,-0.2403 -0.24038,-0.2403 -2.16347,0.2403 -4.8077,1.2019 -0.96154,1.4423 -1.44231,2.4038 1.44231,0 2.88462,0.2404 1.44231,0 2.88462,-0.4807 0.96154,-0.2404 2.88461,-1.202 0.24039,-0.7211 -0.24038,-1.2019 l 0.24038,0 q 0.72116,0.4808 1.6827,0 0,0.7212 1.20192,0.7212 1.92308,-0.7212 3.36539,-0.2404 0.24039,0 0.48077,0.2404 -0.24038,0.4807 -0.48077,0.7211 0,0 -0.24038,0.4808 -1.20193,1.2019 -2.88462,1.4423 -1.6827,0 -3.36539,0.4808 -1.44231,0.4807 -2.40385,0.7211 -1.44231,0.2404 -2.88462,0.4808 -1.44231,0 -2.64423,0.4808 -0.72116,0 -1.44231,0.4807 -0.48077,0.2404 0.72115,1.4423 0.24039,0 0.48077,0 0.24039,-0.2404 0.48077,-0.2404 l 5.04809,-1.4423 q 0.48077,0.2404 0.72115,0.2404 0.48077,0 0.96154,0.2404 -1.92308,2.1635 -4.8077,2.1635 -0.96154,0.2404 -1.92308,0.4807 -0.72115,0.2404 -1.68269,0.4808 -0.48077,0.9616 -1.20193,1.2019 -0.72115,0 -1.44231,0.4808 -0.72115,1.4423 -1.44231,2.8846 -0.48077,1.4423 -0.96154,2.8846 -1.92307,4.0866 -3.84615,8.1731 -1.92308,4.0866 -3.36539,8.4135 -0.96154,3.125 -2.88462,6.7308 -1.92308,3.3654 -3.36539,6.25 -0.24039,0.4808 -0.72116,1.2019 -0.24038,0.7212 -1.4423,0.9616 -0.72116,6.4903 -2.88462,11.7788 -0.24039,0.4808 -0.48077,0.9616 -0.24039,0.7211 -0.72116,1.4423 -0.96154,1.923 -1.92308,4.0865 -0.96154,2.1635 -1.92308,4.0866 l 0,0.2403 q -0.72115,1.202 -1.44231,2.4039 -0.48077,1.4423 -1.20192,2.6442 -0.48077,0.9616 -1.44231,1.2019 -0.24039,-0.2403 -0.96154,-0.2403 -0.48077,1.2019 -0.72116,2.1634 -0.24038,1.2019 -0.72115,2.4039 0,0 0.48077,0.9615 l 0,0.2404 q 0.24038,0.7212 -0.48077,1.2019 -0.48077,0.7212 -0.24038,1.4423 0.24038,0.4808 0.48076,0.4808 0.24039,0.2404 0.72116,0.7212 -0.24039,0.4807 -0.72116,0.9615 -0.24038,0.7212 -0.72115,1.4423 0.24039,1.4423 -0.96154,2.4039 -0.96154,1.4423 -2.64423,0.4807 -1.6827,-0.7211 -2.64424,0.2404 -0.72115,0 -1.20192,0.2404 -0.24039,0.7212 -0.48077,1.4423 0,0.9615 -0.96154,1.4423 l -0.72116,0 q 0.24039,2.6442 -1.20192,2.1635 -1.44231,-0.2404 -2.64424,-0.7212 -2.64423,-0.7211 -1.92307,-1.6827 0.72115,-0.9615 0.96154,-1.923 0.24038,-1.202 0.24038,-2.4039 0.24038,-0.9615 0.24038,-2.1635 l -0.72115,-0.7211 q 0.24039,0 -0.24038,-0.4808 -2.64424,0.2404 -3.60578,-0.2404 -0.72115,-0.4807 -0.72115,-1.4423 0,-0.9615 0.24038,-1.9231 0.48077,-0.9615 0,-1.6827 -0.48077,-0.4807 -0.24038,-1.2019 0.24038,-0.4808 -0.72116,-0.9615 1.20193,-2.8846 2.40385,-5.7693 1.20193,-2.8846 2.40385,-5.5288 0.24039,-0.2404 0.24039,-0.2404 0.24038,0 0.48077,-0.2404 0.72115,-0.7211 1.20192,-2.1634 l 0,-0.7212 -1.20192,-0.2404 q 0.72115,-1.4423 1.20192,-2.8846 0.48077,-1.2019 1.20192,-2.6442 0.48077,-0.7212 1.20193,-1.4423 0.72115,-0.9616 1.20192,-1.6827 l 0,-0.9616 0.48077,0 q 0.96154,-1.6827 1.6827,-3.3654 0.72115,-1.6827 1.44231,-3.3654 0.24038,0 0.24038,0 0.24039,-0.2403 0.48077,-0.2403 1.20193,-2.4039 1.6827,-4.8077 0.48077,-2.6443 2.16346,-4.5674 l 0,-0.2403 q 1.44231,-2.6443 2.88462,-5.0481 1.44231,-2.6443 2.64423,-5.5289 0.48077,-1.4423 0.72116,-2.8846 0.24038,-1.6827 2.64423,-2.1635 0.72116,-1.6827 1.20193,-3.125 0.72115,-1.4423 1.44231,-3.125 l 0.72115,-1.4423 q -1.20192,0.4808 -2.40385,0.9616 -0.96154,0.4807 -2.16346,0.9615 -3.60578,1.2019 -7.45193,2.1635 -3.60578,0.9615 -6.97117,2.4038 -2.40385,0.9616 -4.8077,1.6827 -2.40384,0.7212 -5.04808,1.6827 -0.48077,0.2404 -1.20192,0.4808 -0.72116,0.2404 -1.20193,-0.2404 -2.16346,1.6827 -4.56731,2.4038 -2.16347,0.4808 -4.08654,1.6827 -1.44231,0.4808 -1.92308,0.7212 -0.24039,0 -0.24039,0.2404 0,0 -0.24038,0 -0.72116,0.9615 -0.96154,1.9231 -0.24039,0.4807 -0.72116,1.4423 -0.24038,0.7211 -1.20192,0.9615 -0.48077,2.8846 -1.6827,5.7692 -1.20192,2.6443 -2.16346,5.2885 -0.48077,1.2019 -1.20193,2.4039 -0.96154,2.1634 -1.92308,4.3269 -0.96154,2.1634 -1.92308,4.3269 l 0,0.2404 -0.24038,-0.2404 q -1.20192,3.125 -2.40385,5.2885 -0.48077,0.7211 -1.20192,1.2019 -0.48077,0 -0.72116,-0.2404 0,0 -0.24038,0 -0.48077,1.2019 -0.96154,2.4039 -0.24039,1.2019 -0.72116,2.4038 0.48077,0 0.48077,0.4808 l 0,0.4808 q 0,0.7211 -0.48077,1.2019 -0.24038,0.7211 -0.48077,1.4423 0.72116,0.2404 0.96154,0.9615 -0.48077,1.202 -1.20192,2.4039 0,1.4423 -0.72116,2.4038 -0.96154,1.4423 -2.40385,0.7212 -1.20192,-0.7212 -2.16346,0.4808 -0.72116,0 -0.96154,0.2403 -0.24039,0.7212 -0.48077,1.4423 -0.24039,0.9616 -0.96154,1.4424 -0.48077,0 -0.72115,0.2403 0,2.4039 -1.20193,2.1635 -0.96154,-0.2404 -2.16346,-0.4808 -1.92308,-0.4807 -1.44231,-1.6827 0.72115,-0.9615 1.20192,-1.923 0,-1.202 0.24039,-2.1635 0.24038,-0.9615 0.48077,-2.1635 l -0.72116,-0.7211 q 0,-0.2404 -0.24038,-0.2404 0,0 0,-0.2404 -2.16347,0.4808 -2.88462,0 -0.72116,-0.4808 -0.72116,-1.4423 0.24039,-0.7212 0.48077,-1.6827 0.48077,-0.9615 0.24039,-1.6827 -0.48077,-0.4808 -0.24039,-1.2019 0.24039,-0.4808 -0.48077,-0.9616 1.20193,-2.6442 2.40385,-5.5288 1.44231,-2.8846 2.64424,-5.7692 0.24038,0 0.24038,0 0.24039,-0.2404 0.48077,-0.2404 0.48077,-1.6827 1.20193,-2.4039 l 0,-0.4807 -0.96154,-0.2404 q 1.20192,-3.125 2.40384,-5.2885 0.72116,-1.9231 2.16347,-3.3654 0,-0.7211 0.24038,-1.2019 l 0.24039,0.2404 q 0.48077,-0.9616 0.72115,-1.6827 0.24039,-0.7212 0.72116,-1.6827 -0.24039,0.2404 -0.96154,0.2404 -0.96154,0 -1.6827,-1.202 -0.96154,0.9616 -1.92307,1.4424 -0.24039,-0.2404 -0.24039,-0.4808 0.96154,-1.4423 1.44231,-2.4039 l -0.48077,0 q -0.48077,-0.4807 -0.48077,-0.4807 -0.72115,0.2403 -1.44231,0.7211 -0.48077,0.4808 -1.44231,0 0,0 -0.24038,-0.2404 z m 63.94238,-87.5001 q -0.48077,0.4808 -0.72115,0.9616 -0.24039,0.4807 -0.48077,0.9615 l 0.72115,-0.7212 q 0,-0.2403 0.48077,-1.2019 z m -12.01924,55.2886 q 0.96154,-1.4424 2.16346,-1.4424 1.20193,-0.2403 2.64424,0.2404 -2.88462,1.202 -4.8077,1.202 z m -2.16347,-44.7116 q 0,-0.4808 0,-0.7212 0.24039,-0.4808 -0.24038,-0.9615 l 0.24038,-0.2404 q 1.92308,0 1.92308,0.9615 -1.20192,0.2404 -1.20192,0.9616 0,0.4807 -0.48077,0.9615 -0.24039,0.2404 -0.48077,0.2404 -0.48077,0 -0.48077,-0.4808 l 0.72115,-0.7211 z m -0.24038,2.1634 q 0,1.2019 -0.96154,1.4423 -0.48077,-0.9615 0.96154,-1.4423 z m -26.44234,42.7885 q -1.20193,0.9616 -2.16347,2.1635 -0.96154,1.2019 -0.48077,3.125 1.92308,-2.8846 2.64424,-5.2885 z"
           style="font-style:normal;font-variant:normal;font-weight:normal;font-stretch:normal;font-size:240.38491821px;line-height:125%;font-family:'Street Gathering';-inkscape-font-specification:'Street Gathering';letter-spacing:0px;word-spacing:0px;fill:#f2f2f2;fill-opacity:1;stroke:none;stroke-width:1px;stroke-linecap:butt;stroke-linejoin:miter;stroke-opacity:1"
           id="path4914"
           inkscape:connector-curvature="0" />
        <path
           d="m 373.06218,1199.0932 q -0.48077,0.9616 -0.96154,1.9231 -0.48077,0.9616 0.72115,2.1635 l -0.72115,0.7211 q -2.40385,0.2404 -3.125,-0.2403 -0.72116,-0.4808 -0.72116,-1.6827 2.64423,-0.7212 2.64423,-2.4039 0.24039,-1.9231 1.44231,-3.125 0.24039,-0.4808 0.24039,-0.7211 0.24038,-0.4808 0.72115,0 0.24039,0 0.24039,0.4807 0.24038,0.2404 0.48077,0.4808 l -0.96154,2.4038 z m 0.72115,-5.7692 q 0.24039,-2.1635 1.92308,-4.0865 1.20193,2.6442 -1.92308,4.0865 z m -8.89424,17.0673 q 0,0.2404 0.24039,0.2404 -0.48077,0.4808 -0.72116,1.4423 0,0.7212 -0.48077,1.202 0,0.4807 -0.48077,0.9615 -0.24038,0.4808 0,0.9615 -0.24038,0.7212 -1.20192,1.6827 0,1.4423 -0.72116,2.4039 -0.72115,-0.4808 -0.72115,-0.7212 0.24038,0 0,-0.4807 -0.24039,0 0.24038,-0.4808 0.24039,-0.2404 0.24039,-0.4808 0.24038,-0.2404 0.72115,-0.7211 0.24039,-0.7212 0.48077,-1.6827 0.24039,-0.7212 0.72116,-1.4423 l -0.24039,0 q -0.96154,-0.7212 -0.48077,-0.7212 0.72116,-0.2404 1.20193,-0.7212 0.48077,-0.4807 0.24038,-0.9615 -0.24038,-0.4808 0.96154,-0.4808 z m -74.03855,-30.0481 q 0.24038,-0.2404 1.68269,0.2404 0.48077,-1.9231 1.20193,-3.3654 0.72115,-1.6827 1.20192,-3.3654 1.44231,-4.0865 3.60577,-7.9327 2.16347,-4.0865 3.60578,-7.9327 0.96154,-2.8846 2.16346,-5.7692 1.20193,-2.8846 2.40385,-5.7693 0.24039,-0.4807 0.48077,-1.2019 0.24039,-0.7211 1.44231,-1.2019 0,-2.8846 0.96154,-5.5289 1.20192,-2.6442 1.92308,-5.2884 0.48077,-0.9616 0.96154,-2.4039 0.96154,-1.9231 1.68269,-4.0865 0.96154,-2.1635 1.6827,-4.3269 l 0.24038,0 q 0.48077,-1.202 0.96154,-2.4039 0.72116,-1.4423 1.20193,-2.6442 0.24038,-0.4808 0.96154,-1.202 0.48077,0 0.48077,0.2404 0.24038,0 0.72115,0 0.48077,-1.2019 1.6827,-4.3269 1.44231,-3.125 1.68269,-4.3269 -0.24038,-0.2404 -0.24038,-0.2404 0,-0.2404 -0.24039,-0.4808 l 0,-0.2404 q -0.24038,-0.7211 0.24039,-1.4423 0.48077,-0.7211 0.48077,-1.2019 -0.48077,-0.4808 -0.72116,-0.4808 -0.24038,-0.2404 -0.48077,-0.7211 0.48077,-1.4423 1.20193,-2.4039 -0.24039,-0.9615 0.72115,-2.4038 0.24039,-0.7212 0.96154,-0.7212 0.72115,0 1.44231,0.2404 0.72115,0.2404 1.20192,0.2404 0.72116,0 1.20193,-0.4808 0.24038,-0.2404 0.72115,-0.2404 0.48077,-0.4807 0.48077,-1.2019 0,-0.7211 0.48077,-1.2019 0,-0.4808 0.24039,-0.7212 0.48077,-0.4807 1.20192,0 -0.48077,-2.4038 0.72116,-2.1634 1.44231,0.2404 2.40385,0.7211 1.92308,0.4808 1.92308,1.2019 0,0.7212 -0.48077,1.6827 0.24038,0.2404 0.48077,0.2404 0,0.2404 0.24038,0.2404 1.92308,0.2404 1.6827,0.9616 0,0.4807 0.48076,0.9615 0.24039,0.2404 0,0.4808 0,0 0.48077,0.2403 l -0.72115,2.8847 q 1.20192,0.2404 1.44231,0.9615 0.24038,0.4808 0,1.4423 0,0.7212 -0.24039,1.6827 -0.24038,0.7212 0.24039,1.2019 0.48077,0.4808 0.24038,1.202 0,0.4807 0.96154,0.9615 -1.20192,2.6442 -3.36538,7.4519 -1.92308,4.8077 -3.12501,7.6923 -0.24038,0 -0.24038,0.2404 0,0 -0.24039,0 l -0.24038,0 q -0.48077,1.4423 -0.96154,2.4039 l 0,0.4808 0.96154,0.2403 q -0.72116,2.4039 -1.92308,5.2885 -0.48077,0.7212 -0.96154,1.6827 -0.48077,0.7212 -0.96154,1.4423 0,0.7212 -0.24039,1.2019 l -0.48077,-0.2404 q -0.48077,1.6827 -0.96154,3.1251 -0.24038,1.4423 -1.20192,3.3653 -0.48077,0 -0.72116,0.2404 -1.20192,4.327 -3.125,7.9327 0.48077,-1.2019 1.44231,-2.4038 0.96154,-1.2019 1.68269,-2.4039 2.16347,-1.923 3.60578,-4.3269 1.68269,-2.6442 3.60577,-4.8077 0.24039,-0.4808 0.72116,-0.7212 0.48077,-0.2403 0.96154,-0.7211 0,-0.9615 0.24038,-1.4423 1.6827,-3.3654 4.8077,-4.3269 0.24038,0 0.24038,0 0,-0.2404 0.24039,-0.2404 l -0.24039,-0.2404 q 0.96154,-1.2019 1.92308,-1.9231 1.20193,-0.9615 2.40385,-2.1635 0,-0.2403 -0.24038,-0.2403 0,0 0,-0.2404 0,-1.6827 1.68269,-1.6827 0.48077,-0.4808 0.72116,-0.7212 0.24038,-0.4807 0.72115,-0.9615 l 1.44231,-1.4423 -0.24038,-0.2404 q 0.72115,-0.7212 0.96154,-1.2019 l 0,-0.4808 q 0.24038,-0.4808 0.96154,-1.2019 0.72115,-2.4039 1.92308,-3.6058 l -0.48077,-0.4808 1.20192,-2.4038 q 0,-1.4423 1.44231,-2.1635 0.48077,-0.9615 1.20192,-0.4808 0.96154,0.2404 1.6827,0.4808 0.48077,-0.7211 0.24038,0.4808 0,1.2019 -0.48077,2.6442 -0.24038,1.4423 -0.72115,2.6443 -0.24039,1.2019 0.24038,0.4807 l 0.24039,-0.2404 q 0.48077,-0.2403 0.48077,-1.2019 0,-0.2404 0.48077,-0.2404 l 0.48077,0 q 0,-0.4807 0,-0.7211 0.24038,-0.2404 0.24038,-0.4808 l -0.48077,-0.4808 q 0,-0.7211 0,-0.7211 -0.48077,-0.4808 -0.48077,-0.4808 0.24039,-0.2404 0.24039,-0.7211 0,-0.4808 0.24038,-0.7212 0.24039,-0.4808 0.96154,0 0.96154,0.4808 1.20193,0 l 0.48077,0 q 0,-0.7212 0.48077,-0.7212 l 0.24038,0 q -0.48077,-0.9615 0.24039,-0.7211 0.72115,0.2404 1.20192,0.4808 1.20193,0.4807 0.96154,0.7211 -0.24038,0 -0.24038,0.4808 0.24038,0.4808 0.24038,1.4423 l 0.24039,0 q 0.24038,0.2404 0.48077,0.2404 2.16346,0.2404 1.68269,0.9615 -0.24038,0.4808 0.24039,0.9616 0.48077,0.2403 0.48077,0.4807 0,0 0.48076,0.2404 -0.24038,0.9616 -0.48076,1.6827 -0.24039,0.4808 -0.48077,1.4423 l -0.48077,0 q -0.24039,0.2404 -0.24039,0.7212 l 0,0.2404 0.48077,0.2403 q 0,0.4808 -0.24038,0.7212 -0.24039,0.2404 -0.24039,0.7211 -0.48077,0.4808 -0.48077,0.9616 l 0,0.2404 q -0.24038,0.2404 0.24039,-1.202 0.72115,-1.6826 1.44231,-3.3653 0.72115,-1.9231 1.20192,-3.3654 0.72115,-1.6827 0.72115,-1.4423 l -0.24038,0 q -0.48077,1.923 -0.96154,2.6442 l -0.24039,0.2404 q 0.24039,0 0,0.9615 0,0.9616 -0.24038,2.4039 -0.24038,1.2019 -0.48077,2.1634 0,0.9616 0.24039,0.9616 0,-0.2404 0.72115,-0.9616 l -0.24039,0 q -1.20192,-0.7211 -0.72115,-0.7211 0.72115,-0.2404 1.20192,-0.7212 0.24039,-0.2404 -0.24038,0.4808 -0.24039,0.4808 -0.72115,1.2019 -0.24039,0.7212 -0.48077,1.4423 0,0.4808 0.72115,0.4808 0,0.2404 0.24038,0.2404 -0.72115,0.4808 0.24039,-1.2019 0.96154,-1.6827 0.48077,-1.202 -0.48077,1.202 -0.24039,1.6827 0,0.4808 0.24039,0 0.24038,-0.4807 0.48077,-0.9615 0.24038,-0.7212 0.48077,-1.2019 0.24038,-0.4808 0.72115,0 0.48077,0.4807 0,1.2019 -0.24038,0.4808 0.72116,0.9615 -1.20193,2.6443 -2.40385,5.0481 -1.20192,2.4039 -2.64423,5.0481 l -0.48077,0.2404 -1.20193,2.1634 0,0.4808 0.96154,0.4808 -2.16346,4.8077 -1.92308,2.8846 q -0.48077,0.4808 -0.48077,0.9615 l -0.24039,0 q -0.72115,1.4424 -1.20192,2.8847 -0.48077,1.2019 -1.20193,2.8846 -0.24038,0 -0.48077,0.2404 -0.96154,2.1634 -1.92308,4.0865 -0.96154,1.9231 -2.16346,3.8462 -0.72115,1.2019 -1.44231,2.6442 -0.48077,1.2019 -1.20192,2.4038 -0.48077,1.202 -1.20193,2.4039 -0.48077,1.2019 -0.96154,2.4038 -0.48077,1.4424 -0.72115,2.8847 -0.24039,1.2019 -2.40385,1.6827 -0.72116,1.2019 -1.44231,2.4038 -0.72116,1.2019 -1.20193,2.6442 -1.20192,1.9231 -1.44231,3.3654 0.24039,-0.4807 0.72116,-1.2019 0.48077,-0.7211 0.96154,-1.4423 0.72115,-1.2019 1.20192,-2.1635 0.48077,-1.2019 2.16347,-1.4423 0,0.2404 0.24038,0.2404 1.44231,-2.6442 2.88462,-4.5673 1.44231,-1.2019 2.40385,-2.6442 0.96154,-1.6827 2.16346,-3.125 0.72116,-1.9231 1.6827,-4.0866 0.96154,-2.1634 2.40385,-4.0865 -0.24039,-0.2404 -0.48077,-0.2404 -1.44231,-1.9231 -0.24039,-2.4039 1.44231,-0.7211 2.40385,-1.6827 0.96154,-1.2019 1.44231,-2.6442 0.48077,-1.6827 2.88462,-2.1635 l 0.24039,0.7212 q -1.6827,1.6827 -2.40385,4.0865 -0.48077,2.1635 -2.16347,4.0866 -0.24038,0.7211 -0.72115,1.4423 -0.24039,0.7212 -0.72116,1.4423 0.48077,-0.2404 0.96154,-0.4808 0.48077,-0.2403 0.96154,-0.2403 0.24039,-0.2404 0.48077,-0.2404 l -0.24038,-0.2404 q 0.96154,-0.7212 1.68269,-1.4423 0.96154,-0.7212 1.6827,-1.4423 l 0,-0.4808 q 0,-1.2019 1.20192,-1.2019 0.48077,-0.4808 0.48077,-0.7212 0.24039,-0.2404 0.72116,-0.4808 0.48077,-0.4807 0.72115,-0.4807 0.24039,-0.2404 0.48077,-0.7212 l -0.24038,-0.2404 q 0.24038,-0.2404 0.48076,-0.2404 0.24039,-0.2403 0.48077,-0.7211 l 0,-0.2404 q 0,-0.7211 0.24039,-0.9615 0.48077,-1.6827 1.20192,-2.6443 0.72116,-1.2019 2.40385,-1.2019 1.20193,-1.6827 2.40385,-3.125 1.20193,-1.6827 2.40385,-3.6058 0.96154,-0.9615 1.6827,-0.7211 0.48077,0.9615 0.96154,1.6827 l 0,-0.4808 -0.72116,-1.2019 1.20193,-1.9231 q -0.48077,-1.2019 0.96154,-1.9231 0.24038,-0.4808 0.72115,-0.2404 0.72115,0 1.44231,0.2404 0.72115,0.2404 1.20192,0.4808 0.48077,0.2404 0.96154,-0.2404 l 0.96154,0.2404 q 0.48077,-0.7212 0.48077,-1.2019 0.24039,-0.7212 0.96154,-0.9616 l 0.72116,-0.2404 q 0,-2.1634 1.20192,-1.4423 1.44231,0.4808 2.64424,0.9616 1.68269,1.2019 1.20192,2.1634 0.24039,0 0.48077,0.2404 0.48077,0 0.96154,0 0.96154,0.4808 0.72116,0.7212 -0.24039,0.2404 -0.24039,0.4807 0,0.4808 -1.20192,0.7212 -1.20193,0.2404 -1.20193,0.7212 0.24039,0 0.24039,0.2403 0,0 0.24038,0 l 0.24039,0.2404 q 2.40385,0 1.92308,0.7212 -0.24039,0.7211 0.24038,1.2019 0.48077,0.2404 0.24039,0.4808 0,0 0.48077,0.2404 -0.48077,0.9615 -0.72116,1.6827 0,0.7211 -0.48077,1.6826 l -0.24038,0 0,0.7212 0.48077,0.2404 q -0.48077,0.4808 -0.48077,1.6827 0,0.2404 -0.72116,0.9615 l 0,0.2404 q -0.24038,0 -0.24038,0.4808 l 0.24038,0 q -0.24038,0.2404 -0.24038,0.4807 0,0 -0.48077,0.9616 l -0.24039,0 q -0.48077,1.4423 -0.96154,2.4038 l 0,0.2404 q -0.24038,0.7212 -0.72115,1.4423 -0.24039,0.7212 -0.48077,1.6827 -0.48077,0.4808 -0.24039,0.9616 0.24039,0.4807 -0.96154,0.4807 0,-0.2404 -0.24038,-0.2404 0,0.7212 -0.48077,1.6827 -0.48077,0.4808 -0.48077,0.9616 l 0.48077,0.2404 -1.92308,4.0865 -1.92308,2.1635 q 0,0.2404 -0.24039,0.4807 0,0 0,0.4808 l -0.48077,-0.2404 q -0.24038,0.2404 -0.24038,0.9616 0.48077,0.7211 -0.72116,1.2019 -0.24038,0.7211 -0.48077,1.4423 -0.24038,0.7212 -0.48077,1.4423 l -0.72115,0 q -0.96154,3.6058 -3.36539,6.9712 l -2.16346,4.0865 -2.16347,4.3269 q -0.48077,1.202 -0.72115,2.4039 0,1.2019 -2.16347,1.4423 l 0,-0.2404 q -0.48077,1.2019 -1.20192,2.4039 -0.48077,0.9615 -0.96154,2.1634 -1.44231,1.6827 -1.92308,3.8462 -0.48077,1.9231 -1.68269,3.8462 l -0.72116,1.2019 q 0,0.7211 0.48077,1.2019 -0.48077,1.2019 -1.20192,2.4038 -0.48077,0.9616 -1.92308,1.4424 0,0.4807 -0.48077,1.4423 -0.24039,0.2404 -0.48077,0.4807 0,0.2404 -0.24039,0.4808 l 0.24039,0.2404 -0.24039,0 q -0.24038,0.4808 -0.48077,0.9615 0,0.2404 -0.24038,0.7212 l 0,0.4808 q 0,0.4807 -0.24039,0.4807 -0.48077,1.202 -0.96154,1.6827 -0.48077,0.7212 -0.72115,1.4423 -0.24039,0.7212 -0.72116,1.4423 l 0,0.2404 0,0.2404 0,0.9616 0,0.7211 0.24039,-0.2404 q 0.48077,0.7212 0,1.2019 0,0.9616 -0.48077,1.4424 l 0.24038,0.2403 q 0,0.4808 -0.48077,0.9616 -0.24038,0.4807 -0.48077,0.7211 0,0.4808 0.72116,0.9616 -0.24039,0 -0.48077,0.2404 -1.92308,0 -1.92308,-0.9616 0.96154,-0.2404 1.44231,-1.4423 0,0 -0.96154,0.4808 -0.48077,0.4807 -0.48077,0.7211 0,0.2404 -0.24039,0.7212 -1.20192,1.9231 -2.16346,2.4038 -0.72115,0.4808 -1.20192,-1.4423 l -7.45194,-1.9231 -0.48077,1.202 q -0.48077,1.2019 -0.96154,1.6827 -0.24038,0.4807 -0.72115,-4.0866 -0.72116,-1.6827 0.24038,-3.3654 0.72116,-0.7211 1.6827,-0.7211 -1.20193,-0.7212 0,-1.6827 l 0,-0.2404 q -0.48077,-0.4808 0,-1.6827 0,-1.2019 0.96154,-2.6442 0.48077,-0.4808 1.68269,-0.4808 0.48077,0.4808 0.48077,0.4808 l 0,-0.4808 q 1.92308,-4.5673 3.60578,-9.1346 1.68269,-4.5673 3.125,-9.375 1.20192,-3.6058 2.88462,-6.9712 1.92308,-3.3654 3.60577,-6.7308 0.24039,-1.9231 1.20193,-4.0865 -1.6827,2.6442 -3.60578,5.0481 -1.68269,2.1634 -3.125,4.8077 -1.6827,2.1634 -3.60577,4.8077 -1.92308,2.4038 -3.84616,4.3269 -0.48077,0.4808 -0.72116,0.9615 -0.24038,0.4808 -0.96154,0.4808 -1.20192,2.4038 -2.40385,4.5673 -0.96154,2.1635 -2.16346,4.0866 -0.48077,0.4807 -0.72116,0.9615 -0.24038,0.2404 -0.72115,0.7211 -1.20193,1.4424 -2.40385,2.8847 -0.96154,1.4423 -1.92308,2.6442 -0.24038,0 -0.24038,0.2404 -0.96154,0.9615 -1.44231,1.9231 -0.48077,0.7211 -1.44231,1.6827 -0.48077,0.4807 -1.20193,0.4807 0,0 -0.48077,-0.2404 -0.48077,0.9616 -1.20192,1.6827 -0.48077,0.9616 -0.96154,1.6827 0,0.4808 0.24038,0.7212 l 0,0.2404 q -0.24038,0.4807 -0.48077,0.9615 -0.24038,0.4808 -0.72115,0.9616 0.24038,0.4807 0.24038,0.4807 0.24039,0.2404 0.48077,0.7212 -1.20192,0.7211 -1.44231,1.6827 -0.48077,1.2019 -1.20192,1.6827 -1.20193,0.9615 -1.92308,0 -0.72115,-0.9616 -1.92308,-0.2404 l -0.96154,0 q -0.72115,1.2019 -0.96154,1.4423 l 0,0.9615 q -1.20192,0.7212 -2.16346,0.2404 -0.72116,-0.4808 -2.64424,-0.2404 -0.24038,0 -0.24038,-0.2404 0,-0.2403 -0.24039,-0.2403 0,0 0,-0.2404 l -0.48077,0 q 0,0 -0.48077,0.4807 0,0 -0.48077,0.2404 -0.24038,1.202 -0.48077,2.1635 -0.24038,1.2019 -0.96154,1.9231 l -0.72115,0.7211 -1.20193,-1.2019 0,-0.2404 q -0.72115,0.2404 -1.20192,0.4808 -0.24038,0.4808 -0.96154,0.9615 l 0,0.2404 q -1.20192,0 -0.96154,-0.9615 0,-0.2404 0.24039,-0.4808 0.48077,-0.4808 0.72115,-0.7211 0.48077,-0.2404 0.48077,-0.7212 l -0.48077,-0.4808 q 0.48077,-0.2404 1.44231,-0.2404 l 0.48077,0.4808 0,-0.2404 q -0.24039,0 -0.24039,-0.2404 l 0.24039,0 q 0,-0.2403 0.24038,-0.2403 l 0,-1.6827 q 0.48077,-0.4808 0.48077,-0.9616 -0.48077,0.4808 -1.20192,0.7212 -0.48077,0.2404 -0.96154,0.7211 0,0.2404 -0.24038,0.4808 0,0.2404 0,0.4808 0,0 0.48077,0.4807 -0.24039,0 -0.48077,0 0,0.2404 -0.24039,0.2404 -0.48077,-0.4807 -0.48077,0 0,0.7212 -0.96154,0.7212 l -0.24038,0 -0.48077,-0.4808 q 0,-0.7211 0.48077,-1.2019 0.48077,-0.2404 0.96154,-0.7212 0,-0.2404 0,-0.4807 0.24038,0 0.24038,-0.2404 l 1.44231,-1.4423 q 0.72115,-0.7212 -0.48077,-0.9616 -0.24038,0 -0.48077,0.2404 -0.24038,0.2404 -0.72115,1.6827 l -0.72116,0 q -0.96154,-1.2019 0.24039,-1.6827 0.72115,-0.7211 0.72115,-1.2019 -0.24038,-0.4808 -0.24038,-0.7212 0.24038,0 0.24038,-0.2404 0.72116,-0.2403 0.96154,0 -0.48077,-0.2403 0,-0.7211 l 0.24039,0 q -0.24039,-0.2404 -0.24039,-0.7212 l 0.72116,-0.7211 0.24038,0 q -1.44231,-2.4039 0.72115,-5.2885 0.48077,-1.2019 0.48077,-2.1634 0.24039,-1.202 0.72116,-2.4039 -0.48077,-0.7212 -0.24039,-1.6827 0.24039,-0.9615 0.72116,-1.9231 0.24038,-0.7211 1.44231,-0.7211 -0.72116,-0.9616 0,-1.9231 l 0.24038,-0.2404 q -0.48077,-0.4808 -0.24038,-0.9615 0.24038,-0.4808 0,-0.9616 0.72115,-1.923 1.92308,-3.125 0.48077,-0.4807 1.44231,-0.2404 l 0.48077,0.4808 q 0.24038,-0.2404 0,-0.7211 2.16346,-5.5289 4.08654,-10.577 1.92308,-5.2884 3.60577,-10.8173 1.44231,-4.0865 3.36539,-7.9327 2.16347,-3.8462 3.84616,-7.6923 0.24039,-0.4808 0.24039,-0.7212 0,-0.2404 0.24038,-0.7211 -0.48077,0.7211 -0.96154,1.4423 -0.48077,0.7211 -0.96154,1.2019 -1.92308,2.8846 -4.56731,6.25 -2.40385,3.125 -4.56731,5.7693 -0.48077,0.4807 -0.96154,1.2019 -0.48077,0.7211 -1.44231,0.9615 -1.44231,2.8846 -2.88462,5.7693 -1.44231,2.6442 -3.36539,5.2884 -0.48077,0.4808 -0.96154,1.2019 -0.24039,0.4808 -0.72116,0.9616 -1.44231,1.9231 -2.88461,3.8461 -1.20193,1.6827 -3.12501,3.6058 l 0,0.2404 q -0.72115,1.2019 -1.68269,2.4039 -0.96154,1.2019 -1.6827,2.4038 -0.72115,0.7212 -1.68269,0.7212 l -0.48077,0 -2.88462,4.3269 0,0.7211 0,0.2404 q 0,0.7212 -0.72116,1.2019 -0.48077,0.4808 -0.72115,1.202 0.48077,0.4807 0.48077,1.2019 -0.72116,0.7212 -1.68269,2.1635 -0.24039,1.4423 -1.92308,2.1634 -1.20193,1.4423 -1.92308,0.2404 -0.72116,-0.9615 -1.92308,0 -0.48077,0.2404 -0.96154,0.2404 -0.48077,0.4808 -0.72116,1.2019 -0.24038,0.7212 -0.72115,1.2019 -2.40385,3.125 -3.60578,6.0097 -2.40384,1.2019 -3.36538,3.125 -0.96154,2.1634 -2.64424,4.0865 l -0.48077,0.4808 q -1.20192,0.4808 -1.92308,0.2404 -0.72115,-0.2404 -0.24038,-1.6827 0.48077,-0.7212 0.72115,-1.4423 0.24039,-0.4808 0.48077,-0.9616 0.96154,-1.2019 2.16347,-2.4038 0.96154,-1.2019 1.20192,-3.125 -0.48077,0.4807 -0.72115,0.9615 -0.48077,0.7212 -0.72116,1.2019 -0.96154,0.4808 -1.20192,0.9616 -0.48077,0.4807 -0.96154,0.9615 0,0 -0.24039,0.2404 -1.20192,0 -1.20192,-0.7212 0,-0.2403 0.24038,-0.4807 0,0 0,-0.2404 -0.48077,0.4808 -0.48077,0.4808 -0.48077,-0.4808 -0.48077,-0.7212 0,-0.2404 -0.24038,-0.7211 0,-0.2404 -0.24039,-0.2404 -0.24038,-0.4808 0,-0.7212 0.24039,-0.2404 0.48077,-0.7211 0.24039,-1.202 0.96154,-2.1635 0.48077,-0.7212 1.20193,-1.6827 l -0.96154,0 -0.24039,0.2404 q -0.48077,0.9615 -0.48077,1.6827 -0.24038,0 -0.24038,0 -0.24039,0.2404 -0.48077,0.2404 -1.20193,-1.202 0,-1.6827 0.72115,-0.7212 0.72115,-1.202 -0.72115,-0.4807 0,-1.2019 0.48077,-0.4807 0.48077,0 0,-0.4807 0.24039,-0.7211 -0.24039,-0.2404 0,-0.4808 0,0 -0.24039,-0.2404 l 0.72116,-0.7211 0.72115,0 q 0,0.2403 0.24039,0.2403 l 0,-0.2403 q 0.48077,-0.7212 0.96154,-1.6827 0.24038,-0.7212 0.48077,-1.4423 -0.24039,0.4807 -0.48077,0.9615 -0.24039,0.4808 -0.48077,0.9615 -0.48077,0.4808 -1.44231,0.9616 -0.96154,-2.8846 1.44231,-5.7693 0.48077,-0.9615 1.20192,-1.6827 0.48077,-0.9615 0.96154,-2.1634 -0.48077,-1.202 0,-1.9231 0.48077,-0.9615 0.72116,-1.9231 0.48077,-0.4808 1.68269,-0.4808 -0.48077,-0.9615 0.24038,-1.6826 0,-0.2404 0.24039,-0.2404 -0.24039,-0.4808 0,-0.9616 0.24038,-0.7211 0.24038,-1.2019 0.24039,-0.9615 1.6827,-2.8846 l 0.72115,0 0,-0.2404 q 0,-0.4808 0,-0.7212 0.24039,-0.2403 0.24039,-0.7211 0.24038,-0.2404 0.72115,-0.2404 l 0.48077,0 0,-1.2019 -0.48077,-0.4808 q -0.24038,-0.2404 0,-0.2404 0.48077,-0.2404 0.24039,-0.4807 -0.24039,-0.2404 -0.48077,-0.2404 0,0 -0.24039,-0.2404 0,-0.2404 0,-0.2404 0.24039,-0.2404 0.24039,-0.4808 -0.48077,-0.4807 0.48077,-0.7211 0.24038,-0.4808 0.96154,0 0.72115,0.4807 1.20192,0 l 0.48077,0 q 0,-0.7212 0.24039,-0.7212 l 0.24038,0 q -0.48077,-0.7211 0.24039,-0.7211 0.24038,-0.2404 0.24038,-0.4808 0.24039,-0.2404 0.48077,-0.4808 l 0,-0.2404 q 0,-0.4807 0,-0.7211 0.24039,-0.2404 0.24039,-0.7212 0.24038,-0.2404 0.72115,-0.2404 0.24039,-0.2403 0.24039,-0.4807 0,-0.2404 0.24038,-0.4808 l 0,-0.2404 q -0.24038,-0.2404 -0.48077,-0.2404 l 0,-0.2403 q 0,-0.2404 0.24039,-0.2404 0.24038,-0.2404 0,-0.4808 -0.24039,-0.2404 -0.48077,-0.2404 0,0 -0.24039,-0.2404 0,-0.2404 0,-0.2404 0.24039,-0.2403 0.24039,-0.4807 -0.24039,-0.2404 0.48077,-0.7212 z m -13.94233,44.7116 q 0,-0.2404 -0.24038,-0.4808 l 0,0.2404 q 0.24038,0 0.24038,0 -0.24038,0.2404 0,0.2404 z m 0.24039,-0.4808 -0.48077,0 q 0.24038,-0.2403 0.24038,-0.4807 0,0 0.24039,-0.2404 0,-0.7212 0.72115,-0.7212 l -0.72115,1.4423 z m 1.44231,-3.6057 q 0.24038,0 0.48077,0.2404 l -0.24039,-0.2404 -0.24038,0 z m 3.84615,1.2019 q 0,0 -0.48077,-0.4808 l 0.24039,0 q 0.24038,0 0.24038,0.2404 l 0,0.2404 z m 28.84619,-1.4423 q 0,0 0.48077,-0.2404 l -0.48077,0.7212 0,-0.2404 0,-0.2404 z m 3.12501,-5.5289 q 0.48077,-0.7211 0.72115,-1.4423 0.48077,-0.7211 0.96154,-1.2019 -0.48077,-0.2404 -1.92308,-0.2404 l -0.24038,1.4423 q -0.48077,1.4423 -0.96154,2.8846 -0.24039,1.4424 -0.72116,2.8847 1.44231,-2.1635 2.16347,-4.327 z m 3.125,9.8558 q 0.48077,-0.4808 0.48077,-0.9615 -0.24038,0 -0.24038,0 0,0.2404 -0.24039,0.2404 -0.72115,0.7211 -0.72115,0.9615 l 0.24038,0.2404 q 0,0 0.48077,-0.4808 z m 0.72116,-1.4423 q -0.24039,-0.2404 -0.24039,-0.2404 0.24039,-0.2404 0.48077,-0.2404 -0.24038,0 -0.24038,0.4808 z m 76.68279,-91.1059 -0.24039,0.2404 -0.24038,0 q 0.24038,0 0.48077,-0.2404 z m -0.96154,1.2019 q 0,0 0,-0.4807 l 0,0.2404 0,0.2403 z m 4.56731,13.2212 q -0.96154,0.4808 -0.96154,1.4423 0,0.7212 -0.72115,1.2019 0,0.4808 -0.24039,0.9616 -0.24038,0.4808 0.24039,0.9615 -0.72116,0.7212 -1.20193,1.6827 -0.48077,0.4808 -0.72115,1.2019 0,0.4808 -0.48077,0.9616 -0.48077,-0.2404 -0.48077,-0.4808 0.24038,-0.2404 -0.24039,-0.4808 -0.48077,-0.4807 0.48077,-0.4807 0.24039,-0.4808 0.24039,-0.4808 0.24038,-0.2404 0.48077,-0.7211 0.48077,-0.9616 0.48077,-1.6827 0.24038,-0.7212 0.72115,-1.4424 l 0,-0.2403 q -0.96154,-0.7212 -0.48077,-0.7212 0.72116,-0.2404 0.96154,-0.4808 0.24039,-0.4807 0.24039,-0.9615 0.24038,-0.4808 1.44231,-0.4808 l 0.24038,0.2404 z m -5.76924,10.8173 q -0.24038,0.2404 -0.72115,0.9616 0,0.4807 -0.24039,0.7211 -0.24038,0.2404 0.24039,0.7212 0,0.2404 -0.24039,0.2404 -1.68269,0 -1.68269,-0.9616 1.20192,-0.2404 1.20192,-0.7211 0,-0.7212 0.48077,-1.2019 l 0,-0.2404 0.48077,0 q 0,0 0.48077,0.4807 z m -0.48077,-1.4423 q 1.44231,-0.4807 0.72116,-1.4423 -0.72116,0.7212 -0.72116,1.4423 z"
           style="font-style:normal;font-variant:normal;font-weight:normal;font-stretch:normal;font-size:240.38491821px;line-height:125%;font-family:'Street Gathering';-inkscape-font-specification:'Street Gathering';letter-spacing:0px;word-spacing:0px;fill:#f2f2f2;fill-opacity:1;stroke:none;stroke-width:1px;stroke-linecap:butt;stroke-linejoin:miter;stroke-opacity:1"
           id="path4916"
           inkscape:connector-curvature="0" />
        <path
           d="m 400.78907,1136.1124 q -0.96154,0.4808 -1.6827,1.2019 -0.72115,0.4808 -0.96154,1.6827 l -3.60577,2.4039 q -3.36539,0.7211 -4.08654,4.0865 l 1.92308,0 1.44231,-0.9615 q -0.24039,0.7211 -0.72116,0.9615 -0.24038,0 -0.72115,0.4808 -0.72116,0 -1.20193,0.7211 -0.48077,0.7212 -1.44231,0.7212 0.24039,0 0.24039,0.2404 0.96154,0.7211 1.20192,0.2404 0.24039,-0.4808 0.72116,-0.4808 l 0.48077,0 -1.6827,1.4423 q -1.92308,0.9615 -3.60577,1.6827 -1.6827,0.7211 -2.64424,2.6442 l -0.24038,1.4423 0.96154,0.2404 0.24038,0 q 0,0.7212 0,0.7212 0,0.7211 -0.48077,0.9615 -0.48077,0.2404 0.48077,1.4423 -0.72115,0.4808 -1.44231,0.7212 -0.48077,0.2404 -0.96154,0.7211 -1.4423,1.9231 1.44231,2.6443 0.48077,-0.2404 0.48077,-0.2404 0.24039,0 0.24039,0 0,-0.2404 0.24038,-0.2404 0,0.4808 0.24039,0.7211 0.48077,0.7212 0.96154,1.4424 0.48077,0.4807 0.48077,-0.4808 0.24038,0 0.48077,0.2404 0,0.2404 0.72115,-0.4808 l 0.24039,0.2404 q 0.48077,0 0.96154,0.9615 0.48077,0.9616 0.96154,0.4808 0.48077,0.4808 0.48077,-0.2404 0.24038,-0.2404 0.24038,-0.2404 0.24039,0 0.48077,-0.2404 -0.24038,-0.2403 -0.24038,-0.2403 0,-0.2404 -0.24039,-0.4808 0.24039,-0.4808 0.24039,-0.2404 0.24038,0 0.48077,-0.4808 0,-0.2404 -0.24039,-0.2404 0,0 0,-0.2403 0.72116,-0.7212 0.96154,-1.202 0,0.2404 0,0.2404 0.24039,0 0.24039,0.2404 0.24038,0.2404 0.72115,0.2404 0.72116,-0.7212 1.20193,-0.9615 l 2.16346,-1.4424 0.48077,-0.4807 q 0.72115,-0.7212 1.20192,-0.9616 0.72116,-0.4807 1.20193,-1.4423 0.72115,0.4808 0.72115,-0.2404 0.72116,-0.4807 1.44231,-0.9615 0.72116,-0.4808 1.44231,-1.2019 1.20193,-0.4808 2.40385,-0.7212 1.44231,-0.4807 2.88462,-0.9615 l 1.6827,-0.7212 q 2.40384,1.202 3.36538,0.2404 1.20193,-1.2019 1.92308,-2.8846 l 1.20193,-0.7212 q 0,-1.4423 0.72115,-1.6827 0.96154,-0.4807 1.92308,-0.7211 l 1.92308,-0.7212 q 1.44231,0.7212 1.44231,-0.9615 l 0,-0.7212 q 1.6827,-0.2403 3.84616,-1.2019 -0.48077,0.7212 -0.72115,1.4423 0,0.7212 -0.48077,1.202 -0.48077,0.7211 -0.72116,1.4423 0,0.4807 -0.48077,0.9615 -1.20192,2.6442 -1.92308,5.7692 -0.48077,3.125 -0.96154,6.0097 -0.96154,0.2403 -1.44231,1.2019 -0.24038,0.7211 -0.72115,1.2019 -1.44231,2.8846 -3.36539,6.4904 -1.6827,3.3654 -2.64424,6.4904 -1.44231,4.3269 -3.60577,8.4135 -1.92308,4.0865 -3.60577,8.1731 -2.16347,5.5288 -4.56732,11.0577 -2.40385,5.5288 -5.52885,10.8173 l 0,0.2404 -0.48077,-0.2404 0,0.4808 q 0,-0.2404 -0.24038,-0.2404 -0.96154,-0.4808 -1.6827,0 -0.48077,0.7211 -0.96154,1.4423 -0.48077,0.4807 -0.96154,1.4423 0,0.4808 -0.24038,0.9615 -0.24039,0.7212 0,1.202 l -0.24039,0.2403 q -0.72115,0.7212 -0.24038,1.4423 -0.24039,0.2404 -0.24039,0.4808 -0.96154,-0.2404 -1.68269,0.4808 -0.24039,0.2404 0.96154,0.7211 -0.24039,0.4808 -0.72116,0.9616 -1.44231,2.1634 0.24039,3.8461 1.20192,1.202 1.92308,2.1635 0.72115,0.9615 1.44231,2.1635 1.68269,2.6442 2.64423,5.048 0.96154,2.6443 4.32693,4.327 0.96154,0.2404 1.68269,-0.9616 0.96154,-2.6442 1.92308,-5.048 0.96154,-2.1635 2.16347,-4.8077 2.40385,-0.4808 2.88462,-1.9231 0.48077,-1.4423 0.24038,-3.3654 l 0.72116,-1.4423 q -0.24039,-0.2404 -0.24039,-0.4808 0.24039,-0.4808 0.24039,-0.7211 0.24038,0 0.48077,-0.4808 l -0.48077,-0.2404 q 0.24038,-0.7212 1.20192,-1.6827 0.48077,-0.4808 0.72116,-0.9615 0.24038,-0.4808 0.48076,-0.9616 1.6827,0 0.96154,-1.6827 0,-0.2404 -0.24038,-0.4807 0,0 0,-0.2404 l 3.60577,-4.327 q 0,-0.2403 -0.24038,-0.2403 0.24038,-0.2404 0.48077,-0.2404 3.36539,-1.4423 4.08654,-4.8077 0,-0.4808 -0.24038,-0.7212 0,-0.4807 0,-0.9615 l 1.44231,-1.4423 q 1.44231,-2.4039 2.16346,-5.0481 0.96154,-2.8846 2.88462,-5.0481 0.48077,-1.6827 1.20192,-3.125 0.72116,-1.4423 1.20193,-3.125 l 0.24038,0 q 2.40385,-0.4808 2.40385,-1.9231 0,-1.6827 0.48077,-3.3654 1.20193,-2.8846 2.64424,-5.2884 1.68269,-2.6443 3.125,-5.2885 1.6827,-1.9231 2.16347,-4.5673 0.48077,-2.6443 1.4423,-5.0481 l 0.72116,0 q 0.96154,-1.9231 1.68269,-3.3654 0.72116,-1.6827 1.6827,-3.3654 l 0.24038,0 q 0,-0.2404 0,-0.4807 0.24039,-0.2404 0.24039,-0.4808 0.48077,-0.9616 1.20192,-1.6827 0.72116,-0.7212 1.20193,-1.6827 0.48077,-1.2019 0.96154,-2.6442 0.72115,-1.4423 1.20192,-2.6443 l -1.20192,-0.4807 0,-0.4808 q 0.48077,-0.7212 0.48077,-1.2019 0.24038,-0.7212 0.72115,-1.202 0.24039,-0.2403 0.72116,-0.2403 0.48077,-0.9616 0.72115,-1.6827 0.24039,-0.7212 0.72116,-1.6827 0,0.2403 0.24038,0.4807 1.92308,-0.4807 3.36539,-1.2019 1.68269,-0.9615 3.36539,-1.4423 1.20192,-0.4808 2.40385,-0.7212 1.44231,-0.2403 2.64423,-0.4807 1.20193,-1.202 2.40385,-1.4423 1.44231,-0.2404 2.64424,-0.9616 0.96153,0.2404 1.92307,0 0.24039,0 1.6827,-0.4807 0.72115,-0.2404 1.44231,-0.2404 0.96154,-0.2404 1.68269,0.2404 l 0.24039,-0.4808 q -0.48077,-1.2019 -0.96154,-1.4423 -0.48077,-0.2404 -1.20193,-0.2404 -0.24038,0 -0.48077,0.2404 -0.24038,0 -0.72115,0 l -1.20193,0 q -0.48077,-0.2404 -1.20192,-0.4808 -0.48077,-0.4808 -0.96154,-0.7211 -1.20192,0 -1.44231,1.923 l 0,0.4808 q -2.16346,0.2404 -4.56731,1.2019 -2.16347,0.7212 -4.32693,1.9231 -1.20193,0.2404 -2.16347,0.4808 -0.96154,0 -1.92308,0.4807 -0.96153,-0.4807 -1.4423,-0.4807 0.48077,-0.9616 1.4423,-3.3654 2.40385,-0.9616 4.56732,-1.6827 2.16346,-0.9615 4.32693,-1.6827 1.92308,-0.2404 4.08654,-0.7212 2.16346,-0.7211 4.08654,-1.2019 0.48077,0.4808 0.48077,0.4808 1.20193,-0.4808 2.40385,-0.4808 1.44231,-0.2404 2.64424,-0.4808 l 0,0.4808 q 0.24038,0 0.24038,-0.4808 0,-0.4807 0.24039,-0.4807 0.96154,0.2404 2.40385,0.7211 1.20192,0 1.92308,0.2404 1.20192,0 1.68269,0.2404 l 0.24038,-1.2019 q 0.24039,0 0.24039,0 0,-0.2404 0.24038,-0.2404 0.96154,0.4808 1.44231,0.4808 l 0,0.9615 q 0.96154,0.2404 1.6827,0.7212 0.72115,0.4807 1.68269,0.9615 0.72116,0.4808 1.92308,0.9615 1.20193,0.4808 1.92308,1.202 0.96154,-0.4808 1.20193,-0.2404 0.48077,0.2404 0.96154,0.2404 0.96154,-0.2404 1.44231,0.4807 0.72115,0.4808 1.44231,0.9616 1.4423,0.9615 1.92307,1.4423 0.48077,0.4807 0.48077,0.7211 0,0.2404 -0.24038,0.4808 0,0.2404 0,0.7212 -0.24039,0.9615 0,1.6827 l 0,1.6826 0.72115,0.4808 q 0,0 0,0.9616 l 0,0.9615 0,0.2404 0.48077,0.4808 q 0,0.4807 -0.24038,0.9615 0,0.2404 0,0.7211 0,0.4808 -0.24039,0.9616 0,0.2404 0,0.7211 l -0.72115,0 q -0.72116,0.7212 -0.72116,0.9616 l -0.48077,1.2019 -0.48077,0.9615 -0.24038,0.9616 -0.72115,0.9615 q -0.72116,1.6827 -1.6827,3.125 -0.96154,1.4423 -1.92308,2.8846 -0.48077,0.7212 -1.44231,1.6827 -1.20192,1.9231 -2.64423,4.0866 -1.44231,1.9231 -2.64424,4.0865 -0.72115,0 -1.20192,0.4808 -0.48077,0.2404 -0.96154,0.7212 -1.92308,1.923 -4.56731,3.8461 -2.40385,1.9231 -4.32693,3.8462 -1.44231,1.2019 -2.88462,2.1634 -1.44231,0.9616 -3.12501,2.1635 -0.72115,0.4808 -1.4423,0.9615 -0.72116,0.2404 -1.6827,0.7212 -0.72115,0.4808 -1.68269,0.9615 -0.72116,0.4808 -1.44231,0.9616 -1.20193,0.4807 -2.40385,1.2019 -0.96154,0.4808 -2.16347,0.9615 -1.20192,0.4808 -2.40385,1.202 -0.96154,0.4807 -2.16346,0.9615 -1.20192,0.4808 -2.40385,0.9615 -0.96154,0.2404 -2.16346,0.7212 -2.64424,0.9615 -4.8077,1.2019 l 0,-0.2404 q -0.24039,0 -0.24039,0.2404 0,0 -0.24038,0 0.24038,-0.2404 0.24038,-0.2404 -0.48077,-0.4807 -0.96154,-0.4807 -1.68269,0 -2.64423,0.2404 -0.48077,0.2403 -0.96154,0.2403 -0.24039,0 -0.48077,0.4808 l -0.24039,0 q -0.96153,0 -1.20192,0.2404 l -0.48077,0 q 0,0 -0.96154,-0.4808 -0.24038,0 -0.24038,0.7212 l -0.72116,0 q -2.16346,0 -2.64423,1.2019 -0.24039,0.7212 -0.96154,1.4423 -0.48077,0.4808 -0.96154,1.2019 -1.20193,1.202 -2.88462,2.1635 -1.6827,0.9615 -1.92308,2.8846 0.24038,0.4808 1.68269,0.4808 l 2.40385,0 1.20193,0 q 0.24038,-0.2404 1.20192,-0.2404 1.20193,-0.2404 2.16347,-0.2404 1.20192,0 2.40385,-0.2404 0.96154,0.4808 2.88461,0.4808 1.92308,-0.4808 2.88462,-1.2019 l 1.20193,-0.2404 q 0.24038,0 0.24038,0 0,-0.2404 0.24039,-0.2404 l 1.20192,-0.2404 0,-0.2404 q 0.48077,-0.2403 1.6827,-0.2403 l 1.92308,-0.4808 q 1.20192,0.4808 1.92308,-0.4808 l 0.24038,-0.2404 q 1.44231,-0.4807 2.40385,-0.4807 l 2.40385,-0.4808 0,-0.2404 0.48077,0 q 1.92308,0 2.64423,-0.2404 1.44231,-0.2404 2.64424,-1.2019 0.48077,-0.2404 0.48077,-0.4808 0.24038,-0.2404 0.48077,-0.4807 l 1.68269,-0.4808 q 1.20193,-0.4808 2.16347,-0.9616 1.20192,-0.7211 2.40384,-1.2019 l 2.16347,-1.4423 q 0.48077,-0.2404 0.96154,-0.4808 0.72115,-0.2403 1.20192,-0.4807 2.88462,-1.6827 5.04809,-3.6058 l 0.24038,0 q 1.44231,0.2404 2.40385,-0.7212 0.96154,-1.2019 1.92308,-2.1634 2.16346,-1.9231 4.32693,-3.3654 2.16346,-1.6827 4.08654,-3.6058 1.92308,-1.2019 3.12501,-3.125 1.44231,-1.9231 3.125,-3.8461 0.24038,0 0.48077,-0.2404 0.72115,-0.7212 2.16346,-2.6443 0.48077,-0.7211 1.92308,-2.6442 l 0.24039,0 q 0,-0.4808 0.48077,-0.9615 l 2.16346,-2.8847 q 0.72116,-1.2019 1.20193,-2.4038 0.48077,-0.7212 0.72115,-1.2019 0.24039,-0.7212 0.48077,-1.4423 l -0.48077,-0.2404 0,-0.4808 q 0.48077,-0.7212 0.96154,-2.1635 l 0.48077,-0.4807 q 2.16347,-5.7693 2.16347,-12.5 -0.24039,0 -0.72116,-0.4808 0,-0.4808 -0.24038,-0.7212 0.96154,-0.4807 1.20192,-1.2019 0.48077,-0.7212 -0.96154,-1.9231 l 0.24039,-0.7211 q 0.48077,-1.202 -0.24039,-1.9231 -0.72115,-0.7212 -1.20192,-1.6827 l 0.72115,-0.9615 q -0.24038,-0.7212 -1.20192,-0.7212 -0.72116,-0.2404 -0.24039,-0.7212 1.6827,-1.2019 0.96154,-2.8846 -1.92308,-2.1634 -3.125,-3.125 -1.20193,-1.2019 -1.92308,-1.4423 -0.72116,-0.2404 -0.96154,0 -0.24039,0.2404 -0.48077,0.2404 -0.48077,-0.4808 -0.96154,-0.9615 -0.24039,-0.7212 -0.72116,-0.4808 -1.44231,0.7211 -1.92308,0.7211 -0.24038,-0.2403 -0.24038,-0.4807 0.24038,-0.4808 0.48077,-0.9616 0.48077,-0.4807 0.24038,-0.4807 -0.24038,0 -0.24038,0 0,-0.2404 -0.24039,-0.2404 -0.24038,0 -0.48077,0.2404 -0.24038,0 -0.48077,0 -2.64423,-1.6827 -6.00962,-2.8847 l 0,-1.2019 q -0.48077,-1.2019 -1.68269,-1.9231 -1.92308,-0.7211 -3.84616,-1.2019 -1.6827,-0.7211 -3.60578,-1.2019 l -0.24038,0 q -6.25001,-1.4423 -12.01925,-0.7212 -0.72115,0 -1.44231,0.2404 -0.72115,0 -1.68269,0 -1.68269,0.4808 -2.88462,0.4808 -0.96154,0 -2.16346,0 -0.96154,0 -1.92308,0.2404 -0.96154,0.2404 -2.16347,1.2019 -0.96154,-0.4808 -1.92308,-0.2404 -0.72115,0.2404 -1.44231,0.4808 -1.92307,0.7211 -3.84615,1.6827 -1.92308,0.7211 -3.84616,1.4423 -1.20193,-0.4808 -2.64424,-0.7212 -1.44231,-0.2403 -0.96154,2.1635 -0.48077,0 -0.96154,0.2404 -0.72115,0.2404 -0.96154,0.9615 -2.16346,1.202 -4.08654,1.9231 -0.72115,-0.2404 -1.44231,-0.2404 -0.72115,0 -1.20192,0.7212 -0.72116,0.7211 -0.96154,1.2019 -1.92308,0.9615 -3.60578,1.9231 -1.68269,0.7211 -3.36539,1.9231 -4.80769,3.3653 -9.61539,6.4904 -4.8077,3.125 -9.6154,6.0096 l -0.48077,0.4807 q -0.24038,-0.2403 -0.24038,-0.9615 -0.72116,-0.7212 -1.44231,-0.7212 -1.92308,0.4808 -2.88462,1.4424 -0.48077,0.4807 -0.96154,0.7211 -0.24039,0.2404 -0.24039,0.9616 l -0.24038,0 q -1.20193,0.4807 -1.20193,1.4423 -0.96154,-0.9616 -1.68269,-0.4808 z m -0.72116,7.2115 q -1.44231,-0.4807 -1.44231,0.7212 l 0.48077,0 q -0.24038,0.2404 -0.24038,0.2404 -1.44231,0.7211 -2.88462,1.4423 -1.44231,0.4808 -2.88462,1.2019 l 0,-0.2404 0,-0.2404 q 0.72116,-0.2403 1.44231,-0.7211 0.72116,-0.4808 1.20193,-0.9615 0.96154,-0.4808 1.4423,-0.4808 0.72116,0 0.72116,-0.2404 -0.24039,-0.4808 0,-0.4808 0.24038,-0.2404 -0.24039,-0.9615 -0.72115,0.2404 -2.16346,1.2019 l -1.44231,0.7212 3.60577,-2.4039 0.96154,-0.7211 q 1.6827,1.2019 1.44231,1.923 z"
           style="font-style:normal;font-variant:normal;font-weight:normal;font-stretch:normal;font-size:240.38491821px;line-height:125%;font-family:'Street Gathering';-inkscape-font-specification:'Street Gathering';letter-spacing:0px;word-spacing:0px;fill:#f2f2f2;fill-opacity:1;stroke:none;stroke-width:1px;stroke-linecap:butt;stroke-linejoin:miter;stroke-opacity:1"
           id="path4918"
           inkscape:connector-curvature="0" />
        <g
           style="fill:#f2f2f2"
           transform="matrix(0.94126844,0,0,0.94126844,87.765959,35.988415)"
           id="g4973">
          <path
             inkscape:connector-curvature="0"
             id="path4826"
             d="m 430.5257,1235.6504 c -0.0914,-0.053 -0.0964,-0.8031 -0.0964,-14.533 0,-12.0652 0.0124,-14.4876 0.0741,-14.5389 0.10077,-0.084 30.3448,-0.088 30.50099,0 0.10418,0.056 0.10598,0.3037 0.10598,14.5397 0,14.1879 -0.002,14.484 -0.10498,14.539 -0.14547,0.078 -30.34515,0.076 -30.47974,0 z m 22.84523,-5.6445 c -0.95869,-2.9569 -1.7318,-5.4057 -1.71802,-5.4416 0.0138,-0.036 2.09778,-1.5759 4.63112,-3.4223 2.53333,-1.8465 4.60606,-3.3766 4.60606,-3.4005 0,-0.024 -2.57484,-0.043 -5.72186,-0.043 -4.51043,0 -5.73391,-0.015 -5.77876,-0.069 -0.0313,-0.038 -0.84355,-2.4856 -1.80503,-5.4395 -0.96148,-2.9538 -1.76699,-5.3918 -1.79003,-5.4178 -0.023,-0.026 -0.0663,0 -0.0961,0.055 -0.0298,0.056 -0.82855,2.4819 -1.77496,5.3903 -0.94642,2.9084 -1.74317,5.3313 -1.77057,5.3843 -0.0469,0.091 -0.37842,0.096 -5.78107,0.096 -4.48285,0 -5.72639,0.015 -5.70888,0.067 0.0123,0.037 2.0832,1.5675 4.60197,3.4013 2.51877,1.8338 4.59015,3.3601 4.60306,3.3917 0.0129,0.032 -0.75321,2.4484 -1.70247,5.3706 -0.94927,2.9222 -1.741,5.3721 -1.7594,5.4442 -0.0273,0.1071 -0.0153,0.1263 0.0658,0.1048 0.0546,-0.014 2.08222,-1.4622 4.50586,-3.2172 2.42365,-1.755 4.48835,-3.2486 4.58824,-3.319 l 0.18162,-0.1281 0.20396,0.1358 c 0.11218,0.075 2.21173,1.5908 4.66567,3.3691 3.07908,2.2314 4.46715,3.2071 4.47928,3.1485 0.01,-0.047 -0.76681,-2.5042 -1.7255,-5.4612 z"
             style="fill:#f2f2f2" />
          <path
             style="fill:#f2f2f2;fill-opacity:1"
             d="m 461.20682,1235.6504 c -0.0914,-0.053 -0.0964,-0.8031 -0.0964,-14.533 0,-12.0652 0.0124,-14.4876 0.0741,-14.5389 0.10077,-0.084 30.3448,-0.088 30.50099,0 0.10418,0.056 0.10599,0.3037 0.10599,14.5397 0,14.1879 -0.002,14.484 -0.10498,14.539 -0.14548,0.078 -30.34515,0.076 -30.47974,0 z m 22.84523,-5.6445 c -0.95869,-2.9569 -1.7318,-5.4057 -1.71802,-5.4416 0.0138,-0.036 2.09777,-1.5759 4.63111,-3.4223 2.53334,-1.8465 4.60606,-3.3766 4.60606,-3.4005 0,-0.024 -2.57483,-0.043 -5.72186,-0.043 -4.51043,0 -5.73391,-0.015 -5.77875,-0.069 -0.0313,-0.038 -0.84356,-2.4856 -1.80504,-5.4395 -0.96147,-2.9538 -1.76699,-5.3918 -1.79002,-5.4178 -0.023,-0.026 -0.0663,0 -0.0961,0.055 -0.0298,0.056 -0.82855,2.4819 -1.77496,5.3903 -0.94641,2.9084 -1.74317,5.3313 -1.77056,5.3843 -0.047,0.091 -0.37843,0.096 -5.78107,0.096 -4.48286,0 -5.72639,0.015 -5.70889,0.067 0.0123,0.037 2.0832,1.5675 4.60198,3.4013 2.51877,1.8338 4.59014,3.3601 4.60305,3.3917 0.0129,0.032 -0.7532,2.4484 -1.70247,5.3706 -0.94927,2.9222 -1.741,5.3721 -1.75939,5.4442 -0.0273,0.1071 -0.0153,0.1263 0.0658,0.1048 0.0546,-0.014 2.08222,-1.4622 4.50587,-3.2172 2.42364,-1.755 4.48835,-3.2486 4.58824,-3.319 l 0.18161,-0.1281 0.20397,0.1358 c 0.11218,0.075 2.21173,1.5908 4.66567,3.3691 3.07908,2.2314 4.46715,3.2071 4.47927,3.1485 0.01,-0.047 -0.76681,-2.5042 -1.72549,-5.4612 z"
             id="path4828"
             inkscape:connector-curvature="0" />
        </g>
        <path
           d="m 440.48765,1230.3305 q -0.15883,0 -0.63531,0.4765 -0.31765,0.3176 -0.6353,0.4764 -0.31765,0.1589 -0.47648,0.4765 0,0.3177 -0.31765,0.6353 l -0.47648,0.6353 -0.15882,0.1588 -1.11178,0.6353 0.15882,0 -0.47647,0.4765 q -0.31766,0.3177 -0.47648,0.3177 -0.15883,0.1588 -0.95296,0.3176 l -0.15882,0 q -0.31765,-0.3176 -0.31765,-0.4765 0.15882,-0.3176 0.15882,-0.6353 l 0,-0.6353 1.42943,-0.7941 -0.15882,0 0.47648,-0.6353 q 0.31765,-0.3176 0.6353,-0.6353 0.31765,-0.3176 0.6353,-0.6353 -0.31765,-1.1118 0.63531,-0.7941 l 0.15882,0 q 0,0 0.31765,-0.1589 0.15883,-0.3176 0.47648,-0.4764 0.47648,-0.1589 1.58826,0.6353 l 0,0.1588 -0.31765,0.4765 z m -8.41777,5.5589 q -0.31765,0.3176 -0.15883,0.9529 0,0.1589 -0.15882,0.1589 l -0.6353,-0.1589 -0.15883,0 q -0.95296,-0.9529 -0.95296,-1.4294 0,-0.4765 0.31766,-1.1118 l 0.15882,0 0.15883,0 q 0.47648,0.4765 0.79413,0.1588 0.15882,-0.1588 0.31765,-0.1588 0.31765,-0.1588 1.2706,0 0.31766,0.3177 0,1.1118 l -0.15882,0.1588 -0.6353,0.1589 -0.15883,0.1588 z m 0.79413,-2.0648 q 0.15882,-0.3176 0.31765,-0.6353 0.31765,-0.3176 1.11178,-0.1588 l 0.15883,0.1588 q 0.15882,1.2706 -0.47648,1.2706 -0.47648,-0.1588 -1.11178,-0.4764 l 0,-0.1589 z m 12.22958,-23.0297 0.31766,0.6353 0,0.1588 q -0.15883,0.1589 -0.31766,0.3177 -0.15882,0.1588 -0.95295,0.4765 -0.6353,0 -0.95296,0.1588 l -1.2706,0.4765 -0.63531,0.7941 q -0.31765,0.6353 -0.79412,0.6353 -0.31766,0.3177 -1.11178,0.3177 -0.15883,0.1588 -0.47648,0.3176 -0.15883,0 -0.47648,0.3177 l 0,-0.1589 q 0,0.1589 -0.15882,0.1589 0,0 0,0.1588 0.6353,0 0.95295,0.3176 0.15883,0.1589 0.6353,0.4765 0.47648,0.1588 0.79413,0.1588 0.15883,0 0.15883,0.1589 l -0.63531,1.4294 q 0.31766,0.3176 0.79413,0.7941 0.47648,0.4765 0.47648,0.7942 0,0.1588 0.15883,0.3176 l 0,0.1588 q 0,0.3177 0.31765,0.953 l 0.31765,0.4765 0,0.1588 -0.79413,1.9059 -0.79413,0.953 -0.15882,0.3176 0.31765,0.4765 -0.95296,1.9059 -0.47647,0.3176 -0.47648,0.6353 -0.15883,0 -0.6353,0.3177 q -0.31765,0.6353 -1.58826,1.5883 l 0.15883,0 -1.90591,1.9059 0,-0.1589 q -0.6353,1.1118 -1.58826,0.4765 -0.31765,0.1588 -0.47648,0.4765 -0.15882,0.1588 -0.47647,0.3176 -0.31766,0 -0.95296,0.6353 l -0.6353,0.4765 -0.15883,0 -0.31765,-0.1588 0,0.6353 q -0.31765,0.3177 -0.95295,0.1588 -0.63531,0 -1.11178,-0.3176 -0.63531,0.3176 -0.79413,0.3176 l 0,-0.1588 q -0.31765,0.3177 -0.63531,0.3177 -0.31765,0 -0.6353,0 l -0.31765,0.3176 q -0.15883,0.7941 -0.6353,1.1118 -0.47648,0.4765 -1.58826,-0.4765 l 0.15882,0 q -2.22356,-0.4765 -3.97064,0.1588 l -0.15883,0 q -0.6353,-0.4764 -1.11178,-0.4764 l -1.2706,0 q -1.42943,-0.7942 -0.31765,-1.906 l 0.15882,0 q 0.15883,0 0.31765,0 0.15883,-0.1588 0.47648,-0.1588 0.15883,0 0.47648,-0.3176 -0.31765,-0.3177 -0.47648,-0.3177 -0.6353,0.3177 -1.27061,-0.3176 l 0,-0.953 q 0.31766,-0.9529 1.74709,-0.9529 l 0.47647,-0.3177 1.27061,0 -0.6353,-0.6353 -0.95296,0.6353 -0.15882,0 -0.63531,-0.6353 0,-0.1588 q 0,-1.4295 1.11178,-1.2706 l 0.47648,-0.1589 q 0,-0.4764 0.47648,-0.9529 0.47648,-0.4765 0.6353,0 l 0.31765,-0.3177 q 0.31766,-0.3176 1.27061,0 l 0.15883,0 0.6353,0.6353 q 1.58826,-0.7941 3.01769,-2.2235 l 1.58826,-1.1118 q 0.95295,-0.6353 1.42943,-1.2706 l 1.74708,-1.9059 q 0.15883,-0.1588 0.15883,-0.3177 0,-0.1588 0.31765,0.1589 l 0,-0.3177 q -0.47648,0 -0.79413,-0.1588 -0.47648,0 -0.47648,-0.3177 -0.31765,0.1589 -0.95295,0.3177 -0.47648,0.1588 -1.11178,0 -0.6353,0 -1.42943,-0.1588 -0.15883,-0.1589 -0.31766,-0.1589 -0.31765,0 -0.6353,-0.3176 -0.15882,0 -0.31765,0.1588 0,0 -0.15883,0 l 0.15883,0 -0.31765,0.4765 -0.15883,0 q -0.31765,0 -0.95295,-0.3177 -0.15883,0 -0.15883,-0.7941 l 0,-0.953 q -0.31765,0 -0.47647,-0.4764 -0.15883,-0.6353 0,-1.1118 0.15882,-0.953 0.47647,-0.953 l 0.63531,-0.4764 0,-0.1589 q 0,0 0.15882,-0.3176 0,-0.1588 0,-0.1588 0.15883,0 0.15883,-0.1589 0,-0.1588 -0.15883,-0.1588 0,-0.1588 0,-0.3177 l -0.47648,-1.2706 q -0.6353,-1.2706 0,-1.747 0.47648,0 0.79413,-0.1589 0,0 0.31765,-0.6353 l 1.11178,0 0.79413,0.7942 q 0.47648,-0.3177 1.27061,-0.7942 0.95295,-0.6353 1.42943,-1.1117 l 0.47648,-0.4765 1.27061,-0.953 q 0.95295,-0.6353 1.42943,-1.1118 l 0,0.1589 q 0.31765,-0.4765 1.42943,-1.1118 l 0.95295,-0.4765 -0.15882,0 q 0.15882,-0.1588 0.79413,-0.1588 l 0.79413,-1.7471 0.95295,-0.4765 0.95296,-0.6353 q 0.6353,-0.3176 1.2706,-0.9529 0.31765,-0.3177 0.31765,0.1588 0,0.1588 0.63531,0.1588 0,-0.1588 0.15882,-0.3176 0.15883,-0.1589 0.15883,-0.3177 0,-0.4765 0.15882,-0.6353 0,-0.3176 0,-0.4765 0.15883,-0.1588 0.15883,-0.4764 l 0,-0.1589 q 0.79413,-0.4765 1.11178,-0.3176 0.31765,0.1588 0.6353,0.4765 0.31765,0.9529 0.95296,1.2706 l 0.6353,0 q -0.15883,-1.5883 0.47648,-0.6353 0.6353,0.9529 1.2706,2.0647 0.79413,1.7471 0.15883,1.7471 0,0.1588 -0.15883,0.3176 0,0 0,0.1589 0,0.1588 -0.15882,0.3176 0,0.1588 0.31765,0.6353 l 0,-0.1588 q 0.95295,1.2706 0.79413,2.0647 0,0.6353 -0.31765,0.953 l 0.31765,0.3176 q 0,0.4765 0.15882,0.953 l 0,0.1588 -1.58825,1.4294 -0.15883,0 -0.31765,-0.1588 -0.15883,0 z m -24.77682,23.0297 q 0.31765,0 0.47648,-0.1588 l 1.42943,-0.6353 -0.47648,-0.3176 q -0.31765,0 -0.6353,0 -0.31765,0 -0.47648,-0.1589 -0.31765,-0.1588 -1.11178,-0.1588 0,0 -0.31765,0.3177 0,0.3176 0.15883,0.3176 l 0.15882,0 0.79413,0.7941 z"
           style="font-style:normal;font-variant:normal;font-weight:normal;font-stretch:normal;font-size:158.82577515px;line-height:125%;font-family:'Street Gathering';-inkscape-font-specification:'Street Gathering';letter-spacing:0px;word-spacing:0px;fill:#f2f2f2;fill-opacity:1;stroke:none;stroke-width:1px;stroke-linecap:butt;stroke-linejoin:miter;stroke-opacity:1"
           id="path4978"
           inkscape:connector-curvature="0" />
        <path
           d="m 472.81365,1212.8596 0,0.4765 q 0,0 0.31765,0.1588 l 0.15883,0.1589 -0.79413,1.7471 -0.79413,1.1117 q -0.15882,0.1589 -0.15882,0.3177 0,0.4765 -0.47648,0.6353 -0.15883,0.3176 -0.15883,0.7941 0,1.1118 -0.47647,1.5883 l -0.47648,0.6353 q -0.31765,0.3176 -0.6353,0.9529 -0.15883,0.4765 -0.31766,0.953 0,1.1118 -0.95295,1.1118 l 0,1.5882 q -0.31765,0.3177 -0.47648,0.4765 0,0.1588 -0.15882,0.4765 l -0.79413,1.2706 q 0.15882,0.1588 0.15882,0.6353 0,0.9529 -1.42943,1.4294 l 0.15883,0 -0.63531,0.6353 q 0.31766,0.3177 -0.15882,0.6353 -0.31765,0.3177 -0.79413,0.4765 0,0 -0.15883,0.3177 0,0.1588 -0.15882,0.3176 0,0 0,0.3177 0,0.3176 -0.15883,0.9529 -0.15882,0.4765 -0.79413,0.6353 -0.31765,0.3177 -0.31765,0.953 l 0,0.1588 q -0.31765,0.3177 -0.31765,0.953 0,0.6353 -0.79413,0.4764 -2.54121,-1.1117 -3.49417,-2.3824 l -1.11178,-0.9529 -2.06473,-1.5883 q -0.79413,-0.4764 -0.79413,-1.5882 -0.31765,-0.6353 0.6353,-0.6353 l 0,-0.4765 q 0,-0.1588 0.31765,-0.7941 l 0.15883,-0.1589 0.47648,-0.3176 q 0.47647,0 1.11178,0.3176 0.47648,-0.9529 0.95295,-2.3823 0.47648,-1.4295 0.79413,-2.3824 l -0.15882,0.1588 q 0,0.4765 -0.63531,1.1118 l -0.95295,0.9529 0,-0.1588 q -0.15883,0.3177 -0.31765,0.6353 -0.15883,0.1588 -0.47648,0.4765 l 0.15882,0 -0.6353,0.6353 q -0.31765,0.3176 -0.79413,0 0,0.1588 -0.15882,0.3176 0,0 0,0.1589 0,0.1588 -0.15883,0.3176 0,0 0,0.1588 l 0.15883,0.6353 0,0.1589 q -0.15883,0 -0.15883,0.1588 -0.15882,0.1588 -0.15882,0.3176 0,0 -0.15883,0.1589 -0.47648,0.4764 -1.27061,-0.4765 l 0,0.4765 q -0.31765,1.9059 -0.95295,2.8588 l -0.31765,0.3177 -1.90591,4.1295 0,0.6353 q 0,1.2706 -1.27061,1.9059 l -1.2706,3.1765 -0.79413,1.9059 q -0.31765,0.3176 -0.31765,0.4765 -0.15883,0.3176 -0.15883,0.4764 0,0.3177 -0.15883,0.6354 -0.15882,0.3176 -0.15882,0.6353 l -0.47648,0.6353 q 0,0.1588 0.15883,0.1588 0,0.1588 0,0.3176 -0.15883,1.5883 -1.90591,2.7001 l 0,-0.1589 q 0,0.1589 -0.15883,0.3177 -0.15882,0.1588 -0.15882,0.3177 -0.31766,0.3176 -0.47648,1.1117 -0.31765,0.953 -0.47648,0.6353 0,0.6353 -0.47648,0.7942 -0.15882,0.1588 -0.15882,0.1588 0,0.1588 -0.15883,0.3176 l -0.31765,0.3177 q 0,0.1588 0,0.3176 -0.15883,0.1589 -0.15883,0.3177 0,0.1588 0,0.1588 -0.15882,0.1588 -0.15882,0.3177 0,0.1588 0,0.1588 -0.15883,0.1588 -0.15883,0.3177 0,0.7941 -0.31765,1.5882 -0.47648,0.953 -1.2706,1.2706 -0.15883,0.1588 -0.15883,0.4765 0,0.1588 -0.15883,0.3176 l -1.11178,3.1766 q 0,0.7941 -0.95295,0.7941 -1.42943,-0.7941 -2.06474,-1.5883 -0.79413,-0.7941 -1.2706,-1.7471 l -0.79413,-1.1117 0,0.1588 q -0.31765,-0.4765 -0.6353,-0.953 -0.47648,-0.4764 -1.11178,-0.9529 -0.63531,-0.4765 -0.63531,-1.1118 0,-0.6353 0.15883,-1.2706 -0.95296,0 0,-0.4765 l 0.15882,0.3177 q 0.31766,-0.3177 0.47648,-0.3177 0,-0.4765 0.31765,-1.1118 l 0,-0.6353 q 0.31765,-1.1117 0.79413,-1.5882 0.15883,-0.1588 0.47648,-0.1588 0.31765,0 0.6353,0 0.95296,-1.906 2.22356,-4.7648 1.11178,-2.8589 1.74709,-4.606 0.31765,-0.7941 0.6353,-1.7471 0.31765,-0.7941 0.6353,-1.5882 0.95296,-2.2236 1.42943,-4.1295 0.31766,-1.2706 0.79413,-2.5412 0.47648,-1.4294 1.27061,-3.0177 l 0.31765,-0.4765 q 0.31765,-0.7941 0.79413,-0.9529 0.15883,-1.2706 0.31765,-2.7001 0.15883,-1.4294 0.47648,-2.3823 l 0.47648,-1.1118 q 0.15882,-0.4765 0.47647,-1.1118 0.15883,-0.6353 0.31765,-0.953 0,-0.1588 0.31766,-0.7941 l 0.31765,-0.9529 0.95295,-1.9059 q 0.31765,-0.7942 1.27061,-0.7942 0,-0.6353 0.15882,-0.7941 0,-0.3177 0.31766,-0.6353 -0.47648,-0.4765 -0.47648,-0.7941 0,-0.4765 0.15882,-0.953 -0.15882,-0.1588 -0.31765,-0.1588 -0.15882,-0.1588 -0.31765,-0.4765 l 0,-0.1588 0.6353,-1.1118 q 0,-1.1118 0.31766,-1.4294 0.31765,-0.6353 1.74708,-0.3177 0.15883,0.1588 0.47648,0.1588 0.15882,0 0.31765,0.1589 l 0.79413,-0.6353 q 0,-0.4765 0.79413,-0.953 0.15882,-1.4294 2.22356,-0.6353 1.11178,0.4765 1.11178,1.1118 0,0.4765 -0.31765,1.1118 l 0,1.7471 0.6353,0.4764 q 1.27061,0.1589 1.74708,0.7942 0.47648,0.4764 0.31765,1.2706 0,0.1588 0.31766,1.1117 l 0.47647,0.4765 q 0.15883,-0.1588 0.31765,0 0.31766,0 0.63531,0 0,0 0.31765,-0.3176 -0.15883,-0.3177 1.11178,-0.3177 0.31765,0 0.31765,-0.3176 -0.15882,-1.1118 0.47648,-0.953 l 0.79413,-1.7471 0,0.1589 0.6353,-1.2707 0.15883,-0.1588 q 0.15882,0 0.31765,0 0.15882,-0.1588 0.47648,-0.1588 l 0,-0.6353 q -0.15883,0 -0.15883,-0.1588 -0.15883,-0.1589 -0.15883,-0.4765 l 0.15883,-0.3177 q -0.15883,-0.1588 -0.47648,-0.3176 -0.15882,-0.3177 -0.31765,-0.6353 l 0,-0.1588 0.31765,-0.3177 q 0,-0.7941 0.63531,-0.7941 0.31765,-0.1588 1.42943,0.1588 0.31765,0.1588 0.79413,0.1588 l 0.31765,-0.1588 q 0,-0.3176 0.31765,-0.4765 0,-0.6353 1.11178,-0.3176 0.31765,0.3176 0.79413,0.3176 1.58826,0.7942 1.11178,1.5883 0,0 0.15882,0.3176 l 0,0.1589 q 0,0.1588 0.15883,0.3176 l 0.47648,0.4765 -0.15883,0 q 1.90591,0.3176 2.22356,0.9529 0.31765,0.4765 0.31765,0.7942 0,0.1588 0.31766,0.7941 l 0,-0.1588 q 0,0.3176 0.31765,0.3176 l 0.15882,0.1589 0.15883,0.1588 -0.95296,3.0177 q 0,0.1588 -0.15882,0.1588 l -0.15883,-0.3177 z"
           style="font-style:normal;font-variant:normal;font-weight:normal;font-stretch:normal;font-size:158.82577515px;line-height:125%;font-family:'Street Gathering';-inkscape-font-specification:'Street Gathering';letter-spacing:0px;word-spacing:0px;fill:#f2f2f2;fill-opacity:1;stroke:none;stroke-width:1px;stroke-linecap:butt;stroke-linejoin:miter;stroke-opacity:1"
           id="path4980"
           inkscape:connector-curvature="0" />
        <path
           d="m 501.8887,1209.0478 -0.15883,0.6353 -0.31765,0.4765 -1.42943,2.8589 q 0.15883,-0.1589 0,0.1588 0,0.1588 -0.15882,0.3176 -0.31766,0.7942 -0.47648,0.7942 l -1.58826,0.7941 0.15883,0 -0.95296,1.2706 0,-0.1588 q -0.31765,0.4765 -0.6353,0.4765 l -0.79413,0.9529 q -0.47648,0.1588 -0.79413,0.3177 -0.31765,0.1588 -0.79413,0.9529 l -0.15882,0 -0.47648,0.3177 0.15882,0 -0.47647,0.4765 q -0.15883,0.1588 -0.79413,0.3176 -0.47648,0 -0.79413,0 -0.47648,0.4765 -0.95296,0.4765 -0.15882,0.1588 -1.2706,0.4765 l -0.47648,0.4764 q -0.79413,0.7942 -1.74708,0.4765 l -2.38239,0.7941 q -0.15882,0 -0.15882,-0.1588 l -0.31766,-2.7 -0.6353,0.9529 q -0.31765,0.7942 -1.11178,0.7942 -0.31765,0.3176 -0.47648,0.7941 -0.15882,0.3176 -0.47647,0.6353 -0.79413,0.4765 -0.95296,1.5883 l -1.11178,1.1117 0.31765,0.3177 0,0.1588 q -0.15882,1.1118 -1.74708,1.5883 l -0.31765,0.1588 1.90591,-0.7941 -0.15883,0 q 0.47648,-0.4765 1.58826,-0.7942 -0.15883,0.1589 0.6353,-0.1588 0.95296,-0.4765 1.42943,-0.7941 0.47648,-0.4765 1.42944,-0.4765 l 1.11178,-0.7941 0.79412,-0.4765 1.58826,-0.7941 -0.15882,0 q 0.15882,-0.1589 0.15882,-0.3177 l 0,-0.1588 q 0.31765,-0.3177 0.79413,-0.3177 0.6353,0 0.95296,0 l 0.15882,0 q 0,0 0.31765,-0.1588 0.15883,0 0.15883,0 0.15882,-0.1588 0.31765,-0.1588 0.31765,-0.3177 0.79413,-0.3177 0,-0.1588 0.15882,-0.1588 0.15883,0 0.31766,-0.1588 l 0.6353,-0.3177 q 0.31765,-1.1117 1.42943,-0.7941 l 1.90591,-1.4294 0.79413,0 0.15883,0.1588 q 0.47647,1.4294 0.47647,2.5412 l 0,1.2706 q 0,1.1118 0.31765,1.7471 0.15883,0.7941 -0.31765,1.2706 l -0.15882,0 -0.47648,0.4765 0,-0.1588 -0.31765,0.6353 q -0.31765,0.1588 -0.95296,0.1588 -0.47647,0 -0.79413,-0.3177 l -3.33534,2.5412 -2.38238,1.2707 q -0.47648,0.1588 -1.58826,1.2706 -0.31765,0.3176 -0.95296,0.6353 -0.6353,0.1588 -1.42943,0.4764 l -1.42943,0.4765 0.15883,0 -2.06474,1.7471 q -0.15882,0 -0.31765,0.1588 -0.31765,0.3177 -0.79413,0.3177 l -1.11178,0.3176 q -0.6353,0.3177 -1.11178,0.3177 l -1.58826,0.4765 q -0.47648,0 -1.11178,-0.6353 l -1.58826,0.6353 q -0.47647,0 -1.42943,-0.3177 -0.6353,0.3177 -0.79413,0.3177 l -0.15882,0 -0.79413,-0.4765 -0.79413,-0.6353 -0.47648,-0.4765 q -0.47648,-0.6353 -0.47648,-1.2706 -0.15882,0 -0.15882,-0.1588 0,-0.1589 0,-0.1589 -0.15883,0 -0.15883,-0.1588 -0.47647,-0.4765 -0.47647,-2.2235 -0.15883,-1.906 0.47647,-4.2883 0.47648,-0.7942 1.27061,-2.5413 0.79413,-1.747 1.11178,-2.5412 l 0.6353,-1.2706 0,-0.1588 0.31765,0 q 0.47648,-1.5883 0.63531,-2.0647 0.15882,-0.4765 0.15882,-0.3177 0,0 0,0.3177 0,0.1588 0,0 -0.15882,0.3176 0.15883,-0.1589 0.31765,-0.6353 0.47648,-0.9529 l 0.95295,-1.9059 q 0.6353,-0.7942 1.27061,-1.5883 0.6353,-0.9529 1.2706,-1.7471 l 0.63531,-0.4764 q 0.15882,-0.1589 0.6353,-0.1589 l 0.95295,-1.747 q 0,-0.1589 0.15883,-0.3177 0.15883,-0.1588 0.15883,-0.3177 l 0.95295,-1.4294 0.6353,-0.4765 1.11178,-0.9529 1.27061,-0.7941 2.38239,-1.2707 -0.15883,0 q 0.47648,-0.4764 0.79413,-0.1588 0.31765,0.1588 0.6353,0.4765 0.15883,0 0.15883,-0.1588 0.15882,-0.1589 0.31765,-0.1589 l -0.15883,0 0.63531,-0.4764 q 0,-0.4765 0.31765,-0.7942 l 0.31765,0 q 0.31765,0 0.47648,-0.1588 0,-0.3176 0,-0.4765 0.15882,-0.1588 0.15882,-0.4764 0,-0.1589 0.15883,-0.1589 l 0.79413,-0.1588 q 0.31765,-0.1588 0.6353,-0.3176 0.31765,-0.1589 0.6353,0 0.47648,0 0.79413,0.6353 0.31766,0.4764 0.47648,0.7941 0.31765,0.6353 0.31765,0.6353 l 0.47648,0.3176 q 0.6353,-0.3176 1.11178,0 1.11178,-0.4764 1.11178,0.6353 0.79413,0.3177 1.58826,0.953 0.95295,0.4765 1.74708,1.1118 l 0,0.1588 q 0,0.1588 0.31765,0.1588 l 0.15883,0 q 0.15883,0 0.47648,-0.1588 l 0.15882,0 0.79413,0.7941 q 0.47648,0.953 0.47648,1.4295 0.15882,0.3176 0.15882,0.6353 l 0.15883,0.3176 z m -14.45315,7.6237 q 0.15883,0 0.95296,-0.4765 0.79413,-0.6353 1.58826,-1.2706 0.79413,-0.6353 1.58825,-1.2706 0.79413,-0.6353 1.11179,-0.953 l -0.15883,0 1.58826,-2.2235 q 0,0 -0.79413,0.7941 -0.79413,0.6353 -1.74709,1.5882 -0.95295,0.7942 -1.74708,1.4295 -0.79413,0.6353 -0.79413,0.6353 l -0.47647,0.3176 q 0.15882,-0.1588 -0.31766,0.3177 -0.47647,0.3176 -1.11178,0.7941 l 0.31765,0.3177 z m 4.76478,-3.653 0.15882,0 -0.79413,0.4764 0.63531,-0.4764 z m -0.63531,0.4764 -0.31765,0.3177 q 0,0 0.31765,-0.3177 z m 3.33535,-2.7 q 0,-0.1588 -0.47648,-0.9529 l -0.15883,0.1588 q 0,0.3176 -0.15882,0.4765 0,0.3176 -0.47648,0.7941 l -0.15883,0.1588 1.11178,-0.9529 0.15883,0 0.15883,0.3176 z m -1.58826,1.2706 q 0,-0.1588 0,-0.1588 0.15882,-0.1588 0.15882,-0.3177 l 0,-0.1588 -0.47647,0.4765 0.31765,0.1588 z m -0.6353,0.3177 0,0.1588 q 0,0.1588 0.15882,0.1588 0.15883,0 0.15883,-0.1588 l 0.31765,-0.4765 -0.6353,0.3177 z"
           style="font-style:normal;font-variant:normal;font-weight:normal;font-stretch:normal;font-size:158.82577515px;line-height:125%;font-family:'Street Gathering';-inkscape-font-specification:'Street Gathering';letter-spacing:0px;word-spacing:0px;fill:#f2f2f2;fill-opacity:1;stroke:none;stroke-width:1px;stroke-linecap:butt;stroke-linejoin:miter;stroke-opacity:1"
           id="path4982"
           inkscape:connector-curvature="0" />
        <path
           d="m 529.18688,1209.0478 -0.15883,0.6353 -0.31765,0.4765 -1.42943,2.8589 q 0.15883,-0.1589 0,0.1588 0,0.1588 -0.15883,0.3176 -0.31765,0.7942 -0.47647,0.7942 l -1.58826,0.7941 0.15883,0 -0.95296,1.2706 0,-0.1588 q -0.31765,0.4765 -0.6353,0.4765 l -0.79413,0.9529 q -0.47648,0.1588 -0.79413,0.3177 -0.31765,0.1588 -0.79413,0.9529 l -0.15882,0 -0.47648,0.3177 0.15882,0 -0.47647,0.4765 q -0.15883,0.1588 -0.79413,0.3176 -0.47648,0 -0.79413,0 -0.47648,0.4765 -0.95296,0.4765 -0.15882,0.1588 -1.2706,0.4765 l -0.47648,0.4764 q -0.79413,0.7942 -1.74708,0.4765 l -2.38239,0.7941 q -0.15883,0 -0.15883,-0.1588 l -0.31765,-2.7 -0.6353,0.9529 q -0.31765,0.7942 -1.11178,0.7942 -0.31765,0.3176 -0.47648,0.7941 -0.15882,0.3176 -0.47648,0.6353 -0.79412,0.4765 -0.95295,1.5883 l -1.11178,1.1117 0.31765,0.3177 0,0.1588 q -0.15882,1.1118 -1.74708,1.5883 l -0.31765,0.1588 1.90591,-0.7941 -0.15883,0 q 0.47648,-0.4765 1.58826,-0.7942 -0.15883,0.1589 0.6353,-0.1588 0.95296,-0.4765 1.42943,-0.7941 0.47648,-0.4765 1.42943,-0.4765 l 1.11179,-0.7941 0.79412,-0.4765 1.58826,-0.7941 -0.15882,0 q 0.15882,-0.1589 0.15882,-0.3177 l 0,-0.1588 q 0.31765,-0.3177 0.79413,-0.3177 0.6353,0 0.95296,0 l 0.15882,0 q 0,0 0.31765,-0.1588 0.15883,0 0.15883,0 0.15882,-0.1588 0.31765,-0.1588 0.31765,-0.3177 0.79413,-0.3177 0,-0.1588 0.15882,-0.1588 0.15883,0 0.31766,-0.1588 l 0.6353,-0.3177 q 0.31765,-1.1117 1.42943,-0.7941 l 1.90591,-1.4294 0.79413,0 0.15883,0.1588 q 0.47647,1.4294 0.47647,2.5412 l 0,1.2706 q 0,1.1118 0.31765,1.7471 0.15883,0.7941 -0.31765,1.2706 l -0.15882,0 -0.47648,0.4765 0,-0.1588 -0.31765,0.6353 q -0.31765,0.1588 -0.95296,0.1588 -0.47647,0 -0.79413,-0.3177 l -3.33534,2.5412 -2.38238,1.2707 q -0.47648,0.1588 -1.58826,1.2706 -0.31765,0.3176 -0.95296,0.6353 -0.6353,0.1588 -1.42943,0.4764 l -1.42943,0.4765 0.15883,0 -2.06474,1.7471 q -0.15883,0 -0.31765,0.1588 -0.31765,0.3177 -0.79413,0.3177 l -1.11178,0.3176 q -0.6353,0.3177 -1.11178,0.3177 l -1.58826,0.4765 q -0.47648,0 -1.11178,-0.6353 l -1.58826,0.6353 q -0.47647,0 -1.42943,-0.3177 -0.6353,0.3177 -0.79413,0.3177 l -0.15882,0 -0.79413,-0.4765 -0.79413,-0.6353 -0.47648,-0.4765 q -0.47648,-0.6353 -0.47648,-1.2706 -0.15882,0 -0.15882,-0.1588 0,-0.1589 0,-0.1589 -0.15883,0 -0.15883,-0.1588 -0.47647,-0.4765 -0.47647,-2.2235 -0.15883,-1.906 0.47647,-4.2883 0.47648,-0.7942 1.27061,-2.5413 0.79413,-1.747 1.11178,-2.5412 l 0.6353,-1.2706 0,-0.1588 0.31765,0 q 0.47648,-1.5883 0.63531,-2.0647 0.15882,-0.4765 0.15882,-0.3177 0,0 0,0.3177 0,0.1588 0,0 -0.15882,0.3176 0.15883,-0.1589 0.31765,-0.6353 0.47648,-0.9529 l 0.95295,-1.9059 q 0.6353,-0.7942 1.27061,-1.5883 0.6353,-0.9529 1.2706,-1.7471 l 0.63531,-0.4764 q 0.15882,-0.1589 0.6353,-0.1589 l 0.95295,-1.747 q 0,-0.1589 0.15883,-0.3177 0.15883,-0.1588 0.15883,-0.3177 l 0.95295,-1.4294 0.6353,-0.4765 1.11178,-0.9529 1.27061,-0.7941 2.38239,-1.2707 -0.15883,0 q 0.47648,-0.4764 0.79413,-0.1588 0.31765,0.1588 0.6353,0.4765 0.15883,0 0.15883,-0.1588 0.15882,-0.1589 0.31765,-0.1589 l -0.15883,0 0.63531,-0.4764 q 0,-0.4765 0.31765,-0.7942 l 0.31765,0 q 0.31765,0 0.47648,-0.1588 0,-0.3176 0,-0.4765 0.15882,-0.1588 0.15882,-0.4764 0,-0.1589 0.15883,-0.1589 l 0.79413,-0.1588 q 0.31765,-0.1588 0.6353,-0.3176 0.31765,-0.1589 0.6353,0 0.47648,0 0.79413,0.6353 0.31765,0.4764 0.47648,0.7941 0.31765,0.6353 0.31765,0.6353 l 0.47648,0.3176 q 0.6353,-0.3176 1.11178,0 1.11178,-0.4764 1.11178,0.6353 0.79413,0.3177 1.58826,0.953 0.95295,0.4765 1.74708,1.1118 l 0,0.1588 q 0,0.1588 0.31765,0.1588 l 0.15883,0 q 0.15882,0 0.47648,-0.1588 l 0.15882,0 0.79413,0.7941 q 0.47648,0.953 0.47648,1.4295 0.15882,0.3176 0.15882,0.6353 l 0.15883,0.3176 z m -14.45315,7.6237 q 0.15883,0 0.95296,-0.4765 0.79413,-0.6353 1.58826,-1.2706 0.79413,-0.6353 1.58825,-1.2706 0.79413,-0.6353 1.11178,-0.953 l -0.15882,0 1.58826,-2.2235 q 0,0 -0.79413,0.7941 -0.79413,0.6353 -1.74709,1.5882 -0.95295,0.7942 -1.74708,1.4295 -0.79413,0.6353 -0.79413,0.6353 l -0.47648,0.3176 q 0.15883,-0.1588 -0.31765,0.3177 -0.47647,0.3176 -1.11178,0.7941 l 0.31765,0.3177 z m 4.76478,-3.653 0.15882,0 -0.79413,0.4764 0.63531,-0.4764 z m -0.63531,0.4764 -0.31765,0.3177 q 0,0 0.31765,-0.3177 z m 3.33535,-2.7 q 0,-0.1588 -0.47648,-0.9529 l -0.15883,0.1588 q 0,0.3176 -0.15882,0.4765 0,0.3176 -0.47648,0.7941 l -0.15883,0.1588 1.11178,-0.9529 0.15883,0 0.15883,0.3176 z m -1.58826,1.2706 q 0,-0.1588 0,-0.1588 0.15882,-0.1588 0.15882,-0.3177 l 0,-0.1588 -0.47647,0.4765 0.31765,0.1588 z m -0.63531,0.3177 0,0.1588 q 0,0.1588 0.15883,0.1588 0.15883,0 0.15883,-0.1588 l 0.31765,-0.4765 -0.63531,0.3177 z"
           style="font-style:normal;font-variant:normal;font-weight:normal;font-stretch:normal;font-size:158.82577515px;line-height:125%;font-family:'Street Gathering';-inkscape-font-specification:'Street Gathering';letter-spacing:0px;word-spacing:0px;fill:#f2f2f2;fill-opacity:1;stroke:none;stroke-width:1px;stroke-linecap:butt;stroke-linejoin:miter;stroke-opacity:1"
           id="path4984"
           inkscape:connector-curvature="0" />
        <path
           d="m 549.17907,1200.7889 0.47648,-0.1588 q 1.42943,0 1.74708,0.3176 0.47648,0.3177 0.15883,1.2706 l 0.31765,-0.4765 q 0.15883,-0.7941 1.11178,-2.0647 0.95296,-1.2706 1.74709,-1.5883 l -0.15883,0 1.11178,-1.5882 q 0,-0.7941 0.47648,-0.7941 l 0.6353,-0.7942 q 0.6353,-0.6353 0.31765,-0.9529 0.15883,0 0.15883,-0.1588 0,-0.1589 0.15882,-0.4765 -0.31765,-0.7942 -0.15882,-1.4295 0.31765,-0.6353 1.58826,-0.7941 l 0.47647,-0.6353 q 3.17652,-2.3824 4.60595,-4.9236 0.79413,-0.1588 1.74708,-1.7471 l 1.11178,-1.1118 q 2.06474,-0.3176 1.90591,1.1118 0,0.6353 -0.31765,0.953 l -0.79413,0.7941 q -0.79413,0.7941 -0.79413,1.1118 0.15883,0 0.15883,0.1588 0,0 0.15883,0 0.6353,-0.9529 2.06473,-1.1118 0.15883,0 0.15883,0.1589 l 0.47647,0.6353 q 0,1.4294 -0.95295,2.3824 l -0.6353,0.6353 0,-0.1589 -0.79413,1.5883 -0.63531,0.6353 0,-0.1588 -0.79412,1.1117 q -0.15883,0.3177 0.47647,0.3177 0,-0.3177 0.47648,-0.7941 0.15883,-0.3177 0.31765,-0.6353 0.31765,-0.4765 0.47648,-0.7942 l 0.15883,-0.1588 0.95295,-0.1588 0.15883,0.1588 q 0.47647,0.7941 0.15882,1.5883 -0.15882,0.6353 -0.79413,0.9529 -0.15882,0.3177 -0.47647,0.7942 -0.31766,0.4764 -0.31766,0.6353 0.31766,0.4764 0.31766,0.7941 0,0.3176 -0.63531,0.9529 -0.15882,0.1589 -0.79413,0.1589 0.15883,0.4764 -0.15882,0.7941 l 0,0.4765 q -0.63531,1.1117 -1.11178,1.4294 -0.79413,0 -1.27061,-0.1588 l -3.49417,7.7824 -1.90591,3.8119 q -1.11178,1.5882 -1.2706,2.3823 -0.47648,1.7471 -1.27061,2.5413 l 0,-0.1589 q -0.15882,0.4765 -0.47648,1.1118 -0.15882,0.4765 -0.15882,0.953 -0.15883,0.1588 -0.15883,0.3176 l 0,0.1588 q -0.31765,0.3177 -0.47647,0.3177 0,1.7471 -0.79413,2.8589 l 0,-0.1589 -0.47648,1.2706 0,0.6353 0.15883,0 1.42943,-0.4764 0.15882,0.1588 q 0.47648,1.4294 0.63531,2.5412 0,0.4765 0.15882,0.7941 l 0.63531,1.5883 q 0,0.6353 -0.31766,0.9529 0,0.1589 -0.15882,0.1589 0,0 0,0.1588 -0.15883,0.1588 -0.15883,0.3176 -0.47648,0.4765 -0.6353,0.4765 0,-0.1588 -0.31765,-0.4765 l -0.15883,0 q 0,0 -0.15882,-0.3176 -0.31766,0.3176 -0.95296,0.6353 -0.47648,0.1588 -0.79413,0.953 l -0.15882,0 -0.63531,0.3176 -0.95295,0.953 q -0.31765,0.1588 -0.6353,0.4764 l -0.79413,0.7942 -0.47648,0.7941 q -0.15883,0.3176 -0.31765,0.6353 -0.15883,0.3176 -0.47648,0.4765 l 0.15883,0 q -0.15883,0.1588 -1.11178,0 l -0.31766,-0.1589 q -0.31765,0.3177 -0.95295,0.4765 l -0.15883,0 q -0.31765,0 -0.31765,0 0,0.3177 -0.15882,0.4765 l 0,0.6353 q 0,0.1588 -0.15883,0.1588 l -0.47648,0 q -0.31765,0.1589 -1.42943,-0.1588 -0.15882,0 -0.31765,-0.1588 -0.15883,0 -0.31765,0 -1.27061,-0.3177 -1.42943,-0.7941 0,-0.4765 0.31765,-1.1118 -0.31765,-0.6353 0.15882,-1.1118 0,-0.1588 -0.15882,-0.1588 0,-0.1589 0,-0.4765 -0.15883,0 -0.15883,-0.1588 -0.15882,-0.1589 -0.15882,-0.3177 -2.38239,-0.1588 -2.06474,-1.7471 0,-0.1588 0,-0.1588 l -0.31765,0.3177 -0.6353,0.4764 -0.63531,0.6353 -1.2706,0.953 -0.15883,0 -0.79413,-0.3177 -0.31765,0.953 q 0,0.6353 -0.47648,1.2706 l -0.15882,0 -0.31765,0.3176 q -0.31765,0.6354 -0.95296,0.3177 -0.6353,0 -0.95295,-0.7941 l 0,0.1588 q -0.31765,-0.3177 -0.79413,-0.3177 -0.15883,0 -0.47648,0.1589 -0.15882,0 -0.31765,-0.1589 -0.79413,0.4765 -1.11178,0.1589 -0.15883,0.3176 -0.15883,0.3176 0.15883,0 0.15883,0.3177 0,0.6353 -0.95296,0.6353 -1.74708,-0.3177 -2.54121,-0.953 -0.79413,-0.6353 -1.58826,-1.4294 l -0.6353,-0.4765 q -0.15882,0 -0.31765,-0.1588 -0.31765,-0.3177 -0.47648,-0.4765 -0.31765,-0.1588 -0.6353,-0.1588 -0.47648,-0.1588 -0.47648,-0.6353 -1.2706,-0.7941 -0.79413,-1.7471 -0.31765,-0.1588 -0.31765,-0.6353 l 0,-0.1588 q 0.15883,-0.1589 0.79413,-0.1589 l 0,-1.1117 q 0,-0.6353 0.6353,-1.2706 l 1.11178,0 q 0.63531,-1.2706 1.58826,-3.1766 0.79413,-1.9059 1.27061,-3.3353 l 1.42943,-3.0177 1.27061,-1.7471 q 0.47647,-1.2706 0.95295,-1.5882 0.47648,-0.4765 1.27061,-1.2706 0.15882,-0.1589 0.31765,-0.3177 0.15882,-0.3176 0.47648,-0.1588 0.79412,-2.5412 2.06473,-3.4942 l 0.6353,-0.6353 1.27061,-0.9529 1.58826,-0.953 0.95295,-0.3176 1.11178,-0.6353 -0.15882,0 q 0.31765,-0.3177 1.2706,0.3176 l 1.11178,-0.7941 q 0,-0.4765 0.31766,-0.7942 l 0.79412,-0.3176 q 0,-0.1588 0,-0.3177 0.15883,-0.1588 0.15883,-0.3176 0,-0.1588 0.15883,-0.1588 l 0.95295,-0.3177 -0.15883,0 q 0.47648,-0.4765 1.27061,-0.1588 0.95296,0.3176 1.27061,1.4294 0,0.1588 0,0.1588 0.15882,0 0.15882,0.1589 0,0.1588 0.15883,0.3176 0,0 0.31765,0.3177 0.15883,-0.1589 0.79413,-0.1589 l 0.47648,-0.4764 q 0,-0.4765 0.31765,-0.7942 0.31765,-0.3176 -0.15883,-0.9529 l 0,-0.1588 0.31765,-0.4765 z m 1.42944,3.653 q 0.31765,-1.1118 0.79412,-1.9059 -1.11178,0.1588 -1.2706,1.1117 l -0.47648,0.953 q 0.15883,0.3177 0.15883,0.6353 0,0.3177 0,0.6353 l 0,0.1588 0.6353,-0.9529 q 0,-0.6353 0.15883,-0.7941 l 0,0.1588 z m 15.56492,-16.0414 q -0.31765,-0.1589 -0.31765,-0.4765 -0.15883,0 -0.31765,0.1588 -0.15883,0 -0.31765,0 0,0 -0.31765,0.3177 -0.15883,0.3176 -0.47648,0.4765 -0.15883,0.1588 -0.31765,0.4764 l -1.11178,1.7471 -0.31766,0.6353 q -0.6353,0.6353 -0.15882,0.6353 l 1.74708,-1.5882 1.58826,-1.2706 0,0.1588 q 0,-0.3177 0.15883,-0.4765 0.15882,-0.1588 0.15882,-0.4765 l 0,-0.3176 z m 0.15883,-0.1589 -0.15883,0.1589 q 0,0.1588 0.31765,0.1588 l -0.15882,-0.3177 z m -18.26497,20.4886 q 0.15883,0 0.15883,0 0,-0.1589 0.15883,-0.1589 0,-0.3176 0.15882,-0.4764 0.15883,-0.3177 0.31765,-0.6353 l -0.15882,0 q -0.31765,0.3176 -0.47648,0.3176 -0.31765,0.3177 -0.31765,0.953 l 0.15882,0 z m 0.47648,-0.3177 q -0.15882,0 -0.15882,0.1588 l 0.15882,-0.1588 z m -17.78849,22.3945 q 0,0.1588 0.15883,0.1588 0.15883,0 0.15883,-0.1588 0.15882,-0.3177 0.15882,-0.4765 0,-0.1588 -0.15882,-0.1588 -0.15883,0 -0.15883,0.1588 l -0.15883,0.4765 z m 9.8472,-12.7061 q 0.15883,-0.1588 0.15883,-0.3177 0.15882,-0.3176 0.47648,-0.4764 -0.31766,0 -0.47648,-0.1589 -0.15883,0 -0.31765,0.1589 0,0 -0.15883,0 l 0.15883,0 -1.27061,0.9529 0,-0.1588 q -0.15883,0.3176 -0.47648,0.7941 -0.15882,0.3177 -0.31765,0.6353 0,1.1118 -1.2706,1.1118 0,0.3177 -0.31766,0.6353 l 0,-0.1588 q -0.31765,0.6353 -0.31765,0.6353 l 0.47648,-0.3177 q 0.47648,-0.3176 0.6353,-0.4764 0.15883,-0.1589 0.31765,-0.3177 0.15883,-0.3176 0.47648,-0.6353 0.31765,-0.3176 0.6353,-0.3176 0.15883,-0.3177 0.31766,-0.3177 0.31765,-0.1588 0.47647,-0.4765 l 0.31765,-0.3176 0.47648,-0.4765 z m -4.12947,3.8118 q -0.31765,0.1588 -0.6353,0.4765 -0.31765,0.3176 -0.47648,0.6353 l 0.31765,0 q 0,-0.3177 0.79413,-0.7941 l 0,-0.1589 0,-0.3176 -0.15882,0.1588 0.15882,0 z m 4.9236,-4.7648 q -0.15882,0.1589 -0.15882,0.1589 0.31765,0 0.47647,-0.1589 l -0.31765,0 z m 3.97065,-4.4471 q -0.15883,0.1588 -0.15883,0.1588 0,0.1589 0,0.3177 0.15883,0.1588 0.15883,0.3176 l -0.15883,0.1589 -0.79413,0.4764 q 0.15883,0.7942 -1.27061,1.2707 0,0.3176 -0.31765,0.6353 l 0.31765,0 q 0.31766,0 1.11178,-0.7942 l 0,0.1589 q 0,-0.1589 0.15883,-0.3177 0.15883,-0.1588 0.15883,-0.3176 l 1.2706,-2.0648 -0.47647,0 z m 0.95295,0 0.47648,-0.3176 q 0.47647,0 0.15882,-0.3177 -0.79413,-0.6353 -1.11178,0.4765 l 0.47648,0.1588 z m -4.76477,4.1295 q -0.15883,0 -0.15883,0.1588 0,0.1588 0.15883,0.1588 0.6353,0 1.11178,-0.7941 0,-0.1588 -0.15883,-0.1588 -0.79413,0 -0.95295,0.6353 z m -0.47648,-0.1588 q 0.15883,-0.1589 0,-0.3177 -0.15883,-0.1588 -0.31765,0 -0.63531,0.4765 -0.31765,0.7941 0.31765,0.3177 0.31765,-0.1588 l 0.31765,-0.3176 z m -0.15883,-0.7942 0,0.4765 0.15883,0.1588 q 0,-0.3176 0.15883,-0.4764 l -0.31766,-0.1589 z"
           style="font-style:normal;font-variant:normal;font-weight:normal;font-stretch:normal;font-size:158.82577515px;line-height:125%;font-family:'Street Gathering';-inkscape-font-specification:'Street Gathering';letter-spacing:0px;word-spacing:0px;fill:#f2f2f2;fill-opacity:1;stroke:none;stroke-width:1px;stroke-linecap:butt;stroke-linejoin:miter;stroke-opacity:1"
           id="path4986"
           inkscape:connector-curvature="0" />
      </g>
      <text
         xml:space="preserve"
         style="font-style:normal;font-weight:normal;font-size:25.53811646px;line-height:125%;font-family:sans-serif;letter-spacing:0px;word-spacing:0px;fill:#ffffff;fill-opacity:1;stroke:none;stroke-width:1px;stroke-linecap:butt;stroke-linejoin:miter;stroke-opacity:1"
         x="355.30246"
         y="462.77991"
         id="text5006"
         sodipodi:linespacing="125%"><tspan
           sodipodi:role="line"
           id="tspan5008"
           x="355.30246"
           y="462.77991"
           style="font-style:normal;font-variant:normal;font-weight:bold;font-stretch:normal;font-family:'Code Bold';-inkscape-font-specification:'Code Bold,  Bold'">Crew</tspan></text>
    </g>
  </g>
</svg>
