<?xml version="1.0" encoding="UTF-8" standalone="no"?>
<!-- Created with Inkscape (http://www.inkscape.org/) -->

<svg
   xmlns:dc="http://purl.org/dc/elements/1.1/"
   xmlns:cc="http://creativecommons.org/ns#"
   xmlns:rdf="http://www.w3.org/1999/02/22-rdf-syntax-ns#"
   xmlns:svg="http://www.w3.org/2000/svg"
   xmlns="http://www.w3.org/2000/svg"
   xmlns:sodipodi="http://sodipodi.sourceforge.net/DTD/sodipodi-0.dtd"
   xmlns:inkscape="http://www.inkscape.org/namespaces/inkscape"
   width="210mm"
   height="297mm"
   viewBox="0 0 744.09448819 1052.3622047"
   id="svg2"
   version="1.1"
   inkscape:version="0.91 r13725"
   sodipodi:docname="master.svg"
   inkscape:export-filename="/home/ars/git/my-artwork/Logo/JVMIndonesia/master.png"
   inkscape:export-xdpi="250"
   inkscape:export-ydpi="250">
  <defs
     id="defs4" />
  <sodipodi:namedview
     id="base"
     pagecolor="#ffffff"
     bordercolor="#666666"
     borderopacity="1.0"
     inkscape:pageopacity="0.0"
     inkscape:pageshadow="2"
     inkscape:zoom="0.35355341"
     inkscape:cx="119.33828"
     inkscape:cy="333.03067"
     inkscape:document-units="px"
     inkscape:current-layer="layer1"
     showgrid="false"
     inkscape:snap-bbox="true"
     inkscape:snap-bbox-midpoints="true"
     inkscape:snap-intersection-paths="true"
     inkscape:snap-bbox-edge-midpoints="true"
     inkscape:object-nodes="true"
     inkscape:snap-smooth-nodes="true"
     inkscape:snap-midpoints="true"
     inkscape:window-width="1366"
     inkscape:window-height="716"
     inkscape:window-x="0"
     inkscape:window-y="0"
     inkscape:window-maximized="1"
     showguides="true"
     inkscape:guide-bbox="true"
     inkscape:bbox-paths="true"
     inkscape:bbox-nodes="true">
    <sodipodi:guide
       position="189.58398,960.85636"
       orientation="0,1"
       id="guide4762" />
    <sodipodi:guide
       position="79.583981,916.35636"
       orientation="1,0"
       id="guide4764" />
    <sodipodi:guide
       position="168.58398,916.35636"
       orientation="1,0"
       id="guide4766" />
    <sodipodi:guide
       position="189.58398,922.85636"
       orientation="1,0"
       id="guide4768" />
    <sodipodi:guide
       position="278.58398,922.85636"
       orientation="1,0"
       id="guide4770" />
    <sodipodi:guide
       position="299.58398,934.00968"
       orientation="1,0"
       id="guide4772" />
    <sodipodi:guide
       position="388.58471,916.35715"
       orientation="1,0"
       id="guide4774" />
    <sodipodi:guide
       position="124.08398,871.85636"
       orientation="0,1"
       id="guide4776" />
    <sodipodi:guide
       position="93.523993,839.458"
       orientation="1,0"
       id="guide4812" />
    <sodipodi:guide
       position="227.23715,850.59081"
       orientation="0,1"
       id="guide4814" />
    <sodipodi:guide
       position="240.06275,829.85715"
       orientation="0,1"
       id="guide4820" />
    <sodipodi:guide
       position="375.58471,839.50002"
       orientation="1,0"
       id="guide4822" />
    <sodipodi:guide
       position="58.58398,819.35715"
       orientation="1,0"
       id="guide4826" />
    <sodipodi:guide
       position="79.583981,808.85715"
       orientation="0,1"
       id="guide4828" />
    <sodipodi:guide
       position="399.08398,981.85636"
       orientation="0,1"
       id="guide4830" />
    <sodipodi:guide
       position="409.58398,971.35636"
       orientation="1,0"
       id="guide4832" />
  </sodipodi:namedview>
  <metadata
     id="metadata7">
    <rdf:RDF>
      <cc:Work
         rdf:about="">
        <dc:format>image/svg+xml</dc:format>
        <dc:type
           rdf:resource="http://purl.org/dc/dcmitype/StillImage" />
        <dc:title />
      </cc:Work>
    </rdf:RDF>
  </metadata>
  <g
     inkscape:label="Layer 1"
     inkscape:groupmode="layer"
     id="layer1">
    <path
       style="opacity:1;fill:#e6e6e6;fill-opacity:1;stroke:none;stroke-width:0.2;stroke-linecap:round;stroke-linejoin:round;stroke-miterlimit:4;stroke-dasharray:none;stroke-dashoffset:0;stroke-opacity:1"
       d="m -281.66583,323.89847 1,0 0,1 -1,0 z"
       id="rect4373"
       inkscape:connector-curvature="0" />
    <path
       style="opacity:1;fill:#e6e6e6;fill-opacity:1;stroke:none;stroke-width:0.2;stroke-linecap:round;stroke-linejoin:round;stroke-miterlimit:4;stroke-dasharray:none;stroke-dashoffset:0;stroke-opacity:1"
       d="m -280.66583,323.89847 1,0 0,1 -1,0 z"
       id="rect4375"
       inkscape:connector-curvature="0" />
    <path
       style="opacity:1;fill:#e6e6e6;fill-opacity:1;stroke:none;stroke-width:0.2;stroke-linecap:round;stroke-linejoin:round;stroke-miterlimit:4;stroke-dasharray:none;stroke-dashoffset:0;stroke-opacity:1"
       d="m -281.66583,324.89847 2,0 0,2 -2,0 z"
       id="rect4377"
       inkscape:connector-curvature="0" />
    <path
       style="opacity:1;fill:#e6e6e6;fill-opacity:1;stroke:none;stroke-width:0.2;stroke-linecap:round;stroke-linejoin:round;stroke-miterlimit:4;stroke-dasharray:none;stroke-dashoffset:0;stroke-opacity:1"
       d="m -279.66583,323.89847 3,0 0,3 -3,0 z"
       id="rect4379"
       inkscape:connector-curvature="0" />
    <path
       style="opacity:1;fill:#e6e6e6;fill-opacity:1;stroke:none;stroke-width:0.2;stroke-linecap:round;stroke-linejoin:round;stroke-miterlimit:4;stroke-dasharray:none;stroke-dashoffset:0;stroke-opacity:1"
       d="m -281.66583,326.89847 5,0 0,5 -5,0 z"
       id="rect4381"
       inkscape:connector-curvature="0" />
    <path
       style="opacity:1;fill:#e6e6e6;fill-opacity:1;stroke:none;stroke-width:0.2;stroke-linecap:round;stroke-linejoin:round;stroke-miterlimit:4;stroke-dasharray:none;stroke-dashoffset:0;stroke-opacity:1"
       d="m -276.66583,323.89847 8,0 0,8 -8,0 z"
       id="rect4383"
       inkscape:connector-curvature="0" />
    <path
       style="opacity:1;fill:#e6e6e6;fill-opacity:1;stroke:none;stroke-width:0.2;stroke-linecap:round;stroke-linejoin:round;stroke-miterlimit:4;stroke-dasharray:none;stroke-dashoffset:0;stroke-opacity:1"
       d="m -281.66583,310.89847 13,0 0,13 -13,0 z"
       id="rect4385"
       inkscape:connector-curvature="0" />
    <path
       style="opacity:1;fill:#e6e6e6;fill-opacity:1;stroke:none;stroke-width:0.2;stroke-linecap:round;stroke-linejoin:round;stroke-miterlimit:4;stroke-dasharray:none;stroke-dashoffset:0;stroke-opacity:1"
       d="m -302.66583,310.89847 21,0 0,21 -21,0 z"
       id="rect4387"
       inkscape:connector-curvature="0" />
    <path
       style="opacity:1;fill:#e6e6e6;fill-opacity:1;stroke:none;stroke-width:0.2;stroke-linecap:round;stroke-linejoin:round;stroke-miterlimit:4;stroke-dasharray:none;stroke-dashoffset:0;stroke-opacity:1"
       d="m -302.66583,331.89847 34,0 0,34 -34,0 z"
       id="rect4389"
       inkscape:connector-curvature="0" />
    <path
       style="opacity:1;fill:#e6e6e6;fill-opacity:1;stroke:none;stroke-width:0.2;stroke-linecap:round;stroke-linejoin:round;stroke-miterlimit:4;stroke-dasharray:none;stroke-dashoffset:0;stroke-opacity:1"
       d="m -268.66583,310.89847 55,0 0,55 -55,0 z"
       id="rect4391"
       inkscape:connector-curvature="0" />
    <path
       style="opacity:1;fill:#e6e6e6;fill-opacity:1;stroke:none;stroke-width:0.2;stroke-linecap:round;stroke-linejoin:round;stroke-miterlimit:4;stroke-dasharray:none;stroke-dashoffset:0;stroke-opacity:1"
       d="m -302.66583,365.89847 89,0 0,89 -89,0 z"
       id="rect4393"
       inkscape:connector-curvature="0" />
    <g
       id="g4836"
       inkscape:export-xdpi="250"
       inkscape:export-ydpi="250">
      <rect
         y="70.505867"
         x="58.583981"
         height="172.99921"
         width="351"
         id="rect4834"
         style="opacity:1;fill:#ffffff;fill-opacity:1;stroke:none;stroke-width:0.2;stroke-linecap:round;stroke-linejoin:round;stroke-miterlimit:4;stroke-dasharray:none;stroke-dashoffset:0;stroke-opacity:1" />
      <path
         d="m 96.919229,222.50507 -3.395235,0 0,-20.73366 3.395235,0 0,20.73366 z"
         style="font-style:normal;font-variant:normal;font-weight:normal;font-stretch:normal;font-size:25px;line-height:125%;font-family:Bebas;-inkscape-font-specification:Bebas;letter-spacing:20px;word-spacing:0px;fill:#000000;fill-opacity:1;stroke:none;stroke-width:1px;stroke-linecap:butt;stroke-linejoin:miter;stroke-opacity:1"
         id="path4783"
         inkscape:connector-curvature="0" />
      <path
         d="m 125.49057,201.75506 4.49101,13.93262 0,-13.93262 3.3952,0 0,20.75001 -3.6467,0 -4.67065,-13.28728 0,13.28728 -3.3952,0 0,-20.75001 3.82634,0 z"
         style="font-style:normal;font-variant:normal;font-weight:normal;font-stretch:normal;font-size:25px;line-height:125%;font-family:Bebas;-inkscape-font-specification:Bebas;letter-spacing:20px;word-spacing:0px;fill:#000000;fill-opacity:1;stroke:none;stroke-width:1px;stroke-linecap:butt;stroke-linejoin:miter;stroke-opacity:1"
         id="path4785"
         inkscape:connector-curvature="0" />
      <path
         d="m 168.79244,217.54096 q 0,2.05184 -1.56287,3.50797 -1.56287,1.45614 -3.77244,1.45614 l -5.33533,0 0,-20.75002 5.33533,0 q 2.22753,0 3.77244,1.45614 1.56287,1.45615 1.56287,3.49144 l 0,10.83832 z m -7.27544,1.86981 2.04791,0 q 0.80838,0 1.36526,-0.52949 0.55689,-0.54605 0.55689,-1.27414 l 0,-10.85488 q 0,-0.74461 -0.57485,-1.27412 -0.55689,-0.52951 -1.3473,-0.52951 l -2.04791,0 0,14.46214 z"
         style="font-style:normal;font-variant:normal;font-weight:normal;font-stretch:normal;font-size:25px;line-height:125%;font-family:Bebas;-inkscape-font-specification:Bebas;letter-spacing:20px;word-spacing:0px;fill:#000000;fill-opacity:1;stroke:none;stroke-width:1px;stroke-linecap:butt;stroke-linejoin:miter;stroke-opacity:1"
         id="path4787"
         inkscape:connector-curvature="0" />
      <path
         d="m 198.78025,201.77141 q 2.1918,0 3.7173,1.42131 1.54303,1.42131 1.54303,3.42409 l 0,11.04751 q 0,2.01892 -1.54303,3.44024 -1.54303,1.40517 -3.7173,1.40517 -2.19181,0 -3.7173,-1.42132 -1.5255,-1.42131 -1.5255,-3.42408 l 0,-11.04751 q 0,-2.01892 1.54303,-3.42409 1.54303,-1.42132 3.69977,-1.42132 z m 1.80605,4.78079 q 0,-0.72681 -0.5611,-1.22749 -0.54357,-0.51684 -1.33263,-0.51684 -0.78904,0 -1.35014,0.51684 -0.5611,0.50069 -0.5611,1.22749 l 0,11.07982 q 0,0.72681 0.5611,1.24365 0.5611,0.50071 1.35014,0.50071 0.78906,0 1.33263,-0.50071 0.5611,-0.51684 0.5611,-1.24365 l 0,-11.07982 z"
         style="font-style:normal;font-variant:normal;font-weight:normal;font-stretch:normal;font-size:25px;line-height:125%;font-family:Bebas;-inkscape-font-specification:Bebas;letter-spacing:20px;word-spacing:0px;fill:#000000;fill-opacity:1;stroke:none;stroke-width:1px;stroke-linecap:butt;stroke-linejoin:miter;stroke-opacity:1"
         id="path4789"
         inkscape:connector-curvature="0" />
      <path
         d="m 232.61192,201.75506 4.49101,13.93262 0,-13.93262 3.3952,0 0,20.75001 -3.6467,0 -4.67065,-13.28728 0,13.28728 -3.3952,0 0,-20.75001 3.82634,0 z"
         style="font-style:normal;font-variant:normal;font-weight:normal;font-stretch:normal;font-size:25px;line-height:125%;font-family:Bebas;-inkscape-font-specification:Bebas;letter-spacing:20px;word-spacing:0px;fill:#000000;fill-opacity:1;stroke:none;stroke-width:1px;stroke-linecap:butt;stroke-linejoin:miter;stroke-opacity:1"
         id="path4791"
         inkscape:connector-curvature="0" />
      <path
         d="m 265.24313,222.50507 0,-20.75002 9.66466,0 0,3.12739 -6.26945,0 0,5.67564 4.58083,0 0,3.14396 -4.58083,0 0,5.67564 6.26945,0 0,3.12739 -9.66466,0 z"
         style="font-style:normal;font-variant:normal;font-weight:normal;font-stretch:normal;font-size:25px;line-height:125%;font-family:Bebas;-inkscape-font-specification:Bebas;letter-spacing:20px;word-spacing:0px;fill:#000000;fill-opacity:1;stroke:none;stroke-width:1px;stroke-linecap:butt;stroke-linejoin:miter;stroke-opacity:1"
         id="path4793"
         inkscape:connector-curvature="0" />
      <path
         d="m 310.61083,217.22872 q 0.0351,2.11562 -1.19224,3.61756 -0.80651,1.01744 -2.27927,1.43734 -0.78897,0.22611 -1.84094,0.22611 -1.94615,0 -3.22605,-0.88824 -1.06951,-0.72676 -1.70069,-1.97029 -0.61365,-1.25969 -0.71884,-2.87469 l 3.15591,-0.20994 q 0.2104,1.76034 1.01691,2.55169 0.59611,0.59755 1.36756,0.56524 1.08703,-0.0323 1.73575,-0.98514 0.33312,-0.46835 0.33312,-1.34044 0,-1.2597 -1.24483,-2.50323 -0.98184,-0.85595 -2.94552,-2.56784 -1.64809,-1.46964 -2.33187,-2.63243 -0.73638,-1.30814 -0.73638,-2.84238 0,-2.76164 2.01628,-4.18283 1.24484,-0.85594 3.08578,-0.85594 1.77082,0 3.03319,0.72675 0.98183,0.56525 1.57796,1.58269 0.61365,1.01744 0.73638,2.34173 l -3.17345,0.53295 q -0.14027,-1.24355 -0.77145,-1.938 -0.45585,-0.50063 -1.31496,-0.50063 -0.91171,0 -1.3851,0.74289 -0.38572,0.59754 -0.38572,1.48578 0,1.3889 1.29743,2.82624 0.49092,0.5491 1.47276,1.29198 1.15717,0.88825 1.52536,1.24355 1.2273,1.13049 1.89354,2.22869 0.3156,0.5168 0.50846,0.95284 0.47339,1.08204 0.49092,1.93799 z"
         style="font-style:normal;font-variant:normal;font-weight:normal;font-stretch:normal;font-size:25px;line-height:125%;font-family:Bebas;-inkscape-font-specification:Bebas;letter-spacing:20px;word-spacing:0px;fill:#000000;fill-opacity:1;stroke:none;stroke-width:1px;stroke-linecap:butt;stroke-linejoin:miter;stroke-opacity:1"
         id="path4795"
         inkscape:connector-curvature="0" />
      <path
         d="m 338.71264,222.50507 -3.35583,0 0,-20.73366 3.35583,0 0,20.73366 z"
         style="font-style:normal;font-variant:normal;font-weight:normal;font-stretch:normal;font-size:25px;line-height:125%;font-family:Bebas;-inkscape-font-specification:Bebas;letter-spacing:20px;word-spacing:0px;fill:#000000;fill-opacity:1;stroke:none;stroke-width:1px;stroke-linecap:butt;stroke-linejoin:miter;stroke-opacity:1"
         id="path4797"
         inkscape:connector-curvature="0" />
      <path
         d="m 367.77227,217.73948 -0.81676,4.76559 -3.49787,0 3.78196,-20.73366 4.61647,0 3.7287,20.73366 -3.51563,0 -0.799,-4.76559 -3.49787,0 z m 1.75781,-11.21901 -1.2429,8.17432 2.4858,0 -1.2429,-8.17432 z"
         style="font-style:normal;font-variant:normal;font-weight:normal;font-stretch:normal;font-size:25px;line-height:125%;font-family:Bebas;-inkscape-font-specification:Bebas;letter-spacing:20px;word-spacing:0px;fill:#000000;fill-opacity:1;stroke:none;stroke-width:1px;stroke-linecap:butt;stroke-linejoin:miter;stroke-opacity:1"
         id="path4799"
         inkscape:connector-curvature="0" />
      <g
         transform="translate(-40,-504)"
         id="g4654">
        <path
           inkscape:connector-curvature="0"
           style="opacity:1;fill:#00bdc7;fill-opacity:1;stroke:none;stroke-width:1;stroke-linecap:round;stroke-linejoin:round;stroke-miterlimit:4;stroke-dasharray:none;stroke-dashoffset:0;stroke-opacity:1"
           d="m 229.58398,595.50586 0,44.5 44.5,0 -44.5,-44.5 z"
           id="path4205" />
        <path
           inkscape:connector-curvature="0"
           style="opacity:1;fill:#00bdc7;fill-opacity:1;stroke:none;stroke-width:1;stroke-linecap:round;stroke-linejoin:round;stroke-miterlimit:4;stroke-dasharray:none;stroke-dashoffset:0;stroke-opacity:1"
           d="m 318.58398,595.50586 -44.5,44.5 44.5,0 0,-44.5 z"
           id="path4272" />
        <path
           style="fill:#ff325b;fill-opacity:1;fill-rule:evenodd;stroke:none;stroke-width:1px;stroke-linecap:butt;stroke-linejoin:miter;stroke-opacity:1"
           d="m 229.58471,640.00507 44.5,44.5 44.5,-44.5 z"
           id="path4150"
           inkscape:connector-curvature="0" />
        <path
           style="fill:#d93954;fill-opacity:1;fill-rule:evenodd;stroke:none;stroke-width:1px;stroke-linecap:butt;stroke-linejoin:miter;stroke-opacity:1"
           d="m 318.58471,640.00507 -44.5,44.5 -9.19336,-9.19336 35.30664,-35.30664 18.38672,0 z"
           id="path4571"
           inkscape:connector-curvature="0" />
        <path
           style="opacity:1;fill:#00a2ab;fill-opacity:1;stroke:none;stroke-width:0.2;stroke-linecap:round;stroke-linejoin:round;stroke-miterlimit:4;stroke-dasharray:none;stroke-dashoffset:0;stroke-opacity:1"
           d="m 229.58398,627.00586 0,13 44.5,0 -13,-13 -31.5,0 z m 44.5,13 44.5,0 0,-13 -31.5,0 -13,13 z"
           id="rect4606"
           inkscape:connector-curvature="0" />
      </g>
      <g
         transform="translate(-40,-504)"
         id="g4648">
        <path
           inkscape:connector-curvature="0"
           style="opacity:1;fill:#00bdc7;fill-opacity:1;stroke:none;stroke-width:1;stroke-linecap:round;stroke-linejoin:round;stroke-miterlimit:4;stroke-dasharray:none;stroke-dashoffset:0;stroke-opacity:1"
           d="m 164.08471,595.50507 0,44.5 44.5,0 0,-44.5 -44.5,0 z"
           id="path4211" />
        <path
           style="fill:#ff325b;fill-opacity:1;fill-rule:evenodd;stroke:none;stroke-width:1px;stroke-linecap:butt;stroke-linejoin:miter;stroke-opacity:1"
           d="m 119.58398,640.00586 44.5,44.5 44.5,-44.5 z"
           id="path4576"
           inkscape:connector-curvature="0" />
        <path
           id="path4614"
           d="m 164.08471,627.00507 0,13 44.5,0 0,-13 -44.5,0 z"
           style="opacity:1;fill:#00a2ab;fill-opacity:1;stroke:none;stroke-width:1;stroke-linecap:round;stroke-linejoin:round;stroke-miterlimit:4;stroke-dasharray:none;stroke-dashoffset:0;stroke-opacity:1"
           inkscape:connector-curvature="0" />
        <path
           style="opacity:1;fill:#d93954;fill-opacity:1;stroke:none;stroke-width:0.2;stroke-linecap:round;stroke-linejoin:round;stroke-miterlimit:4;stroke-dasharray:none;stroke-dashoffset:0;stroke-opacity:1"
           d="m 119.58398,640.00586 44.5,44.5 9.19336,-9.19336 -35.30859,-35.30664 -18.38477,0 z"
           id="rect4616"
           inkscape:connector-curvature="0" />
      </g>
      <g
         transform="translate(-40,-504)"
         id="g4661">
        <path
           inkscape:connector-curvature="0"
           style="opacity:1;fill:#00bdc7;fill-opacity:1;stroke:none;stroke-width:1;stroke-linecap:round;stroke-linejoin:round;stroke-miterlimit:4;stroke-dasharray:none;stroke-dashoffset:0;stroke-opacity:1"
           d="m 428.58398,595.50586 -44.5,44.5 44.5,44.5 0,-89 z"
           id="rect4355" />
        <path
           inkscape:connector-curvature="0"
           style="opacity:1;fill:#00bdc7;fill-opacity:1;stroke:none;stroke-width:1;stroke-linecap:round;stroke-linejoin:round;stroke-miterlimit:4;stroke-dasharray:none;stroke-dashoffset:0;stroke-opacity:1"
           d="m 339.58398,595.50586 0,89 44.5,-44.5 -44.5,-44.5 z"
           id="rect4146" />
        <path
           inkscape:connector-curvature="0"
           id="path4154"
           d="m 339.58471,595.50507 44.5,44.5 44.5,-44.5 z"
           style="fill:#ff325b;fill-opacity:1;fill-rule:evenodd;stroke:none;stroke-width:1px;stroke-linecap:butt;stroke-linejoin:miter;stroke-opacity:1" />
        <path
           style="opacity:1;fill:#00a2ab;fill-opacity:1;stroke:none;stroke-width:0.2;stroke-linecap:round;stroke-linejoin:round;stroke-miterlimit:4;stroke-dasharray:none;stroke-dashoffset:0;stroke-opacity:1"
           d="m 339.58398,595.50586 0,18.38476 35.30664,35.3086 9.19336,-9.19336 -44.5,-44.5 z"
           id="rect4618"
           inkscape:connector-curvature="0" />
        <path
           id="path4623"
           d="m 428.58398,595.50586 0,18.38476 -35.30664,35.3086 -9.19336,-9.19336 44.5,-44.5 z"
           style="opacity:1;fill:#00a2ab;fill-opacity:1;stroke:none;stroke-width:0.2;stroke-linecap:round;stroke-linejoin:round;stroke-miterlimit:4;stroke-dasharray:none;stroke-dashoffset:0;stroke-opacity:1"
           inkscape:connector-curvature="0" />
        <path
           style="opacity:1;fill:#d93954;fill-opacity:1;stroke:none;stroke-width:0.2;stroke-linecap:round;stroke-linejoin:round;stroke-miterlimit:4;stroke-dasharray:none;stroke-dashoffset:0;stroke-opacity:1"
           d="m 339.58398,595.50586 13,13 63,0 13,-13 -89,0 z"
           id="rect4630"
           inkscape:connector-curvature="0" />
      </g>
    </g>
    <text
       xml:space="preserve"
       style="font-style:normal;font-weight:normal;font-size:40px;line-height:125%;font-family:sans-serif;letter-spacing:0px;word-spacing:0px;fill:#000000;fill-opacity:1;stroke:none;stroke-width:1px;stroke-linecap:butt;stroke-linejoin:miter;stroke-opacity:1"
       x="133.5"
       y="279.86224"
       id="text4189"
       sodipodi:linespacing="125%"
       inkscape:export-xdpi="250"
       inkscape:export-ydpi="250"><tspan
         sodipodi:role="line"
         id="tspan4191"
         x="133.5"
         y="279.86224" /></text>
  </g>
</svg>
